NotoSansDevanagari-Bold.ufo
<glyph name="comma.deva" format="2">
  <advance width="309"/>
  <unicode hex="002C"/>
  <outline>
    <contour>
      <point x="31" y="-139" type="curve"/>
      <point x="167" y="-139" type="line"/>
      <point x="200" y="-65"/>
      <point x="235" y="63"/>
      <point x="253" y="135" type="curve"/>
      <point x="246" y="146" type="line"/>
      <point x="79" y="146" type="line"/>
      <point x="70" y="66"/>
      <point x="50" y="-48"/>
    </contour>
  </outline>
</glyph>
<glyph name="hyphen.deva" format="2">
  <advance width="387"/>
  <unicode hex="002D"/>
  <outline>
    <contour>
      <point x="55" y="373" type="line"/>
      <point x="55" y="221" type="line"/>
      <point x="331" y="221" type="line"/>
      <point x="331" y="373" type="line"/>
    </contour>
  </outline>
</glyph>
<glyph name="slash.deva" format="2">
  <advance width="507"/>
  <unicode hex="002F"/>
  <outline>
    <contour>
      <point x="315" y="833" type="line"/>
      <point x="29" y="-166" type="line"/>
      <point x="191" y="-166" type="line"/>
      <point x="477" y="833" type="line"/>
    </contour>
  </outline>
</glyph>
<glyph name="zero.deva" format="2">
  <advance width="578"/>
  <unicode hex="0030"/>
  <outline>
    <contour>
      <point x="289" y="-10" type="curve" smooth="yes"/>
      <point x="478" y="-10"/>
      <point x="543" y="129"/>
      <point x="543" y="356" type="curve" smooth="yes"/>
      <point x="543" y="589"/>
      <point x="464" y="724"/>
      <point x="289" y="724" type="curve" smooth="yes"/>
      <point x="102" y="724"/>
      <point x="35" y="589"/>
      <point x="35" y="356" type="curve" smooth="yes"/>
      <point x="35" y="126"/>
      <point x="113" y="-10"/>
    </contour>
    <contour>
      <point x="289" y="143" type="curve" smooth="yes"/>
      <point x="237" y="143"/>
      <point x="225" y="215"/>
      <point x="225" y="356" type="curve" smooth="yes"/>
      <point x="225" y="498"/>
      <point x="237" y="571"/>
      <point x="289" y="571" type="curve" smooth="yes"/>
      <point x="341" y="571"/>
      <point x="353" y="498"/>
      <point x="353" y="356" type="curve" smooth="yes"/>
      <point x="353" y="214"/>
      <point x="341" y="143"/>
    </contour>
  </outline>
</glyph>
<glyph name="equal.deva" format="2">
  <advance width="585"/>
  <unicode hex="003D"/>
  <outline>
    <contour>
      <point x="55" y="484" type="line"/>
      <point x="55" y="354" type="line"/>
      <point x="531" y="354" type="line"/>
      <point x="531" y="484" type="line"/>
    </contour>
    <contour>
      <point x="55" y="293" type="line"/>
      <point x="55" y="162" type="line"/>
      <point x="531" y="162" type="line"/>
      <point x="531" y="293" type="line"/>
    </contour>
  </outline>
</glyph>
<glyph name="bracketright.deva" format="2">
  <advance width="406"/>
  <unicode hex="005D"/>
  <outline>
    <contour>
      <point x="49" y="-42" type="line"/>
      <point x="49" y="-166" type="line"/>
      <point x="301" y="-166" type="line"/>
      <point x="301" y="832" type="line"/>
      <point x="49" y="832" type="line"/>
      <point x="49" y="708" type="line"/>
      <point x="146" y="708" type="line"/>
      <point x="146" y="-42" type="line"/>
    </contour>
  </outline>
</glyph>
<glyph name="asciicircum.deva" format="2">
  <advance width="585"/>
  <unicode hex="005E"/>
  <outline>
    <contour>
      <point x="250" y="717" type="line"/>
      <point x="16" y="244" type="line"/>
      <point x="164" y="244" type="line"/>
      <point x="293" y="525" type="line"/>
      <point x="421" y="244" type="line"/>
      <point x="570" y="244" type="line"/>
      <point x="336" y="717" type="line"/>
    </contour>
  </outline>
</glyph>
<glyph name="bar.deva" format="2">
  <advance width="540"/>
  <unicode hex="007C"/>
  <outline>
    <contour>
      <point x="201" y="832" type="line"/>
      <point x="201" y="-166" type="line"/>
      <point x="336" y="-166" type="line"/>
      <point x="336" y="832" type="line"/>
    </contour>
  </outline>
</glyph>
<glyph name="divide.deva" format="2">
  <advance width="585"/>
  <unicode hex="00F7"/>
  <outline>
    <contour>
      <point x="55" y="388" type="line"/>
      <point x="55" y="259" type="line"/>
      <point x="531" y="259" type="line"/>
      <point x="531" y="388" type="line"/>
    </contour>
    <contour>
      <point x="293" y="68" type="curve" smooth="yes"/>
      <point x="334" y="68"/>
      <point x="370" y="91"/>
      <point x="370" y="151" type="curve" smooth="yes"/>
      <point x="370" y="213"/>
      <point x="334" y="234"/>
      <point x="293" y="234" type="curve" smooth="yes"/>
      <point x="251" y="234"/>
      <point x="215" y="213"/>
      <point x="215" y="151" type="curve" smooth="yes"/>
      <point x="215" y="91"/>
      <point x="251" y="68"/>
    </contour>
    <contour>
      <point x="293" y="409" type="curve" smooth="yes"/>
      <point x="334" y="409"/>
      <point x="370" y="432"/>
      <point x="370" y="492" type="curve" smooth="yes"/>
      <point x="370" y="552"/>
      <point x="334" y="575"/>
      <point x="293" y="575" type="curve" smooth="yes"/>
      <point x="251" y="575"/>
      <point x="215" y="552"/>
      <point x="215" y="492" type="curve" smooth="yes"/>
      <point x="215" y="432"/>
      <point x="251" y="409"/>
    </contour>
  </outline>
</glyph>
<glyph name="binducandradeva" format="2">
  <unicode hex="0900"/>
  <outline>
    <contour>
      <point x="-434" y="682" type="curve"/>
      <point x="-311" y="644" type="line"/>
      <point x="-293" y="746"/>
      <point x="-259" y="793"/>
      <point x="-186" y="793" type="curve" smooth="yes"/>
      <point x="-121" y="793"/>
      <point x="-82" y="756"/>
      <point x="-42" y="643" type="curve"/>
      <point x="70" y="684" type="line"/>
      <point x="15" y="835"/>
      <point x="-74" y="896"/>
      <point x="-185" y="896" type="curve" smooth="yes"/>
      <point x="-309" y="896"/>
      <point x="-396" y="840"/>
    </contour>
    <contour>
      <point x="-116" y="706" type="curve" smooth="yes"/>
      <point x="-116" y="745"/>
      <point x="-142" y="770"/>
      <point x="-185" y="770" type="curve" smooth="yes"/>
      <point x="-228" y="770"/>
      <point x="-254" y="746"/>
      <point x="-254" y="706" type="curve" smooth="yes"/>
      <point x="-254" y="669"/>
      <point x="-226" y="644"/>
      <point x="-185" y="644" type="curve" smooth="yes"/>
      <point x="-142" y="644"/>
      <point x="-116" y="669"/>
    </contour>
  </outline>
</glyph>
<glyph name="candrabindudeva" format="2">
  <unicode hex="0901"/>
  <outline>
    <contour>
      <point x="-248" y="834" type="curve" smooth="yes"/>
      <point x="-248" y="795"/>
      <point x="-222" y="770"/>
      <point x="-179" y="770" type="curve" smooth="yes"/>
      <point x="-136" y="770"/>
      <point x="-110" y="794"/>
      <point x="-110" y="834" type="curve" smooth="yes"/>
      <point x="-110" y="871"/>
      <point x="-138" y="896"/>
      <point x="-179" y="896" type="curve" smooth="yes"/>
      <point x="-222" y="896"/>
      <point x="-248" y="871"/>
    </contour>
    <contour>
      <point x="71" y="858" type="curve"/>
      <point x="-53" y="896" type="line"/>
      <point x="-71" y="794"/>
      <point x="-105" y="747"/>
      <point x="-178" y="747" type="curve" smooth="yes"/>
      <point x="-243" y="747"/>
      <point x="-282" y="784"/>
      <point x="-322" y="896" type="curve"/>
      <point x="-434" y="856" type="line"/>
      <point x="-379" y="705"/>
      <point x="-290" y="644"/>
      <point x="-179" y="644" type="curve" smooth="yes"/>
      <point x="-54" y="644"/>
      <point x="33" y="700"/>
    </contour>
  </outline>
</glyph>
<glyph name="anusvaradeva" format="2">
  <unicode hex="0902"/>
  <outline>
    <contour>
      <point x="-241" y="774" type="curve" smooth="yes"/>
      <point x="-241" y="727"/>
      <point x="-207" y="693"/>
      <point x="-158" y="693" type="curve" smooth="yes"/>
      <point x="-110" y="693"/>
      <point x="-76" y="727"/>
      <point x="-76" y="774" type="curve" smooth="yes"/>
      <point x="-76" y="820"/>
      <point x="-110" y="855"/>
      <point x="-158" y="855" type="curve" smooth="yes"/>
      <point x="-207" y="855"/>
      <point x="-241" y="820"/>
    </contour>
  </outline>
</glyph>
<glyph name="visargadeva" format="2">
  <advance width="301"/>
  <unicode hex="0903"/>
  <outline>
    <contour>
      <point x="72" y="118" type="curve" smooth="yes"/>
      <point x="72" y="69"/>
      <point x="108" y="33"/>
      <point x="159" y="33" type="curve" smooth="yes"/>
      <point x="209" y="33"/>
      <point x="245" y="69"/>
      <point x="245" y="118" type="curve" smooth="yes"/>
      <point x="245" y="166"/>
      <point x="209" y="203"/>
      <point x="159" y="203" type="curve" smooth="yes"/>
      <point x="108" y="203"/>
      <point x="72" y="166"/>
    </contour>
    <contour>
      <point x="72" y="437" type="curve" smooth="yes"/>
      <point x="72" y="388"/>
      <point x="108" y="352"/>
      <point x="159" y="352" type="curve" smooth="yes"/>
      <point x="209" y="352"/>
      <point x="245" y="388"/>
      <point x="245" y="437" type="curve" smooth="yes"/>
      <point x="245" y="485"/>
      <point x="209" y="522"/>
      <point x="159" y="522" type="curve" smooth="yes"/>
      <point x="108" y="522"/>
      <point x="72" y="485"/>
    </contour>
  </outline>
</glyph>
<glyph name="ashortdeva" format="2">
  <advance width="908"/>
  <unicode hex="0904"/>
  <outline>
    <contour>
      <point x="838" y="484" type="line"/>
      <point x="923" y="484" type="line"/>
      <point x="923" y="622" type="line"/>
      <point x="604" y="622" type="line"/>
      <point x="604" y="484" type="line"/>
      <point x="661" y="484" type="line"/>
      <point x="661" y="0" type="line"/>
      <point x="838" y="0" type="line"/>
    </contour>
    <contour>
      <point x="356" y="632" type="curve" smooth="yes"/>
      <point x="283" y="632"/>
      <point x="222" y="612"/>
      <point x="170" y="588" type="curve"/>
      <point x="215" y="464" type="line"/>
      <point x="254" y="483"/>
      <point x="292" y="494"/>
      <point x="328" y="494" type="curve" smooth="yes"/>
      <point x="355" y="494"/>
      <point x="375" y="484"/>
      <point x="375" y="458" type="curve" smooth="yes"/>
      <point x="375" y="432"/>
      <point x="358" y="418"/>
      <point x="292" y="414" type="curve"/>
      <point x="298" y="282" type="line"/>
      <point x="460" y="287"/>
      <point x="550" y="356"/>
      <point x="550" y="468" type="curve" smooth="yes"/>
      <point x="550" y="562"/>
      <point x="482" y="632"/>
    </contour>
    <contour>
      <point x="565" y="212" type="curve" smooth="yes"/>
      <point x="565" y="246"/>
      <point x="557" y="275"/>
      <point x="544" y="300" type="curve"/>
      <point x="534" y="317" type="line"/>
      <point x="520" y="339"/>
      <point x="501" y="358"/>
      <point x="480" y="374" type="curve"/>
      <point x="396" y="378" type="line"/>
      <point x="315" y="341" type="line"/>
      <point x="362" y="309"/>
      <point x="388" y="275"/>
      <point x="388" y="231" type="curve" smooth="yes"/>
      <point x="388" y="206"/>
      <point x="371" y="193"/>
      <point x="343" y="193" type="curve" smooth="yes"/>
      <point x="273" y="193"/>
      <point x="210" y="277"/>
      <point x="161" y="401" type="curve"/>
      <point x="14" y="346" type="line"/>
      <point x="107" y="117"/>
      <point x="225" y="52"/>
      <point x="357" y="52" type="curve" smooth="yes"/>
      <point x="488" y="52"/>
      <point x="565" y="111"/>
    </contour>
    <contour>
      <point x="561" y="349" type="curve" smooth="yes"/>
      <point x="521" y="349"/>
      <point x="494" y="353"/>
      <point x="470" y="358" type="curve"/>
      <point x="455" y="345" type="line"/>
      <point x="467" y="231" type="line"/>
      <point x="495" y="226"/>
      <point x="535" y="220"/>
      <point x="578" y="220" type="curve" smooth="yes"/>
      <point x="623" y="220"/>
      <point x="665" y="226"/>
      <point x="705" y="251" type="curve"/>
      <point x="705" y="383" type="line"/>
      <point x="660" y="358"/>
      <point x="617" y="349"/>
    </contour>
    <contour>
      <point x="667" y="615" type="curve"/>
      <point x="820" y="615" type="line"/>
      <point x="772" y="803"/>
      <point x="719" y="833"/>
      <point x="645" y="833" type="curve" smooth="yes"/>
      <point x="616" y="833"/>
      <point x="595" y="830"/>
      <point x="569" y="830" type="curve" smooth="yes"/>
      <point x="532" y="830"/>
      <point x="519" y="847"/>
      <point x="497" y="896" type="curve"/>
      <point x="374" y="851" type="line"/>
      <point x="416" y="741"/>
      <point x="459" y="706"/>
      <point x="524" y="706" type="curve" smooth="yes"/>
      <point x="537" y="706"/>
      <point x="556" y="709"/>
      <point x="580" y="709" type="curve" smooth="yes"/>
      <point x="610" y="709"/>
      <point x="643" y="697"/>
    </contour>
  </outline>
</glyph>
<glyph name="adeva" format="2">
  <advance width="908"/>
  <unicode hex="0905"/>
  <outline>
    <contour>
      <point x="838" y="484" type="line"/>
      <point x="923" y="484" type="line"/>
      <point x="923" y="622" type="line"/>
      <point x="604" y="622" type="line"/>
      <point x="604" y="484" type="line"/>
      <point x="661" y="484" type="line"/>
      <point x="661" y="0" type="line"/>
      <point x="838" y="0" type="line"/>
    </contour>
    <contour>
      <point x="356" y="632" type="curve" smooth="yes"/>
      <point x="283" y="632"/>
      <point x="222" y="612"/>
      <point x="170" y="588" type="curve"/>
      <point x="215" y="464" type="line"/>
      <point x="254" y="483"/>
      <point x="292" y="494"/>
      <point x="328" y="494" type="curve" smooth="yes"/>
      <point x="355" y="494"/>
      <point x="375" y="484"/>
      <point x="375" y="458" type="curve" smooth="yes"/>
      <point x="375" y="432"/>
      <point x="358" y="418"/>
      <point x="292" y="414" type="curve"/>
      <point x="298" y="282" type="line"/>
      <point x="460" y="287"/>
      <point x="550" y="356"/>
      <point x="550" y="468" type="curve" smooth="yes"/>
      <point x="550" y="562"/>
      <point x="482" y="632"/>
    </contour>
    <contour>
      <point x="565" y="212" type="curve" smooth="yes"/>
      <point x="565" y="246"/>
      <point x="557" y="275"/>
      <point x="544" y="300" type="curve"/>
      <point x="534" y="317" type="line"/>
      <point x="520" y="339"/>
      <point x="501" y="358"/>
      <point x="480" y="374" type="curve"/>
      <point x="396" y="378" type="line"/>
      <point x="315" y="341" type="line"/>
      <point x="362" y="309"/>
      <point x="388" y="275"/>
      <point x="388" y="231" type="curve" smooth="yes"/>
      <point x="388" y="206"/>
      <point x="371" y="193"/>
      <point x="343" y="193" type="curve" smooth="yes"/>
      <point x="273" y="193"/>
      <point x="210" y="277"/>
      <point x="161" y="401" type="curve"/>
      <point x="14" y="346" type="line"/>
      <point x="107" y="117"/>
      <point x="225" y="52"/>
      <point x="357" y="52" type="curve" smooth="yes"/>
      <point x="488" y="52"/>
      <point x="565" y="111"/>
    </contour>
    <contour>
      <point x="561" y="349" type="curve" smooth="yes"/>
      <point x="521" y="349"/>
      <point x="494" y="353"/>
      <point x="470" y="358" type="curve"/>
      <point x="455" y="345" type="line"/>
      <point x="467" y="231" type="line"/>
      <point x="495" y="226"/>
      <point x="535" y="220"/>
      <point x="578" y="220" type="curve" smooth="yes"/>
      <point x="623" y="220"/>
      <point x="665" y="226"/>
      <point x="705" y="251" type="curve"/>
      <point x="705" y="383" type="line"/>
      <point x="660" y="358"/>
      <point x="617" y="349"/>
    </contour>
  </outline>
</glyph>
<glyph name="udeva" format="2">
  <advance width="609"/>
  <unicode hex="0909"/>
  <outline>
    <contour>
      <point x="0" y="622" type="line"/>
      <point x="0" y="484" type="line"/>
      <point x="624" y="484" type="line"/>
      <point x="624" y="622" type="line"/>
    </contour>
    <contour>
      <point x="326" y="619" type="curve" smooth="yes"/>
      <point x="296" y="521" type="line"/>
      <point x="345" y="503"/>
      <point x="382" y="480"/>
      <point x="382" y="441" type="curve" smooth="yes"/>
      <point x="382" y="397"/>
      <point x="348" y="389"/>
      <point x="282" y="386" type="curve"/>
      <point x="289" y="254" type="line"/>
      <point x="455" y="262"/>
      <point x="559" y="324"/>
      <point x="559" y="436" type="curve" smooth="yes"/>
      <point x="559" y="546"/>
      <point x="414" y="609"/>
    </contour>
    <contour>
      <point x="481" y="336" type="curve"/>
      <point x="328" y="288" type="line"/>
      <point x="373" y="261"/>
      <point x="403" y="228"/>
      <point x="403" y="184" type="curve" smooth="yes"/>
      <point x="403" y="159"/>
      <point x="390" y="141"/>
      <point x="354" y="141" type="curve" smooth="yes"/>
      <point x="278" y="141"/>
      <point x="217" y="226"/>
      <point x="161" y="366" type="curve"/>
      <point x="14" y="311" type="line"/>
      <point x="114" y="66"/>
      <point x="234" y="0"/>
      <point x="367" y="0" type="curve" smooth="yes"/>
      <point x="502" y="0"/>
      <point x="581" y="57"/>
      <point x="581" y="167" type="curve" smooth="yes"/>
      <point x="581" y="234"/>
      <point x="536" y="296"/>
    </contour>
  </outline>
</glyph>
<glyph name="uudeva" format="2">
  <advance width="875"/>
  <unicode hex="090A"/>
  <outline>
    <contour>
      <point x="0" y="622" type="line"/>
      <point x="0" y="484" type="line"/>
      <point x="890" y="484" type="line"/>
      <point x="890" y="622" type="line"/>
    </contour>
    <contour>
      <point x="326" y="619" type="curve"/>
      <point x="296" y="521" type="line"/>
      <point x="345" y="503"/>
      <point x="382" y="480"/>
      <point x="382" y="441" type="curve" smooth="yes"/>
      <point x="382" y="397"/>
      <point x="348" y="389"/>
      <point x="282" y="386" type="curve"/>
      <point x="289" y="254" type="line"/>
      <point x="455" y="262"/>
      <point x="559" y="324"/>
      <point x="559" y="436" type="curve" smooth="yes"/>
      <point x="559" y="546"/>
      <point x="414" y="609"/>
    </contour>
    <contour>
      <point x="475" y="336" type="curve"/>
      <point x="328" y="288" type="line"/>
      <point x="373" y="261"/>
      <point x="403" y="228"/>
      <point x="403" y="184" type="curve" smooth="yes"/>
      <point x="403" y="159"/>
      <point x="390" y="141"/>
      <point x="354" y="141" type="curve" smooth="yes"/>
      <point x="278" y="141"/>
      <point x="217" y="226"/>
      <point x="161" y="366" type="curve"/>
      <point x="14" y="311" type="line"/>
      <point x="114" y="66"/>
      <point x="234" y="0"/>
      <point x="367" y="0" type="curve" smooth="yes"/>
      <point x="502" y="0"/>
      <point x="581" y="57"/>
      <point x="581" y="167" type="curve" smooth="yes"/>
      <point x="581" y="234"/>
      <point x="534" y="295"/>
    </contour>
    <contour>
      <point x="480" y="288" type="curve"/>
      <point x="558" y="176" type="line"/>
      <point x="579" y="199"/>
      <point x="606" y="220"/>
      <point x="632" y="220" type="curve" smooth="yes"/>
      <point x="654" y="220"/>
      <point x="672" y="209"/>
      <point x="672" y="178" type="curve" smooth="yes"/>
      <point x="672" y="149"/>
      <point x="655" y="112"/>
      <point x="633" y="82" type="curve"/>
      <point x="786" y="2" type="line"/>
      <point x="830" y="65"/>
      <point x="849" y="128"/>
      <point x="849" y="192" type="curve" smooth="yes"/>
      <point x="849" y="296"/>
      <point x="777" y="357"/>
      <point x="666" y="357" type="curve" smooth="yes"/>
      <point x="586" y="357"/>
      <point x="539" y="329"/>
    </contour>
  </outline>
</glyph>
<glyph name="rvocalicdeva" format="2">
  <advance width="977"/>
  <unicode hex="090B"/>
  <outline>
    <contour>
      <point x="567" y="484" type="line"/>
      <point x="992" y="484" type="line"/>
      <point x="992" y="622" type="line"/>
      <point x="0" y="622" type="line"/>
      <point x="0" y="484" type="line"/>
      <point x="390" y="484" type="line"/>
      <point x="390" y="0" type="line"/>
      <point x="567" y="0" type="line"/>
    </contour>
    <contour>
      <point x="24" y="387" type="curve"/>
      <point x="79" y="252" type="line"/>
      <point x="136" y="280"/>
      <point x="169" y="292"/>
      <point x="209" y="292" type="curve" smooth="yes"/>
      <point x="247" y="292"/>
      <point x="267" y="280"/>
      <point x="310" y="238" type="curve"/>
      <point x="416" y="267" type="line"/>
      <point x="416" y="302" type="line"/>
      <point x="335" y="404"/>
      <point x="290" y="435"/>
      <point x="205" y="435" type="curve" smooth="yes"/>
      <point x="146" y="435"/>
      <point x="91" y="418"/>
    </contour>
    <contour>
      <point x="137" y="15" type="line"/>
      <point x="476" y="216" type="line"/>
      <point x="359" y="293" type="line"/>
      <point x="52" y="134" type="line"/>
    </contour>
    <contour>
      <point x="536" y="326" type="curve"/>
      <point x="533" y="198" type="line"/>
      <point x="602" y="201"/>
      <point x="659" y="209"/>
      <point x="710" y="225" type="curve"/>
      <point x="722" y="202"/>
      <point x="742" y="164"/>
      <point x="762" y="132" type="curve"/>
      <point x="857" y="140" type="line"/>
      <point x="888" y="183" type="line"/>
      <point x="862" y="217"/>
      <point x="847" y="241"/>
      <point x="830" y="269" type="curve"/>
      <point x="849" y="281"/>
      <point x="862" y="309"/>
      <point x="862" y="340" type="curve" smooth="yes"/>
      <point x="862" y="386"/>
      <point x="833" y="435"/>
      <point x="756" y="435" type="curve" smooth="yes"/>
      <point x="705" y="435"/>
      <point x="657" y="406"/>
      <point x="657" y="349" type="curve" smooth="yes"/>
      <point x="657" y="334"/>
      <point x="661" y="320"/>
      <point x="664" y="311" type="curve"/>
      <point x="686" y="349" type="line"/>
      <point x="647" y="332"/>
      <point x="581" y="328"/>
    </contour>
    <contour>
      <point x="988" y="-30" type="curve"/>
      <point x="941" y="85" type="line"/>
      <point x="898" y="64"/>
      <point x="872" y="56"/>
      <point x="841" y="56" type="curve" smooth="yes"/>
      <point x="811" y="56"/>
      <point x="795" y="70"/>
      <point x="795" y="93" type="curve" smooth="yes"/>
      <point x="795" y="111"/>
      <point x="804" y="133"/>
      <point x="857" y="140" type="curve"/>
      <point x="772" y="236" type="line"/>
      <point x="716" y="221"/>
      <point x="637" y="188"/>
      <point x="637" y="91" type="curve" smooth="yes"/>
      <point x="637" y="-6"/>
      <point x="717" y="-67"/>
      <point x="824" y="-67" type="curve" smooth="yes"/>
      <point x="897" y="-67"/>
      <point x="950" y="-46"/>
    </contour>
  </outline>
</glyph>
<glyph name="lvocalicdeva" format="2">
  <advance width="798"/>
  <unicode hex="090C"/>
  <outline>
    <contour>
      <point x="813" y="484" type="line"/>
      <point x="813" y="622" type="line"/>
      <point x="0" y="622" type="line"/>
      <point x="0" y="484" type="line"/>
      <point x="477" y="484" type="line"/>
      <point x="477" y="403" type="line"/>
      <point x="651" y="359" type="line"/>
      <point x="651" y="484" type="line"/>
    </contour>
    <contour>
      <point x="219" y="423" type="curve" smooth="yes"/>
      <point x="139" y="423"/>
      <point x="29" y="383"/>
      <point x="29" y="252" type="curve" smooth="yes"/>
      <point x="29" y="156"/>
      <point x="109" y="70"/>
      <point x="219" y="-18" type="curve"/>
      <point x="328" y="90" type="line"/>
      <point x="232" y="159"/>
      <point x="206" y="201"/>
      <point x="206" y="238" type="curve" smooth="yes"/>
      <point x="206" y="267"/>
      <point x="224" y="284"/>
      <point x="253" y="284" type="curve" smooth="yes"/>
      <point x="294" y="284"/>
      <point x="318" y="261"/>
      <point x="351" y="225" type="curve"/>
      <point x="411" y="355" type="line"/>
      <point x="344" y="403"/>
      <point x="306" y="423"/>
    </contour>
    <contour>
      <point x="477" y="35" type="curve" smooth="yes"/>
      <point x="477" y="-62"/>
      <point x="557" y="-123"/>
      <point x="664" y="-123" type="curve" smooth="yes"/>
      <point x="737" y="-123"/>
      <point x="785" y="-104"/>
      <point x="828" y="-86" type="curve"/>
      <point x="781" y="29" type="line"/>
      <point x="738" y="8"/>
      <point x="712" y="0"/>
      <point x="681" y="0" type="curve" smooth="yes"/>
      <point x="651" y="0"/>
      <point x="635" y="14"/>
      <point x="635" y="37" type="curve" smooth="yes"/>
      <point x="635" y="60"/>
      <point x="650" y="82"/>
      <point x="714" y="85" type="curve"/>
      <point x="698" y="197" type="line"/>
      <point x="560" y="187"/>
      <point x="477" y="136"/>
    </contour>
    <contour>
      <point x="552" y="421" type="curve" smooth="yes"/>
      <point x="407" y="421"/>
      <point x="318" y="355"/>
      <point x="282" y="209" type="curve"/>
      <point x="448" y="159" type="line"/>
      <point x="472" y="257"/>
      <point x="510" y="289"/>
      <point x="543" y="289" type="curve" smooth="yes"/>
      <point x="567" y="289"/>
      <point x="582" y="273"/>
      <point x="582" y="242" type="curve" smooth="yes"/>
      <point x="582" y="205"/>
      <point x="574" y="174"/>
      <point x="546" y="133" type="curve"/>
      <point x="714" y="85" type="line"/>
      <point x="744" y="139"/>
      <point x="759" y="182"/>
      <point x="759" y="237" type="curve" smooth="yes"/>
      <point x="759" y="348"/>
      <point x="679" y="421"/>
    </contour>
  </outline>
</glyph>
<glyph name="edeva" format="2">
  <advance width="641"/>
  <unicode hex="090F"/>
  <outline>
    <contour>
      <point x="656" y="484" type="line"/>
      <point x="656" y="622" type="line"/>
      <point x="0" y="622" type="line"/>
      <point x="0" y="484" type="line"/>
      <point x="62" y="484" type="line"/>
      <point x="62" y="332" type="line" smooth="yes"/>
      <point x="62" y="266"/>
      <point x="65" y="239"/>
      <point x="78" y="210" type="curve" smooth="yes"/>
      <point x="97" y="168"/>
      <point x="131" y="138"/>
      <point x="198" y="99" type="curve" smooth="yes"/>
      <point x="330" y="24" type="line" smooth="yes"/>
      <point x="404" y="-19"/>
      <point x="416" y="-35"/>
      <point x="416" y="-71" type="curve" smooth="yes"/>
      <point x="416" y="-96"/>
      <point x="403" y="-115"/>
      <point x="393" y="-127" type="curve"/>
      <point x="531" y="-206" type="line"/>
      <point x="565" y="-160"/>
      <point x="593" y="-110"/>
      <point x="593" y="-49" type="curve" smooth="yes"/>
      <point x="593" y="1"/>
      <point x="581" y="53"/>
      <point x="486" y="107" type="curve" smooth="yes"/>
      <point x="320" y="202" type="line" smooth="yes"/>
      <point x="246" y="244"/>
      <point x="239" y="260"/>
      <point x="239" y="334" type="curve" smooth="yes"/>
      <point x="239" y="484" type="line"/>
      <point x="406" y="484" type="line"/>
      <point x="406" y="410" type="line" smooth="yes"/>
      <point x="406" y="376"/>
      <point x="401" y="366"/>
      <point x="392" y="357" type="curve" smooth="yes"/>
      <point x="385" y="350"/>
      <point x="374" y="344"/>
      <point x="348" y="340" type="curve"/>
      <point x="376" y="198" type="line"/>
      <point x="456" y="209"/>
      <point x="500" y="223"/>
      <point x="535" y="252" type="curve" smooth="yes"/>
      <point x="571" y="281"/>
      <point x="583" y="318"/>
      <point x="583" y="392" type="curve" smooth="yes"/>
      <point x="583" y="484" type="line"/>
    </contour>
  </outline>
</glyph>
<glyph name="kadeva" format="2">
  <advance width="869"/>
  <unicode hex="0915"/>
  <outline>
    <contour>
      <point x="884" y="484" type="line"/>
      <point x="884" y="622" type="line"/>
      <point x="0" y="622" type="line"/>
      <point x="0" y="484" type="line"/>
      <point x="381" y="484" type="line"/>
      <point x="381" y="190" type="line"/>
      <point x="409" y="308" type="line"/>
      <point x="382" y="260"/>
      <point x="328" y="212"/>
      <point x="258" y="212" type="curve" smooth="yes"/>
      <point x="237" y="212"/>
      <point x="205" y="217"/>
      <point x="205" y="257" type="curve" smooth="yes"/>
      <point x="205" y="285"/>
      <point x="230" y="302"/>
      <point x="275" y="302" type="curve" smooth="yes"/>
      <point x="302" y="302"/>
      <point x="323" y="299"/>
      <point x="339" y="296" type="curve"/>
      <point x="354" y="431" type="line"/>
      <point x="323" y="436"/>
      <point x="291" y="440"/>
      <point x="250" y="440" type="curve" smooth="yes"/>
      <point x="113" y="440"/>
      <point x="28" y="369"/>
      <point x="28" y="261" type="curve" smooth="yes"/>
      <point x="28" y="134"/>
      <point x="114" y="73"/>
      <point x="241" y="73" type="curve" smooth="yes"/>
      <point x="321" y="73"/>
      <point x="373" y="93"/>
      <point x="435" y="137" type="curve"/>
      <point x="381" y="175" type="line"/>
      <point x="381" y="0" type="line"/>
      <point x="558" y="0" type="line"/>
      <point x="558" y="241" type="line"/>
      <point x="553" y="221" type="line"/>
      <point x="572" y="242"/>
      <point x="599" y="263"/>
      <point x="625" y="263" type="curve" smooth="yes"/>
      <point x="647" y="263"/>
      <point x="665" y="250"/>
      <point x="665" y="214" type="curve" smooth="yes"/>
      <point x="665" y="178"/>
      <point x="646" y="143"/>
      <point x="615" y="103" type="curve"/>
      <point x="768" y="20" type="line"/>
      <point x="823" y="96"/>
      <point x="842" y="161"/>
      <point x="842" y="224" type="curve" smooth="yes"/>
      <point x="842" y="333"/>
      <point x="770" y="400"/>
      <point x="663" y="400" type="curve" smooth="yes"/>
      <point x="612" y="400"/>
      <point x="580" y="389"/>
      <point x="545" y="368" type="curve"/>
      <point x="558" y="328" type="line"/>
      <point x="558" y="484" type="line"/>
    </contour>
  </outline>
</glyph>
<glyph name="gadeva" format="2">
  <advance width="652"/>
  <unicode hex="0917"/>
  <outline>
    <contour>
      <point x="280" y="484" type="line"/>
      <point x="405" y="484" type="line"/>
      <point x="405" y="0" type="line"/>
      <point x="582" y="0" type="line"/>
      <point x="582" y="484" type="line"/>
      <point x="667" y="484" type="line"/>
      <point x="667" y="622" type="line"/>
      <point x="0" y="622" type="line"/>
      <point x="0" y="484" type="line"/>
      <point x="103" y="484" type="line"/>
      <point x="103" y="366" type="line"/>
      <point x="116" y="369" type="line"/>
      <point x="45" y="369"/>
      <point x="27" y="339"/>
      <point x="27" y="295" type="curve" smooth="yes"/>
      <point x="27" y="223"/>
      <point x="120" y="123"/>
      <point x="197" y="123" type="curve" smooth="yes"/>
      <point x="252" y="123"/>
      <point x="280" y="155"/>
      <point x="280" y="229" type="curve" smooth="yes"/>
    </contour>
  </outline>
</glyph>
<glyph name="ghadeva" format="2">
  <advance width="684"/>
  <unicode hex="0918"/>
  <outline>
    <contour>
      <point x="699" y="484" type="line"/>
      <point x="699" y="622" type="line"/>
      <point x="0" y="622" type="line"/>
      <point x="0" y="484" type="line"/>
      <point x="437" y="484" type="line"/>
      <point x="437" y="194" type="line"/>
      <point x="451" y="298" type="line"/>
      <point x="409" y="245"/>
      <point x="358" y="213"/>
      <point x="295" y="213" type="curve" smooth="yes"/>
      <point x="263" y="213"/>
      <point x="243" y="224"/>
      <point x="243" y="247" type="curve" smooth="yes"/>
      <point x="243" y="268"/>
      <point x="260" y="279"/>
      <point x="297" y="279" type="curve" smooth="yes"/>
      <point x="307" y="279"/>
      <point x="319" y="279"/>
      <point x="328" y="278" type="curve"/>
      <point x="337" y="410" type="line"/>
      <point x="322" y="413"/>
      <point x="301" y="415"/>
      <point x="286" y="415" type="curve" smooth="yes"/>
      <point x="232" y="415"/>
      <point x="182" y="407"/>
      <point x="145" y="383" type="curve"/>
      <point x="135" y="368" type="line"/>
      <point x="88" y="338"/>
      <point x="66" y="291"/>
      <point x="66" y="245" type="curve" smooth="yes"/>
      <point x="66" y="143"/>
      <point x="145" y="75"/>
      <point x="281" y="75" type="curve" smooth="yes"/>
      <point x="360" y="75"/>
      <point x="413" y="96"/>
      <point x="469" y="133" type="curve"/>
      <point x="437" y="158" type="line"/>
      <point x="437" y="0" type="line"/>
      <point x="614" y="0" type="line"/>
      <point x="614" y="484" type="line"/>
    </contour>
    <contour>
      <point x="245" y="284" type="curve"/>
      <point x="258" y="404" type="line"/>
      <point x="226" y="405"/>
      <point x="204" y="423"/>
      <point x="204" y="452" type="curve" smooth="yes"/>
      <point x="204" y="475"/>
      <point x="216" y="490"/>
      <point x="251" y="507" type="curve"/>
      <point x="109" y="561" type="line"/>
      <point x="54" y="535"/>
      <point x="27" y="491"/>
      <point x="27" y="437" type="curve" smooth="yes"/>
      <point x="27" y="345"/>
      <point x="120" y="284"/>
    </contour>
  </outline>
</glyph>
<glyph name="cadeva" format="2">
  <advance width="730"/>
  <unicode hex="091A"/>
  <outline>
    <contour>
      <point x="745" y="484" type="line"/>
      <point x="745" y="622" type="line"/>
      <point x="0" y="622" type="line"/>
      <point x="0" y="484" type="line"/>
      <point x="483" y="484" type="line"/>
      <point x="483" y="247" type="line"/>
      <point x="510" y="305" type="line"/>
      <point x="486" y="263"/>
      <point x="433" y="212"/>
      <point x="361" y="212" type="curve" smooth="yes"/>
      <point x="322" y="212"/>
      <point x="305" y="229"/>
      <point x="305" y="255" type="curve" smooth="yes"/>
      <point x="305" y="281"/>
      <point x="324" y="297"/>
      <point x="374" y="297" type="curve" smooth="yes"/>
      <point x="406" y="297" type="line"/>
      <point x="418" y="429" type="line"/>
      <point x="402" y="431"/>
      <point x="377" y="433"/>
      <point x="360" y="433" type="curve" smooth="yes"/>
      <point x="34" y="433" type="line"/>
      <point x="34" y="296" type="line"/>
      <point x="154" y="300" type="line"/>
      <point x="138" y="284"/>
      <point x="128" y="257"/>
      <point x="128" y="228" type="curve" smooth="yes"/>
      <point x="128" y="129"/>
      <point x="204" y="73"/>
      <point x="341" y="73" type="curve" smooth="yes"/>
      <point x="421" y="73"/>
      <point x="474" y="94"/>
      <point x="528" y="133" type="curve"/>
      <point x="483" y="176" type="line"/>
      <point x="483" y="0" type="line"/>
      <point x="660" y="0" type="line"/>
      <point x="660" y="484" type="line"/>
    </contour>
  </outline>
</glyph>
<glyph name="chadeva" format="2">
  <advance width="795"/>
  <unicode hex="091B"/>
  <outline>
    <contour>
      <point x="644" y="484" type="line"/>
      <point x="810" y="484" type="line"/>
      <point x="810" y="622" type="line"/>
      <point x="0" y="622" type="line"/>
      <point x="0" y="484" type="line"/>
      <point x="472" y="484" type="line"/>
      <point x="472" y="394" type="line"/>
      <point x="644" y="394" type="line"/>
    </contour>
    <contour>
      <point x="347" y="135" type="curve" smooth="yes"/>
      <point x="274" y="135"/>
      <point x="248" y="144"/>
      <point x="248" y="164" type="curve" smooth="yes"/>
      <point x="248" y="177"/>
      <point x="259" y="185"/>
      <point x="292" y="185" type="curve" smooth="yes"/>
      <point x="304" y="185"/>
      <point x="315" y="184"/>
      <point x="321" y="183" type="curve"/>
      <point x="338" y="297" type="line"/>
      <point x="323" y="300"/>
      <point x="303" y="303"/>
      <point x="278" y="303" type="curve" smooth="yes"/>
      <point x="238" y="303"/>
      <point x="193" y="298"/>
      <point x="158" y="275" type="curve" smooth="yes"/>
      <point x="154" y="274"/>
      <point x="152" y="268"/>
      <point x="148" y="263" type="curve"/>
      <point x="102" y="235"/>
      <point x="83" y="194"/>
      <point x="83" y="155" type="curve" smooth="yes"/>
      <point x="83" y="64"/>
      <point x="164" y="0"/>
      <point x="346" y="0" type="curve" smooth="yes"/>
      <point x="631" y="0"/>
      <point x="768" y="135"/>
      <point x="768" y="274" type="curve" smooth="yes"/>
      <point x="768" y="398"/>
      <point x="678" y="459"/>
      <point x="545" y="459" type="curve" smooth="yes"/>
      <point x="413" y="459"/>
      <point x="353" y="406"/>
      <point x="353" y="331" type="curve" smooth="yes"/>
      <point x="353" y="261"/>
      <point x="407" y="213"/>
      <point x="504" y="182" type="curve"/>
      <point x="567" y="283" type="line"/>
      <point x="526" y="297"/>
      <point x="511" y="309"/>
      <point x="511" y="326" type="curve" smooth="yes"/>
      <point x="511" y="342"/>
      <point x="521" y="351"/>
      <point x="540" y="351" type="curve" smooth="yes"/>
      <point x="575" y="351"/>
      <point x="589" y="322"/>
      <point x="589" y="292" type="curve" smooth="yes"/>
      <point x="589" y="198"/>
      <point x="502" y="135"/>
    </contour>
    <contour>
      <point x="222" y="174" type="curve"/>
      <point x="251" y="291" type="line"/>
      <point x="214" y="296"/>
      <point x="195" y="305"/>
      <point x="195" y="321" type="curve" smooth="yes"/>
      <point x="195" y="337"/>
      <point x="208" y="344"/>
      <point x="244" y="344" type="curve" smooth="yes"/>
      <point x="266" y="344"/>
      <point x="287" y="342"/>
      <point x="308" y="338" type="curve"/>
      <point x="320" y="453" type="line"/>
      <point x="293" y="459"/>
      <point x="247" y="462"/>
      <point x="223" y="462" type="curve" smooth="yes"/>
      <point x="97" y="462"/>
      <point x="25" y="417"/>
      <point x="25" y="335" type="curve" smooth="yes"/>
      <point x="25" y="249"/>
      <point x="102" y="195"/>
    </contour>
  </outline>
</glyph>
<glyph name="jadeva" format="2">
  <advance width="884"/>
  <unicode hex="091C"/>
  <outline>
    <contour>
      <point x="814" y="484" type="line"/>
      <point x="899" y="484" type="line"/>
      <point x="899" y="622" type="line"/>
      <point x="0" y="622" type="line"/>
      <point x="0" y="484" type="line"/>
      <point x="637" y="484" type="line"/>
      <point x="637" y="426" type="line"/>
      <point x="347" y="426" type="line"/>
      <point x="299" y="328" type="line"/>
      <point x="358" y="293"/>
      <point x="384" y="266"/>
      <point x="384" y="229" type="curve" smooth="yes"/>
      <point x="384" y="202"/>
      <point x="369" y="191"/>
      <point x="346" y="191" type="curve" smooth="yes"/>
      <point x="274" y="191"/>
      <point x="219" y="265"/>
      <point x="158" y="420" type="curve"/>
      <point x="14" y="366" type="line"/>
      <point x="109" y="106"/>
      <point x="239" y="52"/>
      <point x="361" y="52" type="curve" smooth="yes"/>
      <point x="480" y="52"/>
      <point x="559" y="105"/>
      <point x="559" y="200" type="curve" smooth="yes"/>
      <point x="559" y="281"/>
      <point x="503" y="323"/>
      <point x="403" y="373" type="curve"/>
      <point x="502" y="298" type="line"/>
      <point x="521" y="294"/>
      <point x="554" y="293"/>
      <point x="590" y="293" type="curve" smooth="yes"/>
      <point x="637" y="293" type="line"/>
      <point x="637" y="0" type="line"/>
      <point x="814" y="0" type="line"/>
    </contour>
  </outline>
</glyph>
<glyph name="jhadeva" format="2">
  <advance width="848"/>
  <unicode hex="091D"/>
  <outline>
    <contour>
      <point x="778" y="484" type="line"/>
      <point x="863" y="484" type="line"/>
      <point x="863" y="622" type="line"/>
      <point x="524" y="622" type="line"/>
      <point x="524" y="484" type="line"/>
      <point x="601" y="484" type="line"/>
      <point x="601" y="0" type="line"/>
      <point x="778" y="0" type="line"/>
    </contour>
    <contour>
      <point x="273" y="181" type="curve" smooth="yes"/>
      <point x="322" y="181"/>
      <point x="334" y="174"/>
      <point x="334" y="157" type="curve" smooth="yes"/>
      <point x="334" y="139"/>
      <point x="313" y="126"/>
      <point x="248" y="126" type="curve" smooth="yes"/>
      <point x="222" y="126"/>
      <point x="175" y="129"/>
      <point x="124" y="150" type="curve"/>
      <point x="152" y="18" type="line"/>
      <point x="232" y="-34"/>
      <point x="333" y="-91"/>
      <point x="428" y="-132" type="curve"/>
      <point x="484" y="-13" type="line"/>
      <point x="413" y="4"/>
      <point x="310" y="37"/>
      <point x="261" y="59" type="curve"/>
      <point x="214" y="124"/>
      <point x="160" y="164"/>
      <point x="108" y="164" type="curve" smooth="yes"/>
      <point x="73" y="164"/>
      <point x="34" y="147"/>
      <point x="34" y="92" type="curve" smooth="yes"/>
      <point x="34" y="20"/>
      <point x="102" y="0"/>
      <point x="227" y="0" type="curve" smooth="yes"/>
      <point x="258" y="0"/>
      <point x="259" y="6"/>
      <point x="265" y="6" type="curve" smooth="yes"/>
      <point x="450" y="-3"/>
      <point x="512" y="73"/>
      <point x="512" y="153" type="curve" smooth="yes"/>
      <point x="512" y="237"/>
      <point x="451" y="299"/>
      <point x="321" y="299" type="curve" smooth="yes"/>
      <point x="276" y="299"/>
      <point x="254" y="295"/>
      <point x="225" y="290" type="curve"/>
      <point x="216" y="299"/>
      <point x="210" y="306"/>
      <point x="210" y="317" type="curve" smooth="yes"/>
      <point x="210" y="321"/>
      <point x="211" y="324"/>
      <point x="214" y="327" type="curve" smooth="yes"/>
      <point x="218" y="331"/>
      <point x="225" y="333"/>
      <point x="238" y="333" type="curve" smooth="yes"/>
      <point x="458" y="333" type="line"/>
      <point x="458" y="484" type="line"/>
      <point x="555" y="484" type="line"/>
      <point x="555" y="622" type="line"/>
      <point x="0" y="622" type="line"/>
      <point x="0" y="484" type="line"/>
      <point x="284" y="484" type="line"/>
      <point x="284" y="444" type="line"/>
      <point x="238" y="444" type="line" smooth="yes"/>
      <point x="139" y="444"/>
      <point x="107" y="436"/>
      <point x="75" y="409" type="curve" smooth="yes"/>
      <point x="47" y="386"/>
      <point x="37" y="358"/>
      <point x="37" y="325" type="curve" smooth="yes"/>
      <point x="37" y="254"/>
      <point x="103" y="196"/>
      <point x="169" y="166" type="curve"/>
      <point x="202" y="176"/>
      <point x="243" y="181"/>
    </contour>
    <contour>
      <point x="496" y="281" type="curve" smooth="yes"/>
      <point x="443" y="281"/>
      <point x="396" y="289"/>
      <point x="376" y="294" type="curve"/>
      <point x="377" y="262" type="line"/>
      <point x="428" y="161" type="line"/>
      <point x="443" y="155"/>
      <point x="470" y="149"/>
      <point x="522" y="149" type="curve" smooth="yes"/>
      <point x="552" y="149"/>
      <point x="602" y="154"/>
      <point x="645" y="178" type="curve"/>
      <point x="646" y="317" type="line"/>
      <point x="608" y="293"/>
      <point x="552" y="281"/>
    </contour>
  </outline>
</glyph>
<glyph name="nyadeva" format="2">
  <advance width="897"/>
  <unicode hex="091E"/>
  <outline>
    <contour>
      <point x="827" y="484" type="line"/>
      <point x="912" y="484" type="line"/>
      <point x="912" y="622" type="line"/>
      <point x="0" y="622" type="line"/>
      <point x="0" y="484" type="line"/>
      <point x="650" y="484" type="line"/>
      <point x="650" y="0" type="line"/>
      <point x="827" y="0" type="line"/>
    </contour>
    <contour>
      <point x="748" y="248" type="curve"/>
      <point x="748" y="396" type="line"/>
      <point x="711" y="358"/>
      <point x="670" y="321"/>
      <point x="593" y="321" type="curve" smooth="yes"/>
      <point x="569" y="321"/>
      <point x="552" y="325"/>
      <point x="537" y="331" type="curve"/>
      <point x="550" y="206" type="line"/>
      <point x="563" y="204"/>
      <point x="574" y="203"/>
      <point x="586" y="203" type="curve" smooth="yes"/>
      <point x="656" y="203"/>
      <point x="705" y="220"/>
    </contour>
    <contour>
      <point x="226" y="411" type="curve"/>
      <point x="275" y="285" type="line"/>
      <point x="303" y="296"/>
      <point x="326" y="302"/>
      <point x="354" y="302" type="curve" smooth="yes"/>
      <point x="390" y="302"/>
      <point x="413" y="289"/>
      <point x="413" y="255" type="curve" smooth="yes"/>
      <point x="413" y="221"/>
      <point x="391" y="206"/>
      <point x="344" y="206" type="curve" smooth="yes"/>
      <point x="272" y="206"/>
      <point x="206" y="261"/>
      <point x="155" y="361" type="curve"/>
      <point x="14" y="302" type="line"/>
      <point x="95" y="133"/>
      <point x="227" y="68"/>
      <point x="351" y="68" type="curve" smooth="yes"/>
      <point x="467" y="68"/>
      <point x="584" y="102"/>
      <point x="584" y="254" type="curve" smooth="yes"/>
      <point x="584" y="374"/>
      <point x="511" y="440"/>
      <point x="385" y="440" type="curve" smooth="yes"/>
      <point x="322" y="440"/>
      <point x="274" y="429"/>
    </contour>
  </outline>
</glyph>
<glyph name="ttadeva" format="2">
  <advance width="559"/>
  <unicode hex="091F"/>
  <outline>
    <contour>
      <point x="574" y="484" type="line"/>
      <point x="574" y="622" type="line"/>
      <point x="0" y="622" type="line"/>
      <point x="0" y="484" type="line"/>
      <point x="268" y="484" type="line"/>
      <point x="268" y="423" type="line"/>
      <point x="298" y="432" type="line"/>
      <point x="291" y="432" type="line"/>
      <point x="146" y="432"/>
      <point x="28" y="367"/>
      <point x="28" y="227" type="curve" smooth="yes"/>
      <point x="28" y="82"/>
      <point x="144" y="0"/>
      <point x="310" y="0" type="curve" smooth="yes"/>
      <point x="391" y="0"/>
      <point x="477" y="19"/>
      <point x="547" y="51" type="curve"/>
      <point x="495" y="188" type="line"/>
      <point x="447" y="160"/>
      <point x="388" y="140"/>
      <point x="324" y="140" type="curve" smooth="yes"/>
      <point x="254" y="140"/>
      <point x="206" y="164"/>
      <point x="206" y="223" type="curve" smooth="yes"/>
      <point x="206" y="248"/>
      <point x="219" y="269"/>
      <point x="241" y="281" type="curve" smooth="yes"/>
      <point x="263" y="293"/>
      <point x="291" y="299"/>
      <point x="361" y="299" type="curve" smooth="yes"/>
      <point x="443" y="299" type="line"/>
      <point x="443" y="484" type="line"/>
    </contour>
  </outline>
</glyph>
<glyph name="tthadeva" format="2">
  <advance width="631"/>
  <unicode hex="0920"/>
  <outline>
    <contour>
      <point x="646" y="484" type="line"/>
      <point x="646" y="622" type="line"/>
      <point x="0" y="622" type="line"/>
      <point x="0" y="484" type="line"/>
      <point x="268" y="484" type="line"/>
      <point x="268" y="410" type="line"/>
      <point x="306" y="432" type="line"/>
      <point x="291" y="432" type="line"/>
      <point x="146" y="432"/>
      <point x="28" y="367"/>
      <point x="28" y="229" type="curve" smooth="yes"/>
      <point x="28" y="86"/>
      <point x="140" y="0"/>
      <point x="323" y="0" type="curve" smooth="yes"/>
      <point x="492" y="0"/>
      <point x="605" y="58"/>
      <point x="605" y="208" type="curve" smooth="yes"/>
      <point x="605" y="294"/>
      <point x="558" y="372"/>
      <point x="443" y="421" type="curve"/>
      <point x="443" y="484" type="line"/>
    </contour>
    <contour>
      <point x="315" y="139" type="curve" smooth="yes"/>
      <point x="251" y="139"/>
      <point x="206" y="167"/>
      <point x="206" y="223" type="curve" smooth="yes"/>
      <point x="206" y="248"/>
      <point x="219" y="269"/>
      <point x="241" y="281" type="curve" smooth="yes"/>
      <point x="263" y="293"/>
      <point x="291" y="299"/>
      <point x="361" y="299" type="curve" smooth="yes"/>
      <point x="371" y="299" type="line"/>
      <point x="407" y="280"/>
      <point x="427" y="251"/>
      <point x="427" y="212" type="curve" smooth="yes"/>
      <point x="427" y="163"/>
      <point x="388" y="139"/>
    </contour>
  </outline>
</glyph>
<glyph name="ddadeva" format="2">
  <advance width="652"/>
  <unicode hex="0921"/>
  <outline>
    <contour>
      <point x="383" y="181" type="curve" smooth="yes"/>
      <point x="429" y="181"/>
      <point x="443" y="174"/>
      <point x="443" y="158" type="curve" smooth="yes"/>
      <point x="443" y="139"/>
      <point x="423" y="129"/>
      <point x="366" y="129" type="curve" smooth="yes"/>
      <point x="265" y="129"/>
      <point x="188" y="178"/>
      <point x="123" y="241" type="curve"/>
      <point x="11" y="141" type="line"/>
      <point x="85" y="72"/>
      <point x="215" y="0"/>
      <point x="376" y="0" type="curve" smooth="yes"/>
      <point x="561" y="0"/>
      <point x="624" y="67"/>
      <point x="624" y="155" type="curve" smooth="yes"/>
      <point x="624" y="238"/>
      <point x="561" y="299"/>
      <point x="429" y="299" type="curve" smooth="yes"/>
      <point x="384" y="299"/>
      <point x="362" y="295"/>
      <point x="333" y="290" type="curve"/>
      <point x="324" y="299"/>
      <point x="318" y="307"/>
      <point x="318" y="317" type="curve" smooth="yes"/>
      <point x="318" y="322"/>
      <point x="319" y="324"/>
      <point x="322" y="327" type="curve" smooth="yes"/>
      <point x="326" y="331"/>
      <point x="333" y="333"/>
      <point x="346" y="333" type="curve" smooth="yes"/>
      <point x="570" y="333" type="line"/>
      <point x="570" y="484" type="line"/>
      <point x="667" y="484" type="line"/>
      <point x="667" y="622" type="line"/>
      <point x="0" y="622" type="line"/>
      <point x="0" y="484" type="line"/>
      <point x="396" y="484" type="line"/>
      <point x="396" y="444" type="line"/>
      <point x="348" y="444" type="line" smooth="yes"/>
      <point x="249" y="444"/>
      <point x="215" y="436"/>
      <point x="183" y="409" type="curve" smooth="yes"/>
      <point x="155" y="386"/>
      <point x="145" y="358"/>
      <point x="145" y="325" type="curve" smooth="yes"/>
      <point x="145" y="254"/>
      <point x="211" y="196"/>
      <point x="277" y="166" type="curve"/>
      <point x="310" y="175"/>
      <point x="353" y="181"/>
    </contour>
  </outline>
</glyph>
<glyph name="ddhadeva" format="2">
  <advance width="629"/>
  <unicode hex="0922"/>
  <outline>
    <contour>
      <point x="351" y="0" type="curve" smooth="yes"/>
      <point x="523" y="0"/>
      <point x="611" y="64"/>
      <point x="611" y="159" type="curve" smooth="yes"/>
      <point x="611" y="238"/>
      <point x="557" y="303"/>
      <point x="434" y="303" type="curve" smooth="yes"/>
      <point x="311" y="303"/>
      <point x="258" y="248"/>
      <point x="258" y="165" type="curve" smooth="yes"/>
      <point x="258" y="110"/>
      <point x="284" y="59"/>
      <point x="314" y="21" type="curve"/>
      <point x="440" y="41" type="line"/>
      <point x="407" y="80"/>
      <point x="387" y="113"/>
      <point x="387" y="146" type="curve" smooth="yes"/>
      <point x="387" y="166"/>
      <point x="399" y="188"/>
      <point x="434" y="188" type="curve" smooth="yes"/>
      <point x="454" y="188"/>
      <point x="468" y="178"/>
      <point x="468" y="163" type="curve" smooth="yes"/>
      <point x="468" y="140"/>
      <point x="447" y="130"/>
      <point x="384" y="130" type="curve" smooth="yes"/>
      <point x="357" y="130"/>
      <point x="320" y="130"/>
      <point x="311" y="131" type="curve"/>
      <point x="232" y="133"/>
      <point x="206" y="174"/>
      <point x="206" y="222" type="curve" smooth="yes"/>
      <point x="206" y="255"/>
      <point x="220" y="280"/>
      <point x="244" y="295" type="curve" smooth="yes"/>
      <point x="266" y="309"/>
      <point x="293" y="319"/>
      <point x="378" y="319" type="curve" smooth="yes"/>
      <point x="492" y="319" type="line"/>
      <point x="492" y="484" type="line"/>
      <point x="644" y="484" type="line"/>
      <point x="644" y="622" type="line"/>
      <point x="0" y="622" type="line"/>
      <point x="0" y="484" type="line"/>
      <point x="318" y="484" type="line"/>
      <point x="318" y="409" type="line"/>
      <point x="348" y="450" type="line"/>
      <point x="329" y="450" type="line"/>
      <point x="149" y="449"/>
      <point x="30" y="378"/>
      <point x="30" y="228" type="curve" smooth="yes"/>
      <point x="30" y="83"/>
      <point x="157" y="0"/>
    </contour>
  </outline>
</glyph>
<glyph name="nnadeva" format="2">
  <advance width="856"/>
  <unicode hex="0923"/>
  <outline>
    <contour>
      <point x="786" y="484" type="line"/>
      <point x="871" y="484" type="line"/>
      <point x="871" y="622" type="line"/>
      <point x="0" y="622" type="line"/>
      <point x="0" y="484" type="line"/>
      <point x="59" y="484" type="line"/>
      <point x="59" y="338" type="line" smooth="yes"/>
      <point x="59" y="244"/>
      <point x="75" y="203"/>
      <point x="105" y="169" type="curve" smooth="yes"/>
      <point x="144" y="124"/>
      <point x="204" y="103"/>
      <point x="289" y="103" type="curve" smooth="yes"/>
      <point x="379" y="103"/>
      <point x="436" y="122"/>
      <point x="470" y="162" type="curve" smooth="yes"/>
      <point x="499" y="196"/>
      <point x="516" y="232"/>
      <point x="516" y="328" type="curve" smooth="yes"/>
      <point x="516" y="484" type="line"/>
      <point x="609" y="484" type="line"/>
      <point x="609" y="0" type="line"/>
      <point x="786" y="0" type="line"/>
    </contour>
    <contour>
      <point x="287" y="241" type="curve" smooth="yes"/>
      <point x="268" y="241"/>
      <point x="254" y="247"/>
      <point x="246" y="260" type="curve" smooth="yes"/>
      <point x="238" y="273"/>
      <point x="236" y="289"/>
      <point x="236" y="323" type="curve" smooth="yes"/>
      <point x="236" y="484" type="line"/>
      <point x="339" y="484" type="line"/>
      <point x="339" y="323" type="line" smooth="yes"/>
      <point x="339" y="289"/>
      <point x="336" y="270"/>
      <point x="325" y="256" type="curve" smooth="yes"/>
      <point x="317" y="246"/>
      <point x="304" y="241"/>
    </contour>
  </outline>
</glyph>
<glyph name="thadeva" format="2">
  <advance width="777"/>
  <unicode hex="0925"/>
  <outline>
    <contour>
      <point x="530" y="204" type="line"/>
      <point x="530" y="0" type="line"/>
      <point x="707" y="0" type="line"/>
      <point x="707" y="484" type="line"/>
      <point x="792" y="484" type="line"/>
      <point x="792" y="622" type="line"/>
      <point x="479" y="622" type="line"/>
      <point x="479" y="484" type="line"/>
      <point x="530" y="484" type="line"/>
      <point x="530" y="254" type="line"/>
      <point x="564" y="359" type="line"/>
      <point x="524" y="270"/>
      <point x="462" y="232"/>
      <point x="388" y="232" type="curve" smooth="yes"/>
      <point x="332" y="232"/>
      <point x="294" y="262"/>
      <point x="280" y="307" type="curve"/>
      <point x="277" y="245" type="line"/>
      <point x="401" y="279"/>
      <point x="443" y="361"/>
      <point x="443" y="443" type="curve" smooth="yes"/>
      <point x="443" y="565"/>
      <point x="356" y="632"/>
      <point x="221" y="632" type="curve" smooth="yes"/>
      <point x="119" y="632"/>
      <point x="40" y="591"/>
      <point x="40" y="504" type="curve" smooth="yes"/>
      <point x="40" y="428"/>
      <point x="89" y="378"/>
      <point x="180" y="358" type="curve"/>
      <point x="223" y="463" type="line"/>
      <point x="193" y="467"/>
      <point x="178" y="478"/>
      <point x="178" y="496" type="curve" smooth="yes"/>
      <point x="178" y="511"/>
      <point x="188" y="522"/>
      <point x="210" y="522" type="curve" smooth="yes"/>
      <point x="249" y="522"/>
      <point x="266" y="490"/>
      <point x="266" y="455" type="curve" smooth="yes"/>
      <point x="266" y="395"/>
      <point x="231" y="349"/>
      <point x="108" y="322" type="curve"/>
      <point x="145" y="179"/>
      <point x="227" y="95"/>
      <point x="376" y="95" type="curve" smooth="yes"/>
      <point x="453" y="95"/>
      <point x="502" y="108"/>
      <point x="572" y="152" type="curve"/>
    </contour>
  </outline>
</glyph>
<glyph name="nadeva" format="2">
  <advance width="654"/>
  <unicode hex="0928"/>
  <outline>
    <contour>
      <point x="0" y="622" type="line"/>
      <point x="0" y="484" type="line"/>
      <point x="407" y="484" type="line"/>
      <point x="407" y="376" type="line"/>
      <point x="116" y="376" type="line" smooth="yes"/>
      <point x="45" y="376"/>
      <point x="27" y="346"/>
      <point x="27" y="302" type="curve" smooth="yes"/>
      <point x="27" y="230"/>
      <point x="120" y="130"/>
      <point x="197" y="130" type="curve" smooth="yes"/>
      <point x="252" y="130"/>
      <point x="280" y="162"/>
      <point x="280" y="236" type="curve" smooth="yes"/>
      <point x="280" y="238" type="line"/>
      <point x="407" y="238" type="line"/>
      <point x="407" y="0" type="line"/>
      <point x="584" y="0" type="line"/>
      <point x="584" y="484" type="line"/>
      <point x="669" y="484" type="line"/>
      <point x="669" y="622" type="line"/>
    </contour>
  </outline>
</glyph>
<glyph name="padeva" format="2">
  <advance width="645"/>
  <unicode hex="092A"/>
  <outline>
    <contour>
      <point x="575" y="484" type="line"/>
      <point x="660" y="484" type="line"/>
      <point x="660" y="622" type="line"/>
      <point x="0" y="622" type="line"/>
      <point x="0" y="484" type="line"/>
      <point x="57" y="484" type="line"/>
      <point x="57" y="349" type="line" smooth="yes"/>
      <point x="57" y="247"/>
      <point x="79" y="205"/>
      <point x="110" y="170" type="curve" smooth="yes"/>
      <point x="135" y="141"/>
      <point x="186" y="113"/>
      <point x="262" y="113" type="curve" smooth="yes"/>
      <point x="340" y="113"/>
      <point x="385" y="125"/>
      <point x="458" y="170" type="curve"/>
      <point x="398" y="215" type="line"/>
      <point x="398" y="0" type="line"/>
      <point x="575" y="0" type="line"/>
    </contour>
    <contour>
      <point x="398" y="484" type="line"/>
      <point x="398" y="222" type="line"/>
      <point x="426" y="328" type="line"/>
      <point x="401" y="292"/>
      <point x="352" y="251"/>
      <point x="300" y="251" type="curve" smooth="yes"/>
      <point x="276" y="251"/>
      <point x="261" y="257"/>
      <point x="252" y="266" type="curve" smooth="yes"/>
      <point x="237" y="281"/>
      <point x="234" y="300"/>
      <point x="234" y="349" type="curve" smooth="yes"/>
      <point x="234" y="484" type="line"/>
    </contour>
  </outline>
</glyph>
<glyph name="phadeva" format="2">
  <advance width="869"/>
  <unicode hex="092B"/>
  <outline>
    <contour>
      <point x="558" y="484" type="line"/>
      <point x="884" y="484" type="line"/>
      <point x="884" y="622" type="line"/>
      <point x="0" y="622" type="line"/>
      <point x="0" y="484" type="line"/>
      <point x="57" y="484" type="line"/>
      <point x="57" y="349" type="line" smooth="yes"/>
      <point x="57" y="247"/>
      <point x="79" y="205"/>
      <point x="110" y="170" type="curve" smooth="yes"/>
      <point x="136" y="141"/>
      <point x="186" y="113"/>
      <point x="262" y="113" type="curve" smooth="yes"/>
      <point x="320" y="113"/>
      <point x="372" y="122"/>
      <point x="429" y="165" type="curve"/>
      <point x="381" y="192" type="line"/>
      <point x="381" y="0" type="line"/>
      <point x="558" y="0" type="line"/>
      <point x="558" y="289" type="line"/>
      <point x="553" y="221" type="line"/>
      <point x="572" y="242"/>
      <point x="599" y="263"/>
      <point x="625" y="263" type="curve" smooth="yes"/>
      <point x="647" y="263"/>
      <point x="665" y="250"/>
      <point x="665" y="214" type="curve" smooth="yes"/>
      <point x="665" y="178"/>
      <point x="646" y="143"/>
      <point x="615" y="103" type="curve"/>
      <point x="768" y="20" type="line"/>
      <point x="823" y="96"/>
      <point x="842" y="161"/>
      <point x="842" y="224" type="curve" smooth="yes"/>
      <point x="842" y="333"/>
      <point x="770" y="400"/>
      <point x="663" y="400" type="curve" smooth="yes"/>
      <point x="612" y="400"/>
      <point x="578" y="389"/>
      <point x="540" y="364" type="curve"/>
      <point x="558" y="320" type="line"/>
    </contour>
    <contour>
      <point x="234" y="484" type="line"/>
      <point x="381" y="484" type="line"/>
      <point x="381" y="220" type="line"/>
      <point x="409" y="313" type="line"/>
      <point x="391" y="290"/>
      <point x="352" y="251"/>
      <point x="300" y="251" type="curve" smooth="yes"/>
      <point x="276" y="251"/>
      <point x="261" y="257"/>
      <point x="252" y="266" type="curve" smooth="yes"/>
      <point x="237" y="281"/>
      <point x="234" y="300"/>
      <point x="234" y="349" type="curve" smooth="yes"/>
    </contour>
  </outline>
</glyph>
<glyph name="badeva" format="2">
  <advance width="649"/>
  <unicode hex="092C"/>
  <outline>
    <contour>
      <point x="664" y="484" type="line"/>
      <point x="664" y="622" type="line"/>
      <point x="0" y="622" type="line"/>
      <point x="0" y="484" type="line"/>
      <point x="402" y="484" type="line"/>
      <point x="402" y="191" type="line"/>
      <point x="427" y="300" type="line"/>
      <point x="401" y="258"/>
      <point x="346" y="202"/>
      <point x="257" y="202" type="curve" smooth="yes"/>
      <point x="218" y="202"/>
      <point x="191" y="212"/>
      <point x="191" y="257" type="curve" smooth="yes"/>
      <point x="191" y="293"/>
      <point x="221" y="312"/>
      <point x="282" y="312" type="curve" smooth="yes"/>
      <point x="316" y="312"/>
      <point x="341" y="307"/>
      <point x="360" y="304" type="curve"/>
      <point x="375" y="431" type="line"/>
      <point x="341" y="436"/>
      <point x="309" y="440"/>
      <point x="265" y="440" type="curve" smooth="yes"/>
      <point x="112" y="440"/>
      <point x="28" y="369"/>
      <point x="28" y="261" type="curve" smooth="yes"/>
      <point x="28" y="134"/>
      <point x="117" y="73"/>
      <point x="239" y="73" type="curve" smooth="yes"/>
      <point x="332" y="73"/>
      <point x="388" y="94"/>
      <point x="453" y="140" type="curve"/>
      <point x="402" y="174" type="line"/>
      <point x="402" y="0" type="line"/>
      <point x="579" y="0" type="line"/>
      <point x="579" y="484" type="line"/>
    </contour>
    <contour>
      <point x="233" y="395" type="line"/>
      <point x="146" y="368" type="line"/>
      <point x="334" y="133" type="line"/>
      <point x="405" y="180" type="line"/>
    </contour>
  </outline>
</glyph>
<glyph name="bhadeva" format="2">
  <advance width="831"/>
  <unicode hex="092D"/>
  <outline>
    <contour>
      <point x="220" y="632" type="curve" smooth="yes"/>
      <point x="121" y="632"/>
      <point x="44" y="593"/>
      <point x="44" y="502" type="curve" smooth="yes"/>
      <point x="44" y="408"/>
      <point x="122" y="362"/>
      <point x="228" y="354" type="curve"/>
      <point x="238" y="461" type="line"/>
      <point x="199" y="465"/>
      <point x="185" y="475"/>
      <point x="185" y="495" type="curve" smooth="yes"/>
      <point x="185" y="510"/>
      <point x="195" y="520"/>
      <point x="214" y="520" type="curve" smooth="yes"/>
      <point x="228" y="520"/>
      <point x="240" y="516"/>
      <point x="248" y="508" type="curve" smooth="yes"/>
      <point x="262" y="495"/>
      <point x="268" y="474"/>
      <point x="268" y="434" type="curve" smooth="yes"/>
      <point x="268" y="332" type="line"/>
      <point x="274" y="333" type="line"/>
      <point x="204" y="333"/>
      <point x="189" y="301"/>
      <point x="189" y="267" type="curve" smooth="yes"/>
      <point x="189" y="197"/>
      <point x="282" y="101"/>
      <point x="359" y="101" type="curve" smooth="yes"/>
      <point x="414" y="101"/>
      <point x="442" y="129"/>
      <point x="442" y="193" type="curve" smooth="yes"/>
      <point x="442" y="195" type="line"/>
      <point x="584" y="195" type="line"/>
      <point x="584" y="0" type="line"/>
      <point x="761" y="0" type="line"/>
      <point x="761" y="484" type="line"/>
      <point x="846" y="484" type="line"/>
      <point x="846" y="622" type="line"/>
      <point x="509" y="622" type="line"/>
      <point x="509" y="484" type="line"/>
      <point x="584" y="484" type="line"/>
      <point x="584" y="333" type="line"/>
      <point x="442" y="333" type="line"/>
      <point x="442" y="409" type="line" smooth="yes"/>
      <point x="442" y="503"/>
      <point x="419" y="550"/>
      <point x="386" y="579" type="curve" smooth="yes"/>
      <point x="344" y="615"/>
      <point x="295" y="632"/>
    </contour>
  </outline>
</glyph>
<glyph name="madeva" format="2">
  <advance width="686"/>
  <unicode hex="092E"/>
  <outline>
    <contour>
      <point x="616" y="484" type="line"/>
      <point x="701" y="484" type="line"/>
      <point x="701" y="622" type="line"/>
      <point x="0" y="622" type="line"/>
      <point x="0" y="484" type="line"/>
      <point x="103" y="484" type="line"/>
      <point x="103" y="332" type="line"/>
      <point x="112" y="333" type="line"/>
      <point x="42" y="333"/>
      <point x="27" y="301"/>
      <point x="27" y="267" type="curve" smooth="yes"/>
      <point x="27" y="197"/>
      <point x="120" y="101"/>
      <point x="197" y="101" type="curve" smooth="yes"/>
      <point x="252" y="101"/>
      <point x="280" y="129"/>
      <point x="280" y="193" type="curve" smooth="yes"/>
      <point x="280" y="195" type="line"/>
      <point x="439" y="195" type="line"/>
      <point x="439" y="0" type="line"/>
      <point x="616" y="0" type="line"/>
    </contour>
    <contour>
      <point x="439" y="484" type="line"/>
      <point x="439" y="333" type="line"/>
      <point x="280" y="333" type="line"/>
      <point x="280" y="484" type="line"/>
    </contour>
  </outline>
</glyph>
<glyph name="yadeva" format="2">
  <advance width="670"/>
  <unicode hex="092F"/>
  <outline>
    <contour>
      <point x="685" y="622" type="line"/>
      <point x="0" y="622" type="line"/>
      <point x="0" y="484" type="line"/>
      <point x="199" y="484" type="line"/>
      <point x="90" y="523" type="line"/>
      <point x="112" y="503"/>
      <point x="129" y="478"/>
      <point x="129" y="444" type="curve" smooth="yes"/>
      <point x="129" y="396"/>
      <point x="100" y="372"/>
      <point x="23" y="355" type="curve"/>
      <point x="57" y="201"/>
      <point x="129" y="95"/>
      <point x="282" y="95" type="curve" smooth="yes"/>
      <point x="351" y="95"/>
      <point x="398" y="108"/>
      <point x="468" y="152" type="curve"/>
      <point x="423" y="209" type="line"/>
      <point x="423" y="0" type="line"/>
      <point x="600" y="0" type="line"/>
      <point x="600" y="484" type="line"/>
      <point x="685" y="484" type="line"/>
    </contour>
    <contour>
      <point x="202" y="484" type="line"/>
      <point x="423" y="484" type="line"/>
      <point x="423" y="228" type="line"/>
      <point x="464" y="359" type="line"/>
      <point x="424" y="270"/>
      <point x="368" y="233"/>
      <point x="298" y="233" type="curve" smooth="yes"/>
      <point x="254" y="233"/>
      <point x="222" y="257"/>
      <point x="206" y="288" type="curve"/>
      <point x="267" y="312"/>
      <point x="305" y="353"/>
      <point x="305" y="417" type="curve" smooth="yes"/>
      <point x="305" y="468"/>
      <point x="282" y="506"/>
      <point x="257" y="539" type="curve"/>
    </contour>
  </outline>
</glyph>
<glyph name="radeva" format="2">
  <advance width="462"/>
  <unicode hex="0930"/>
  <outline>
    <contour>
      <point x="382" y="484" type="line"/>
      <point x="477" y="484" type="line"/>
      <point x="477" y="622" type="line"/>
      <point x="0" y="622" type="line"/>
      <point x="0" y="484" type="line"/>
      <point x="265" y="484" type="line"/>
      <point x="210" y="526" type="line"/>
      <point x="228" y="499"/>
      <point x="238" y="469"/>
      <point x="238" y="432" type="curve" smooth="yes"/>
      <point x="238" y="387"/>
      <point x="218" y="361"/>
      <point x="172" y="336" type="curve"/>
      <point x="268" y="285" type="line"/>
      <point x="226" y="356"/>
      <point x="187" y="398"/>
      <point x="120" y="398" type="curve" smooth="yes"/>
      <point x="54" y="398"/>
      <point x="27" y="356"/>
      <point x="27" y="311" type="curve" smooth="yes"/>
      <point x="27" y="277"/>
      <point x="40" y="245"/>
      <point x="71" y="206" type="curve" smooth="yes"/>
      <point x="125" y="140"/>
      <point x="226" y="59"/>
      <point x="339" y="-18" type="curve"/>
      <point x="440" y="98" type="line"/>
      <point x="362" y="148"/>
      <point x="305" y="190"/>
      <point x="239" y="243" type="curve"/>
      <point x="240" y="206" type="line"/>
      <point x="348" y="240"/>
      <point x="415" y="307"/>
      <point x="415" y="406" type="curve" smooth="yes"/>
      <point x="415" y="459"/>
      <point x="402" y="493"/>
      <point x="389" y="522" type="curve"/>
    </contour>
  </outline>
</glyph>
<glyph name="ladeva" format="2">
  <advance width="776"/>
  <unicode hex="0932"/>
  <outline>
    <contour>
      <point x="0" y="484" type="line"/>
      <point x="529" y="484" type="line"/>
      <point x="529" y="408" type="line"/>
      <point x="623" y="388" type="line"/>
      <point x="621" y="411" type="line"/>
      <point x="605" y="416"/>
      <point x="570" y="421"/>
      <point x="547" y="421" type="curve" smooth="yes"/>
      <point x="410" y="421"/>
      <point x="317" y="355"/>
      <point x="282" y="209" type="curve"/>
      <point x="448" y="159" type="line"/>
      <point x="472" y="257"/>
      <point x="510" y="289"/>
      <point x="543" y="289" type="curve" smooth="yes"/>
      <point x="575" y="289"/>
      <point x="588" y="287"/>
      <point x="606" y="277" type="curve"/>
      <point x="529" y="347" type="line"/>
      <point x="529" y="0" type="line"/>
      <point x="706" y="0" type="line"/>
      <point x="706" y="484" type="line"/>
      <point x="791" y="484" type="line"/>
      <point x="791" y="622" type="line"/>
      <point x="0" y="622" type="line"/>
    </contour>
    <contour>
      <point x="351" y="225" type="curve"/>
      <point x="411" y="355" type="line"/>
      <point x="344" y="403"/>
      <point x="306" y="423"/>
      <point x="219" y="423" type="curve" smooth="yes"/>
      <point x="139" y="423"/>
      <point x="29" y="383"/>
      <point x="29" y="252" type="curve" smooth="yes"/>
      <point x="29" y="156"/>
      <point x="107" y="69"/>
      <point x="217" y="-19" type="curve"/>
      <point x="326" y="89" type="line"/>
      <point x="230" y="159"/>
      <point x="206" y="201"/>
      <point x="206" y="238" type="curve" smooth="yes"/>
      <point x="206" y="267"/>
      <point x="224" y="284"/>
      <point x="253" y="284" type="curve" smooth="yes"/>
      <point x="294" y="284"/>
      <point x="318" y="261"/>
    </contour>
  </outline>
</glyph>
<glyph name="vadeva" format="2">
  <advance width="634"/>
  <unicode hex="0935"/>
  <outline>
    <contour>
      <point x="649" y="484" type="line"/>
      <point x="649" y="622" type="line"/>
      <point x="0" y="622" type="line"/>
      <point x="0" y="484" type="line"/>
      <point x="387" y="484" type="line"/>
      <point x="387" y="185" type="line"/>
      <point x="415" y="308" type="line"/>
      <point x="390" y="264"/>
      <point x="335" y="212"/>
      <point x="261" y="212" type="curve" smooth="yes"/>
      <point x="237" y="212"/>
      <point x="205" y="217"/>
      <point x="205" y="257" type="curve" smooth="yes"/>
      <point x="205" y="285"/>
      <point x="230" y="302"/>
      <point x="278" y="302" type="curve" smooth="yes"/>
      <point x="308" y="302"/>
      <point x="329" y="299"/>
      <point x="345" y="296" type="curve"/>
      <point x="360" y="431" type="line"/>
      <point x="328" y="436"/>
      <point x="297" y="440"/>
      <point x="254" y="440" type="curve" smooth="yes"/>
      <point x="113" y="440"/>
      <point x="28" y="369"/>
      <point x="28" y="261" type="curve" smooth="yes"/>
      <point x="28" y="134"/>
      <point x="114" y="73"/>
      <point x="243" y="73" type="curve" smooth="yes"/>
      <point x="326" y="73"/>
      <point x="378" y="94"/>
      <point x="441" y="140" type="curve"/>
      <point x="387" y="174" type="line"/>
      <point x="387" y="0" type="line"/>
      <point x="564" y="0" type="line"/>
      <point x="564" y="484" type="line"/>
    </contour>
  </outline>
</glyph>
<glyph name="shadeva" format="2">
  <advance width="809"/>
  <unicode hex="0936"/>
  <outline>
    <contour>
      <point x="739" y="484" type="line"/>
      <point x="824" y="484" type="line"/>
      <point x="824" y="622" type="line"/>
      <point x="496" y="622" type="line"/>
      <point x="496" y="484" type="line"/>
      <point x="562" y="484" type="line"/>
      <point x="562" y="0" type="line"/>
      <point x="739" y="0" type="line"/>
    </contour>
    <contour>
      <point x="159" y="134" type="curve" smooth="yes"/>
      <point x="347" y="135"/>
      <point x="485" y="246"/>
      <point x="485" y="420" type="curve" smooth="yes"/>
      <point x="485" y="561"/>
      <point x="374" y="632"/>
      <point x="238" y="632" type="curve" smooth="yes"/>
      <point x="113" y="632"/>
      <point x="47" y="578"/>
      <point x="47" y="490" type="curve" smooth="yes"/>
      <point x="47" y="409"/>
      <point x="112" y="352"/>
      <point x="251" y="337" type="curve"/>
      <point x="289" y="444" type="line"/>
      <point x="231" y="451"/>
      <point x="211" y="466"/>
      <point x="211" y="491" type="curve" smooth="yes"/>
      <point x="211" y="510"/>
      <point x="226" y="519"/>
      <point x="244" y="519" type="curve" smooth="yes"/>
      <point x="281" y="519"/>
      <point x="308" y="486"/>
      <point x="308" y="428" type="curve" smooth="yes"/>
      <point x="308" y="335"/>
      <point x="238" y="275"/>
      <point x="148" y="266" type="curve"/>
      <point x="138" y="219" type="line"/>
      <point x="196" y="172"/>
      <point x="279" y="94"/>
      <point x="364" y="-8" type="curve"/>
      <point x="488" y="87" type="line"/>
      <point x="432" y="142"/>
      <point x="362" y="202"/>
      <point x="303" y="244" type="curve"/>
      <point x="284" y="258" type="line"/>
      <point x="244" y="300"/>
      <point x="179" y="322"/>
      <point x="134" y="322" type="curve" smooth="yes"/>
      <point x="66" y="322"/>
      <point x="28" y="288"/>
      <point x="28" y="235" type="curve" smooth="yes"/>
      <point x="28" y="166"/>
      <point x="86" y="134"/>
    </contour>
  </outline>
</glyph>
<glyph name="hadeva" format="2">
  <advance width="589"/>
  <unicode hex="0939"/>
  <outline>
    <contour>
      <point x="119" y="164" type="curve"/>
      <point x="277" y="216" type="line"/>
      <point x="246" y="233"/>
      <point x="218" y="259"/>
      <point x="218" y="284" type="curve" smooth="yes"/>
      <point x="218" y="293"/>
      <point x="221" y="300"/>
      <point x="226" y="304" type="curve" smooth="yes"/>
      <point x="234" y="311"/>
      <point x="246" y="313"/>
      <point x="269" y="313" type="curve" smooth="yes"/>
      <point x="519" y="313" type="line"/>
      <point x="519" y="484" type="line"/>
      <point x="604" y="484" type="line"/>
      <point x="604" y="622" type="line"/>
      <point x="0" y="622" type="line"/>
      <point x="0" y="484" type="line"/>
      <point x="345" y="484" type="line"/>
      <point x="345" y="444" type="line"/>
      <point x="272" y="444" type="line" smooth="yes"/>
      <point x="165" y="444"/>
      <point x="127" y="432"/>
      <point x="91" y="404" type="curve" smooth="yes"/>
      <point x="65" y="383"/>
      <point x="45" y="352"/>
      <point x="45" y="308" type="curve" smooth="yes"/>
      <point x="45" y="241"/>
      <point x="84" y="197"/>
    </contour>
    <contour>
      <point x="335" y="77" type="curve"/>
      <point x="377" y="-47" type="line"/>
      <point x="493" y="-20"/>
      <point x="559" y="21"/>
      <point x="559" y="109" type="curve" smooth="yes"/>
      <point x="559" y="193"/>
      <point x="490" y="268"/>
      <point x="320" y="268" type="curve" smooth="yes"/>
      <point x="159" y="268"/>
      <point x="32" y="211"/>
      <point x="32" y="89" type="curve" smooth="yes"/>
      <point x="32" y="-6"/>
      <point x="105" y="-87"/>
      <point x="205" y="-173" type="curve"/>
      <point x="314" y="-65" type="line"/>
      <point x="237" y="-6"/>
      <point x="209" y="32"/>
      <point x="209" y="70" type="curve" smooth="yes"/>
      <point x="209" y="114"/>
      <point x="243" y="137"/>
      <point x="309" y="137" type="curve" smooth="yes"/>
      <point x="366" y="137"/>
      <point x="384" y="127"/>
      <point x="384" y="108" type="curve" smooth="yes"/>
      <point x="384" y="93"/>
      <point x="371" y="83"/>
    </contour>
  </outline>
</glyph>
<glyph name="oevowelsigndeva" format="2">
  <unicode hex="093A"/>
  <outline>
    <contour>
      <point x="-247" y="617" type="line"/>
      <point x="-70" y="617" type="line"/>
      <point x="-70" y="805" type="line"/>
      <point x="-247" y="805" type="line"/>
    </contour>
  </outline>
</glyph>
<glyph name="nuktadeva" format="2">
  <unicode hex="093C"/>
  <outline>
    <contour>
      <point x="-364" y="-134" type="curve" smooth="yes"/>
      <point x="-364" y="-181"/>
      <point x="-330" y="-215"/>
      <point x="-281" y="-215" type="curve" smooth="yes"/>
      <point x="-233" y="-215"/>
      <point x="-199" y="-181"/>
      <point x="-199" y="-134" type="curve" smooth="yes"/>
      <point x="-199" y="-88"/>
      <point x="-233" y="-53"/>
      <point x="-281" y="-53" type="curve" smooth="yes"/>
      <point x="-330" y="-53"/>
      <point x="-364" y="-88"/>
    </contour>
  </outline>
</glyph>
<glyph name="avagrahadeva" format="2">
  <advance width="568"/>
  <unicode hex="093D"/>
  <outline>
    <contour>
      <point x="541" y="189" type="curve" smooth="yes"/>
      <point x="541" y="266"/>
      <point x="514" y="316"/>
      <point x="412" y="390" type="curve" smooth="yes"/>
      <point x="344" y="439"/>
      <point x="337" y="452"/>
      <point x="337" y="467" type="curve" smooth="yes"/>
      <point x="337" y="472"/>
      <point x="339" y="475"/>
      <point x="342" y="478" type="curve" smooth="yes"/>
      <point x="347" y="483"/>
      <point x="353" y="484"/>
      <point x="368" y="484" type="curve" smooth="yes"/>
      <point x="520" y="484" type="line"/>
      <point x="520" y="622" type="line"/>
      <point x="406" y="622" type="line" smooth="yes"/>
      <point x="292" y="622"/>
      <point x="257" y="609"/>
      <point x="221" y="588" type="curve" smooth="yes"/>
      <point x="180" y="561"/>
      <point x="158" y="525"/>
      <point x="158" y="474" type="curve" smooth="yes"/>
      <point x="158" y="404"/>
      <point x="193" y="349"/>
      <point x="290" y="280" type="curve" smooth="yes"/>
      <point x="354" y="234"/>
      <point x="364" y="221"/>
      <point x="364" y="199" type="curve" smooth="yes"/>
      <point x="364" y="177"/>
      <point x="345" y="167"/>
      <point x="323" y="167" type="curve" smooth="yes"/>
      <point x="264" y="167"/>
      <point x="214" y="221"/>
      <point x="157" y="319" type="curve"/>
      <point x="17" y="252" type="line"/>
      <point x="102" y="95"/>
      <point x="206" y="26"/>
      <point x="329" y="26" type="curve" smooth="yes"/>
      <point x="466" y="26"/>
      <point x="541" y="86"/>
    </contour>
  </outline>
</glyph>
<glyph name="aavowelsigndeva" format="2">
  <advance width="317"/>
  <unicode hex="093E"/>
  <outline>
    <contour>
      <point x="247" y="484" type="line"/>
      <point x="332" y="484" type="line"/>
      <point x="332" y="622" type="line"/>
      <point x="0" y="622" type="line"/>
      <point x="0" y="484" type="line"/>
      <point x="70" y="484" type="line"/>
      <point x="70" y="0" type="line"/>
      <point x="247" y="0" type="line"/>
    </contour>
  </outline>
</glyph>
<glyph name="iivowelsigndeva" format="2">
  <advance width="317"/>
  <unicode hex="0940"/>
  <outline>
    <contour>
      <point x="-255" y="615" type="curve"/>
      <point x="-82" y="615" type="line"/>
      <point x="-94" y="638"/>
      <point x="-104" y="666"/>
      <point x="-104" y="695" type="curve" smooth="yes"/>
      <point x="-104" y="733"/>
      <point x="-84" y="758"/>
      <point x="-48" y="758" type="curve" smooth="yes"/>
      <point x="9" y="758"/>
      <point x="44" y="707"/>
      <point x="73" y="622" type="curve"/>
      <point x="0" y="622" type="line"/>
      <point x="0" y="484" type="line"/>
      <point x="70" y="484" type="line"/>
      <point x="70" y="0" type="line"/>
      <point x="247" y="0" type="line"/>
      <point x="247" y="484" type="line"/>
      <point x="332" y="484" type="line"/>
      <point x="332" y="622" type="line"/>
      <point x="228" y="622" type="line"/>
      <point x="198" y="747"/>
      <point x="120" y="896"/>
      <point x="-69" y="896" type="curve" smooth="yes"/>
      <point x="-199" y="896"/>
      <point x="-281" y="829"/>
      <point x="-281" y="722" type="curve" smooth="yes"/>
      <point x="-281" y="688"/>
      <point x="-272" y="649"/>
    </contour>
  </outline>
</glyph>
<glyph name="uvowelsigndeva" format="2">
  <unicode hex="0941"/>
  <outline>
    <contour>
      <point x="-295" y="18" type="curve"/>
      <point x="-253" y="-94" type="line"/>
      <point x="-233" y="-87"/>
      <point x="-208" y="-82"/>
      <point x="-190" y="-82" type="curve" smooth="yes"/>
      <point x="-161" y="-82"/>
      <point x="-147" y="-92"/>
      <point x="-147" y="-113" type="curve" smooth="yes"/>
      <point x="-147" y="-134"/>
      <point x="-164" y="-144"/>
      <point x="-196" y="-144" type="curve" smooth="yes"/>
      <point x="-263" y="-144"/>
      <point x="-326" y="-117"/>
      <point x="-412" y="-22" type="curve"/>
      <point x="-525" y="-100" type="line"/>
      <point x="-438" y="-200"/>
      <point x="-331" y="-268"/>
      <point x="-188" y="-268" type="curve" smooth="yes"/>
      <point x="-57" y="-268"/>
      <point x="7" y="-203"/>
      <point x="7" y="-118" type="curve" smooth="yes"/>
      <point x="7" y="-24"/>
      <point x="-60" y="41"/>
      <point x="-170" y="41" type="curve" smooth="yes"/>
      <point x="-217" y="41"/>
      <point x="-252" y="33"/>
    </contour>
  </outline>
</glyph>
<glyph name="uuvowelsigndeva" format="2">
  <unicode hex="0942"/>
  <outline>
    <contour>
      <point x="-90" y="-245" type="curve"/>
      <point x="-132" y="-132" type="line"/>
      <point x="-151" y="-140"/>
      <point x="-175" y="-145"/>
      <point x="-195" y="-145" type="curve" smooth="yes"/>
      <point x="-224" y="-145"/>
      <point x="-238" y="-135"/>
      <point x="-238" y="-114" type="curve" smooth="yes"/>
      <point x="-238" y="-93"/>
      <point x="-221" y="-83"/>
      <point x="-186" y="-83" type="curve" smooth="yes"/>
      <point x="-110" y="-83"/>
      <point x="-44" y="-144"/>
      <point x="24" y="-245" type="curve"/>
      <point x="145" y="-178" type="line"/>
      <point x="48" y="-53"/>
      <point x="-39" y="41"/>
      <point x="-194" y="41" type="curve" smooth="yes"/>
      <point x="-326" y="41"/>
      <point x="-392" y="-24"/>
      <point x="-392" y="-113" type="curve" smooth="yes"/>
      <point x="-392" y="-203"/>
      <point x="-320" y="-268"/>
      <point x="-212" y="-268" type="curve" smooth="yes"/>
      <point x="-169" y="-268"/>
      <point x="-133" y="-261"/>
    </contour>
  </outline>
</glyph>
<glyph name="rvocalicvowelsigndeva" format="2">
  <unicode hex="0943"/>
  <outline>
    <contour>
      <point x="54" y="-231" type="curve"/>
      <point x="7" y="-116" type="line"/>
      <point x="-36" y="-137"/>
      <point x="-62" y="-145"/>
      <point x="-93" y="-145" type="curve" smooth="yes"/>
      <point x="-123" y="-145"/>
      <point x="-139" y="-131"/>
      <point x="-139" y="-108" type="curve" smooth="yes"/>
      <point x="-139" y="-85"/>
      <point x="-124" y="-63"/>
      <point x="-60" y="-60" type="curve"/>
      <point x="-76" y="52" type="line"/>
      <point x="-214" y="42"/>
      <point x="-297" y="-9"/>
      <point x="-297" y="-110" type="curve" smooth="yes"/>
      <point x="-297" y="-207"/>
      <point x="-217" y="-268"/>
      <point x="-110" y="-268" type="curve" smooth="yes"/>
      <point x="-37" y="-268"/>
      <point x="16" y="-247"/>
    </contour>
  </outline>
</glyph>
<glyph name="rrvocalicvowelsigndeva" format="2">
  <unicode hex="0944"/>
  <outline>
    <contour>
      <point x="54" y="-205" type="curve"/>
      <point x="9" y="-97" type="line"/>
      <point x="-34" y="-118"/>
      <point x="-62" y="-125"/>
      <point x="-93" y="-125" type="curve" smooth="yes"/>
      <point x="-123" y="-125"/>
      <point x="-139" y="-115"/>
      <point x="-139" y="-97" type="curve" smooth="yes"/>
      <point x="-139" y="-77"/>
      <point x="-123" y="-61"/>
      <point x="-60" y="-60" type="curve"/>
      <point x="-76" y="52" type="line"/>
      <point x="-214" y="43"/>
      <point x="-297" y="-3"/>
      <point x="-297" y="-95" type="curve" smooth="yes"/>
      <point x="-297" y="-183"/>
      <point x="-217" y="-238"/>
      <point x="-110" y="-238" type="curve" smooth="yes"/>
      <point x="-37" y="-238"/>
      <point x="16" y="-219"/>
    </contour>
    <contour>
      <point x="96" y="-362" type="curve"/>
      <point x="51" y="-253" type="line"/>
      <point x="8" y="-274"/>
      <point x="-20" y="-281"/>
      <point x="-51" y="-281" type="curve" smooth="yes"/>
      <point x="-81" y="-281"/>
      <point x="-97" y="-271"/>
      <point x="-97" y="-253" type="curve" smooth="yes"/>
      <point x="-97" y="-241"/>
      <point x="-91" y="-230"/>
      <point x="-73" y="-224" type="curve"/>
      <point x="-196" y="-146" type="line"/>
      <point x="-234" y="-170"/>
      <point x="-255" y="-205"/>
      <point x="-255" y="-251" type="curve" smooth="yes"/>
      <point x="-255" y="-339"/>
      <point x="-175" y="-394"/>
      <point x="-68" y="-394" type="curve" smooth="yes"/>
      <point x="5" y="-394"/>
      <point x="58" y="-376"/>
    </contour>
  </outline>
</glyph>
<glyph name="ecandravowelsigndeva" format="2">
  <unicode hex="0945"/>
  <outline>
    <contour>
      <point x="70" y="858" type="curve"/>
      <point x="-53" y="896" type="line"/>
      <point x="-71" y="808"/>
      <point x="-105" y="767"/>
      <point x="-178" y="767" type="curve" smooth="yes"/>
      <point x="-243" y="767"/>
      <point x="-282" y="799"/>
      <point x="-322" y="896" type="curve"/>
      <point x="-434" y="856" type="line"/>
      <point x="-379" y="709"/>
      <point x="-290" y="649"/>
      <point x="-179" y="649" type="curve" smooth="yes"/>
      <point x="-55" y="649"/>
      <point x="32" y="704"/>
    </contour>
  </outline>
</glyph>
<glyph name="evowelsigndeva" format="2">
  <unicode hex="0947"/>
  <outline>
    <contour>
      <point x="-241" y="615" type="curve"/>
      <point x="-88" y="615" type="line"/>
      <point x="-154" y="868"/>
      <point x="-243" y="896"/>
      <point x="-344" y="896" type="curve" smooth="yes"/>
      <point x="-390" y="896"/>
      <point x="-429" y="888"/>
      <point x="-464" y="873" type="curve"/>
      <point x="-419" y="743" type="line"/>
      <point x="-402" y="751"/>
      <point x="-376" y="756"/>
      <point x="-352" y="756" type="curve" smooth="yes"/>
      <point x="-296" y="756"/>
      <point x="-275" y="715"/>
    </contour>
  </outline>
</glyph>
<glyph name="aivowelsigndeva" format="2">
  <unicode hex="0948"/>
  <outline>
    <contour>
      <point x="-244" y="615" type="curve"/>
      <point x="-88" y="615" type="line"/>
      <point x="-154" y="868"/>
      <point x="-243" y="896"/>
      <point x="-343" y="896" type="curve" smooth="yes"/>
      <point x="-391" y="896"/>
      <point x="-431" y="888"/>
      <point x="-462" y="877" type="curve"/>
      <point x="-428" y="783" type="line"/>
      <point x="-405" y="791"/>
      <point x="-382" y="796"/>
      <point x="-359" y="796" type="curve" smooth="yes"/>
      <point x="-316" y="796"/>
      <point x="-282" y="783"/>
      <point x="-244" y="715" type="curve"/>
      <point x="-248" y="714" type="line"/>
      <point x="-298" y="758"/>
      <point x="-329" y="766"/>
      <point x="-371" y="766" type="curve" smooth="yes"/>
      <point x="-407" y="766"/>
      <point x="-443" y="754"/>
      <point x="-477" y="740" type="curve"/>
      <point x="-439" y="645" type="line"/>
      <point x="-411" y="658"/>
      <point x="-382" y="665"/>
      <point x="-354" y="665" type="curve" smooth="yes"/>
      <point x="-320" y="665"/>
      <point x="-295" y="657"/>
    </contour>
  </outline>
</glyph>
<glyph name="viramadeva" format="2">
  <unicode hex="094D"/>
  <outline>
    <contour>
      <point x="-258" y="-30" type="curve"/>
      <point x="-230" y="-157" type="line"/>
      <point x="-213" y="-153"/>
      <point x="-193" y="-150"/>
      <point x="-174" y="-150" type="curve" smooth="yes"/>
      <point x="-91" y="-150"/>
      <point x="-55" y="-179"/>
      <point x="20" y="-268" type="curve"/>
      <point x="126" y="-198" type="line"/>
      <point x="35" y="-84"/>
      <point x="-34" y="-18"/>
      <point x="-168" y="-18" type="curve" smooth="yes"/>
      <point x="-201" y="-18"/>
      <point x="-230" y="-23"/>
    </contour>
  </outline>
</glyph>
<glyph name="uni094E" format="2">
  <advance width="335"/>
  <unicode hex="094E"/>
  <outline>
    <contour>
      <point x="265" y="484" type="line"/>
      <point x="349" y="484" type="line"/>
      <point x="349" y="622" type="line"/>
      <point x="88" y="622" type="line"/>
      <point x="88" y="0" type="line"/>
      <point x="265" y="0" type="line"/>
    </contour>
  </outline>
</glyph>
<glyph name="omdeva" format="2">
  <advance width="1098"/>
  <unicode hex="0950"/>
  <outline>
    <contour>
      <point x="465" y="404" type="curve"/>
      <point x="388" y="332" type="line"/>
      <point x="422" y="251"/>
      <point x="505" y="202"/>
      <point x="555" y="202" type="curve" smooth="yes"/>
      <point x="648" y="202"/>
      <point x="690" y="245"/>
      <point x="760" y="337" type="curve" smooth="yes"/>
      <point x="781" y="365" type="line" smooth="yes"/>
      <point x="807" y="398"/>
      <point x="821" y="409"/>
      <point x="843" y="409" type="curve" smooth="yes"/>
      <point x="871" y="409"/>
      <point x="886" y="385"/>
      <point x="886" y="347" type="curve" smooth="yes"/>
      <point x="886" y="292"/>
      <point x="861" y="277"/>
      <point x="825" y="277" type="curve" smooth="yes"/>
      <point x="806" y="277"/>
      <point x="786" y="283"/>
      <point x="763" y="299" type="curve"/>
      <point x="678" y="188" type="line"/>
      <point x="717" y="156"/>
      <point x="777" y="138"/>
      <point x="844" y="138" type="curve" smooth="yes"/>
      <point x="1011" y="138"/>
      <point x="1063" y="227"/>
      <point x="1063" y="346" type="curve" smooth="yes"/>
      <point x="1063" y="476"/>
      <point x="975" y="547"/>
      <point x="847" y="547" type="curve" smooth="yes"/>
      <point x="733" y="547"/>
      <point x="674" y="494"/>
      <point x="616" y="417" type="curve" smooth="yes"/>
      <point x="589" y="382" type="line" smooth="yes"/>
      <point x="563" y="349"/>
      <point x="545" y="330"/>
      <point x="519" y="330" type="curve" smooth="yes"/>
      <point x="487" y="330"/>
      <point x="474" y="366"/>
    </contour>
    <contour>
      <point x="170" y="588" type="curve"/>
      <point x="215" y="464" type="line"/>
      <point x="254" y="483"/>
      <point x="292" y="494"/>
      <point x="328" y="494" type="curve" smooth="yes"/>
      <point x="355" y="494"/>
      <point x="375" y="484"/>
      <point x="375" y="458" type="curve" smooth="yes"/>
      <point x="375" y="432"/>
      <point x="358" y="418"/>
      <point x="292" y="414" type="curve"/>
      <point x="298" y="282" type="line"/>
      <point x="460" y="287"/>
      <point x="550" y="356"/>
      <point x="550" y="468" type="curve" smooth="yes"/>
      <point x="550" y="560"/>
      <point x="484" y="632"/>
      <point x="356" y="632" type="curve" smooth="yes"/>
      <point x="283" y="632"/>
      <point x="222" y="612"/>
    </contour>
    <contour>
      <point x="563" y="211" type="curve" smooth="yes"/>
      <point x="563" y="259"/>
      <point x="533" y="302"/>
      <point x="490" y="341" type="curve"/>
      <point x="463" y="372" type="line"/>
      <point x="315" y="341" type="line"/>
      <point x="362" y="309"/>
      <point x="388" y="275"/>
      <point x="388" y="231" type="curve" smooth="yes"/>
      <point x="388" y="206"/>
      <point x="371" y="193"/>
      <point x="343" y="193" type="curve" smooth="yes"/>
      <point x="273" y="193"/>
      <point x="210" y="277"/>
      <point x="161" y="401" type="curve"/>
      <point x="14" y="346" type="line"/>
      <point x="108" y="115"/>
      <point x="223" y="52"/>
      <point x="357" y="52" type="curve" smooth="yes"/>
      <point x="489" y="52"/>
      <point x="563" y="111"/>
    </contour>
    <contour>
      <point x="565" y="817" type="curve" smooth="yes"/>
      <point x="565" y="778"/>
      <point x="591" y="753"/>
      <point x="634" y="753" type="curve" smooth="yes"/>
      <point x="677" y="753"/>
      <point x="703" y="777"/>
      <point x="703" y="817" type="curve" smooth="yes"/>
      <point x="703" y="854"/>
      <point x="675" y="879"/>
      <point x="634" y="879" type="curve" smooth="yes"/>
      <point x="591" y="879"/>
      <point x="565" y="854"/>
    </contour>
    <contour>
      <point x="883" y="841" type="curve"/>
      <point x="760" y="879" type="line"/>
      <point x="742" y="777"/>
      <point x="708" y="730"/>
      <point x="635" y="730" type="curve" smooth="yes"/>
      <point x="570" y="730"/>
      <point x="531" y="767"/>
      <point x="491" y="880" type="curve"/>
      <point x="379" y="839" type="line"/>
      <point x="434" y="688"/>
      <point x="523" y="627"/>
      <point x="634" y="627" type="curve" smooth="yes"/>
      <point x="758" y="627"/>
      <point x="845" y="683"/>
    </contour>
  </outline>
</glyph>
<glyph name="udattadeva" format="2">
  <unicode hex="0951"/>
  <outline>
    <contour>
      <point x="-102" y="668" type="line"/>
      <point x="-102" y="886" type="line"/>
      <point x="-220" y="886" type="line"/>
      <point x="-220" y="668" type="line"/>
    </contour>
  </outline>
</glyph>
<glyph name="anudattadeva" format="2">
  <unicode hex="0952"/>
  <outline>
    <contour>
      <point x="-474" y="-60" type="line"/>
      <point x="-474" y="-165" type="line"/>
      <point x="-67" y="-165" type="line"/>
      <point x="-67" y="-60" type="line"/>
    </contour>
  </outline>
</glyph>
<glyph name="uni0954" format="2">
  <unicode hex="0954"/>
  <outline>
    <contour>
      <point x="20" y="890" type="line"/>
      <point x="-161" y="890" type="line"/>
      <point x="-235" y="683" type="line"/>
      <point x="-98" y="683" type="line"/>
    </contour>
  </outline>
</glyph>
<glyph name="candralongevowelsigndeva" format="2">
  <unicode hex="0955"/>
  <outline>
    <contour>
      <point x="-387" y="736" type="line"/>
      <point x="-387" y="647" type="line"/>
      <point x="19" y="647" type="line"/>
      <point x="19" y="736" type="line"/>
    </contour>
    <contour>
      <point x="24" y="862" type="curve"/>
      <point x="-93" y="896" type="line"/>
      <point x="-105" y="837"/>
      <point x="-134" y="806"/>
      <point x="-180" y="806" type="curve" smooth="yes"/>
      <point x="-224" y="806"/>
      <point x="-258" y="831"/>
      <point x="-283" y="896" type="curve"/>
      <point x="-393" y="859" type="line"/>
      <point x="-344" y="764"/>
      <point x="-286" y="724"/>
      <point x="-180" y="724" type="curve" smooth="yes"/>
      <point x="-67" y="724"/>
      <point x="-14" y="754"/>
    </contour>
  </outline>
</glyph>
<glyph name="uevowelsigndeva" format="2">
  <unicode hex="0956"/>
  <outline>
    <contour>
      <point x="-313" y="-214" type="curve" smooth="yes"/>
      <point x="-214" y="-214"/>
      <point x="-137" y="-180"/>
      <point x="-82" y="-143" type="curve"/>
      <point x="-133" y="-27" type="line"/>
      <point x="-189" y="-61"/>
      <point x="-243" y="-78"/>
      <point x="-313" y="-78" type="curve" smooth="yes"/>
      <point x="-383" y="-78"/>
      <point x="-437" y="-61"/>
      <point x="-493" y="-27" type="curve"/>
      <point x="-544" y="-143" type="line"/>
      <point x="-489" y="-180"/>
      <point x="-412" y="-214"/>
    </contour>
  </outline>
</glyph>
<glyph name="uuevowelsigndeva" format="2">
  <unicode hex="0957"/>
  <outline>
    <contour>
      <point x="-305" y="-146" type="curve" smooth="yes"/>
      <point x="-229" y="-146"/>
      <point x="-160" y="-127"/>
      <point x="-85" y="-91" type="curve"/>
      <point x="-120" y="-5" type="line"/>
      <point x="-175" y="-29"/>
      <point x="-223" y="-47"/>
      <point x="-305" y="-47" type="curve" smooth="yes"/>
      <point x="-386" y="-47"/>
      <point x="-434" y="-29"/>
      <point x="-489" y="-5" type="curve"/>
      <point x="-524" y="-91" type="line"/>
      <point x="-449" y="-127"/>
      <point x="-379" y="-146"/>
    </contour>
    <contour>
      <point x="-305" y="-268" type="curve" smooth="yes"/>
      <point x="-212" y="-268"/>
      <point x="-137" y="-242"/>
      <point x="-85" y="-213" type="curve"/>
      <point x="-116" y="-129" type="line"/>
      <point x="-177" y="-155"/>
      <point x="-231" y="-169"/>
      <point x="-305" y="-169" type="curve" smooth="yes"/>
      <point x="-378" y="-169"/>
      <point x="-432" y="-155"/>
      <point x="-493" y="-129" type="curve"/>
      <point x="-524" y="-213" type="line"/>
      <point x="-472" y="-242"/>
      <point x="-397" y="-268"/>
    </contour>
  </outline>
</glyph>
<glyph name="rrvocalicdeva" format="2">
  <advance width="977"/>
  <unicode hex="0960"/>
  <outline>
    <contour>
      <point x="567" y="484" type="line"/>
      <point x="992" y="484" type="line"/>
      <point x="992" y="622" type="line"/>
      <point x="0" y="622" type="line"/>
      <point x="0" y="484" type="line"/>
      <point x="390" y="484" type="line"/>
      <point x="390" y="0" type="line"/>
      <point x="567" y="0" type="line"/>
    </contour>
    <contour>
      <point x="24" y="387" type="curve"/>
      <point x="79" y="252" type="line"/>
      <point x="136" y="280"/>
      <point x="169" y="292"/>
      <point x="209" y="292" type="curve" smooth="yes"/>
      <point x="247" y="292"/>
      <point x="267" y="280"/>
      <point x="310" y="238" type="curve"/>
      <point x="416" y="267" type="line"/>
      <point x="416" y="302" type="line"/>
      <point x="335" y="404"/>
      <point x="290" y="435"/>
      <point x="205" y="435" type="curve" smooth="yes"/>
      <point x="146" y="435"/>
      <point x="94" y="418"/>
    </contour>
    <contour>
      <point x="137" y="15" type="line"/>
      <point x="476" y="216" type="line"/>
      <point x="359" y="293" type="line"/>
      <point x="52" y="134" type="line"/>
    </contour>
    <contour>
      <point x="536" y="326" type="curve"/>
      <point x="533" y="198" type="line"/>
      <point x="602" y="201"/>
      <point x="662" y="210"/>
      <point x="713" y="226" type="curve"/>
      <point x="725" y="203"/>
      <point x="743" y="171"/>
      <point x="763" y="139" type="curve"/>
      <point x="861" y="137" type="line"/>
      <point x="888" y="183" type="line"/>
      <point x="862" y="217"/>
      <point x="847" y="241"/>
      <point x="830" y="269" type="curve"/>
      <point x="849" y="281"/>
      <point x="862" y="309"/>
      <point x="862" y="340" type="curve" smooth="yes"/>
      <point x="862" y="386"/>
      <point x="833" y="435"/>
      <point x="756" y="435" type="curve" smooth="yes"/>
      <point x="705" y="435"/>
      <point x="657" y="406"/>
      <point x="657" y="349" type="curve" smooth="yes"/>
      <point x="657" y="334"/>
      <point x="661" y="320"/>
      <point x="664" y="311" type="curve"/>
      <point x="686" y="349" type="line"/>
      <point x="647" y="332"/>
      <point x="581" y="328"/>
    </contour>
    <contour>
      <point x="988" y="-8" type="curve"/>
      <point x="943" y="100" type="line"/>
      <point x="900" y="79"/>
      <point x="872" y="72"/>
      <point x="841" y="72" type="curve" smooth="yes"/>
      <point x="811" y="72"/>
      <point x="795" y="82"/>
      <point x="795" y="100" type="curve" smooth="yes"/>
      <point x="795" y="122"/>
      <point x="815" y="135"/>
      <point x="861" y="137" type="curve"/>
      <point x="773" y="235" type="line"/>
      <point x="687" y="214"/>
      <point x="637" y="169"/>
      <point x="637" y="102" type="curve" smooth="yes"/>
      <point x="637" y="14"/>
      <point x="717" y="-41"/>
      <point x="824" y="-41" type="curve" smooth="yes"/>
      <point x="897" y="-41"/>
      <point x="950" y="-22"/>
    </contour>
    <contour>
      <point x="1030" y="-165" type="curve"/>
      <point x="985" y="-56" type="line"/>
      <point x="942" y="-77"/>
      <point x="914" y="-84"/>
      <point x="883" y="-84" type="curve" smooth="yes"/>
      <point x="853" y="-84"/>
      <point x="837" y="-74"/>
      <point x="837" y="-56" type="curve" smooth="yes"/>
      <point x="837" y="-44"/>
      <point x="843" y="-33"/>
      <point x="861" y="-27" type="curve"/>
      <point x="738" y="51" type="line"/>
      <point x="700" y="27"/>
      <point x="679" y="-8"/>
      <point x="679" y="-54" type="curve" smooth="yes"/>
      <point x="679" y="-142"/>
      <point x="759" y="-197"/>
      <point x="866" y="-197" type="curve" smooth="yes"/>
      <point x="939" y="-197"/>
      <point x="992" y="-179"/>
    </contour>
  </outline>
</glyph>
<glyph name="llvocalicdeva" format="2">
  <advance width="798"/>
  <unicode hex="0961"/>
  <outline>
    <contour>
      <point x="869" y="-201" type="curve"/>
      <point x="824" y="-92" type="line"/>
      <point x="781" y="-113"/>
      <point x="753" y="-120"/>
      <point x="722" y="-120" type="curve" smooth="yes"/>
      <point x="692" y="-120"/>
      <point x="676" y="-110"/>
      <point x="676" y="-92" type="curve" smooth="yes"/>
      <point x="676" y="-80"/>
      <point x="682" y="-69"/>
      <point x="700" y="-63" type="curve"/>
      <point x="577" y="15" type="line"/>
      <point x="539" y="-9"/>
      <point x="518" y="-44"/>
      <point x="518" y="-90" type="curve" smooth="yes"/>
      <point x="518" y="-178"/>
      <point x="598" y="-233"/>
      <point x="705" y="-233" type="curve" smooth="yes"/>
      <point x="778" y="-233"/>
      <point x="831" y="-215"/>
    </contour>
    <contour>
      <point x="827" y="-44" type="curve"/>
      <point x="782" y="64" type="line"/>
      <point x="739" y="43"/>
      <point x="711" y="36"/>
      <point x="680" y="36" type="curve" smooth="yes"/>
      <point x="650" y="36"/>
      <point x="634" y="46"/>
      <point x="634" y="64" type="curve" smooth="yes"/>
      <point x="634" y="84"/>
      <point x="650" y="101"/>
      <point x="717" y="101" type="curve"/>
      <point x="697" y="213" type="line"/>
      <point x="559" y="204"/>
      <point x="476" y="158"/>
      <point x="476" y="66" type="curve" smooth="yes"/>
      <point x="476" y="-22"/>
      <point x="556" y="-77"/>
      <point x="663" y="-77" type="curve" smooth="yes"/>
      <point x="736" y="-77"/>
      <point x="789" y="-58"/>
    </contour>
    <contour>
      <point x="759" y="237" type="curve" smooth="yes"/>
      <point x="759" y="348"/>
      <point x="679" y="421"/>
      <point x="552" y="421" type="curve" smooth="yes"/>
      <point x="407" y="421"/>
      <point x="317" y="355"/>
      <point x="282" y="209" type="curve"/>
      <point x="448" y="159" type="line"/>
      <point x="472" y="257"/>
      <point x="510" y="289"/>
      <point x="543" y="289" type="curve" smooth="yes"/>
      <point x="567" y="289"/>
      <point x="582" y="273"/>
      <point x="582" y="242" type="curve" smooth="yes"/>
      <point x="582" y="205"/>
      <point x="574" y="174"/>
      <point x="546" y="133" type="curve"/>
      <point x="717" y="101" type="line"/>
      <point x="742" y="145"/>
      <point x="759" y="193"/>
    </contour>
    <contour>
      <point x="219" y="423" type="curve" smooth="yes"/>
      <point x="139" y="423"/>
      <point x="29" y="383"/>
      <point x="29" y="252" type="curve" smooth="yes"/>
      <point x="29" y="156"/>
      <point x="109" y="70"/>
      <point x="219" y="-18" type="curve"/>
      <point x="328" y="90" type="line"/>
      <point x="232" y="159"/>
      <point x="206" y="201"/>
      <point x="206" y="238" type="curve" smooth="yes"/>
      <point x="206" y="267"/>
      <point x="224" y="284"/>
      <point x="253" y="284" type="curve" smooth="yes"/>
      <point x="294" y="284"/>
      <point x="318" y="261"/>
      <point x="351" y="225" type="curve"/>
      <point x="411" y="355" type="line"/>
      <point x="344" y="403"/>
      <point x="306" y="423"/>
    </contour>
    <contour>
      <point x="477" y="484" type="line"/>
      <point x="477" y="403" type="line"/>
      <point x="651" y="359" type="line"/>
      <point x="651" y="484" type="line"/>
      <point x="813" y="484" type="line"/>
      <point x="813" y="622" type="line"/>
      <point x="0" y="622" type="line"/>
      <point x="0" y="484" type="line"/>
    </contour>
  </outline>
</glyph>
<glyph name="lvocalicvowelsigndeva" format="2">
  <unicode hex="0962"/>
  <outline>
    <contour>
      <point x="-290" y="-123" type="curve"/>
      <point x="-224" y="-36" type="line"/>
      <point x="-275" y="0"/>
      <point x="-315" y="15"/>
      <point x="-377" y="15" type="curve" smooth="yes"/>
      <point x="-461" y="15"/>
      <point x="-537" y="-24"/>
      <point x="-537" y="-118" type="curve" smooth="yes"/>
      <point x="-537" y="-192"/>
      <point x="-490" y="-257"/>
      <point x="-373" y="-350" type="curve"/>
      <point x="-283" y="-256" type="line"/>
      <point x="-373" y="-190"/>
      <point x="-390" y="-164"/>
      <point x="-390" y="-132" type="curve" smooth="yes"/>
      <point x="-390" y="-116"/>
      <point x="-377" y="-98"/>
      <point x="-350" y="-98" type="curve" smooth="yes"/>
      <point x="-325" y="-98"/>
      <point x="-307" y="-107"/>
    </contour>
    <contour>
      <point x="-107" y="15" type="curve" smooth="yes"/>
      <point x="-228" y="15"/>
      <point x="-289" y="-45"/>
      <point x="-322" y="-151" type="curve"/>
      <point x="-200" y="-187" type="line"/>
      <point x="-174" y="-115"/>
      <point x="-147" y="-99"/>
      <point x="-120" y="-99" type="curve" smooth="yes"/>
      <point x="-95" y="-99"/>
      <point x="-85" y="-116"/>
      <point x="-85" y="-136" type="curve" smooth="yes"/>
      <point x="-85" y="-163"/>
      <point x="-98" y="-192"/>
      <point x="-119" y="-219" type="curve"/>
      <point x="-36" y="-143" type="line"/>
      <point x="-116" y="-151"/>
      <point x="-186" y="-188"/>
      <point x="-186" y="-270" type="curve" smooth="yes"/>
      <point x="-186" y="-352"/>
      <point x="-117" y="-394"/>
      <point x="-31" y="-394" type="curve" smooth="yes"/>
      <point x="28" y="-394"/>
      <point x="66" y="-381"/>
      <point x="100" y="-365" type="curve"/>
      <point x="62" y="-271" type="line"/>
      <point x="28" y="-289"/>
      <point x="10" y="-295"/>
      <point x="-22" y="-295" type="curve" smooth="yes"/>
      <point x="-42" y="-295"/>
      <point x="-58" y="-285"/>
      <point x="-58" y="-266" type="curve" smooth="yes"/>
      <point x="-58" y="-244"/>
      <point x="-35" y="-229"/>
      <point x="41" y="-228" type="curve"/>
      <point x="52" y="-202"/>
      <point x="60" y="-171"/>
      <point x="60" y="-128" type="curve" smooth="yes"/>
      <point x="60" y="-50"/>
      <point x="3" y="15"/>
    </contour>
  </outline>
</glyph>
<glyph name="llvocalicvowelsigndeva" format="2">
  <unicode hex="0963"/>
  <outline>
    <contour>
      <point x="15" y="-282" type="curve" smooth="yes"/>
      <point x="69" y="-282"/>
      <point x="109" y="-268"/>
      <point x="138" y="-257" type="curve"/>
      <point x="104" y="-179" type="line"/>
      <point x="72" y="-194"/>
      <point x="51" y="-200"/>
      <point x="27" y="-200" type="curve" smooth="yes"/>
      <point x="1" y="-200"/>
      <point x="-8" y="-192"/>
      <point x="-8" y="-179" type="curve" smooth="yes"/>
      <point x="-8" y="-168"/>
      <point x="2" y="-154"/>
      <point x="59" y="-154" type="curve"/>
      <point x="60" y="-147"/>
      <point x="60" y="-137"/>
      <point x="60" y="-128" type="curve" smooth="yes"/>
      <point x="60" y="-50"/>
      <point x="3" y="15"/>
      <point x="-107" y="15" type="curve" smooth="yes"/>
      <point x="-228" y="15"/>
      <point x="-289" y="-45"/>
      <point x="-322" y="-151" type="curve"/>
      <point x="-200" y="-187" type="line"/>
      <point x="-174" y="-115"/>
      <point x="-147" y="-99"/>
      <point x="-120" y="-99" type="curve" smooth="yes"/>
      <point x="-95" y="-99"/>
      <point x="-85" y="-116"/>
      <point x="-85" y="-136" type="curve"/>
      <point x="-20" y="-81" type="line"/>
      <point x="-88" y="-97"/>
      <point x="-127" y="-125"/>
      <point x="-127" y="-177" type="curve" smooth="yes"/>
      <point x="-127" y="-241"/>
      <point x="-66" y="-282"/>
    </contour>
    <contour>
      <point x="-377" y="15" type="curve" smooth="yes"/>
      <point x="-461" y="15"/>
      <point x="-537" y="-24"/>
      <point x="-537" y="-118" type="curve" smooth="yes"/>
      <point x="-537" y="-192"/>
      <point x="-490" y="-257"/>
      <point x="-373" y="-350" type="curve"/>
      <point x="-283" y="-256" type="line"/>
      <point x="-373" y="-190"/>
      <point x="-390" y="-164"/>
      <point x="-390" y="-132" type="curve" smooth="yes"/>
      <point x="-390" y="-116"/>
      <point x="-377" y="-98"/>
      <point x="-350" y="-98" type="curve" smooth="yes"/>
      <point x="-325" y="-98"/>
      <point x="-307" y="-107"/>
      <point x="-290" y="-123" type="curve"/>
      <point x="-224" y="-36" type="line"/>
      <point x="-275" y="0"/>
      <point x="-315" y="15"/>
    </contour>
    <contour>
      <point x="63" y="-394" type="curve" smooth="yes"/>
      <point x="118" y="-394"/>
      <point x="158" y="-381"/>
      <point x="187" y="-370" type="curve"/>
      <point x="153" y="-292" type="line"/>
      <point x="120" y="-307"/>
      <point x="100" y="-312"/>
      <point x="76" y="-312" type="curve" smooth="yes"/>
      <point x="50" y="-312"/>
      <point x="41" y="-304"/>
      <point x="41" y="-293" type="curve" smooth="yes"/>
      <point x="41" y="-285"/>
      <point x="46" y="-277"/>
      <point x="61" y="-272" type="curve"/>
      <point x="-33" y="-215" type="line"/>
      <point x="-63" y="-233"/>
      <point x="-78" y="-257"/>
      <point x="-78" y="-291" type="curve" smooth="yes"/>
      <point x="-78" y="-354"/>
      <point x="-18" y="-394"/>
    </contour>
  </outline>
</glyph>
<glyph name="zerodeva" format="2">
  <advance width="585"/>
  <unicode hex="0966"/>
  <outline>
    <contour>
      <point x="293" y="92" type="curve" smooth="yes"/>
      <point x="447" y="92"/>
      <point x="545" y="176"/>
      <point x="545" y="319" type="curve" smooth="yes"/>
      <point x="545" y="462"/>
      <point x="440" y="547"/>
      <point x="292" y="547" type="curve" smooth="yes"/>
      <point x="144" y="547"/>
      <point x="40" y="462"/>
      <point x="40" y="321" type="curve" smooth="yes"/>
      <point x="40" y="178"/>
      <point x="145" y="92"/>
    </contour>
    <contour>
      <point x="291" y="232" type="curve" smooth="yes"/>
      <point x="248" y="232"/>
      <point x="220" y="260"/>
      <point x="220" y="318" type="curve" smooth="yes"/>
      <point x="220" y="377"/>
      <point x="250" y="407"/>
      <point x="293" y="407" type="curve" smooth="yes"/>
      <point x="339" y="407"/>
      <point x="365" y="379"/>
      <point x="365" y="322" type="curve" smooth="yes"/>
      <point x="365" y="261"/>
      <point x="336" y="232"/>
    </contour>
  </outline>
</glyph>
<glyph name="onedeva" format="2">
  <advance width="585"/>
  <unicode hex="0967"/>
  <outline>
    <contour>
      <point x="288" y="632" type="curve" smooth="yes"/>
      <point x="164" y="632"/>
      <point x="95" y="573"/>
      <point x="95" y="493" type="curve" smooth="yes"/>
      <point x="95" y="432"/>
      <point x="138" y="385"/>
      <point x="186" y="352" type="curve"/>
      <point x="285" y="434" type="line"/>
      <point x="263" y="447"/>
      <point x="251" y="460"/>
      <point x="251" y="476" type="curve" smooth="yes"/>
      <point x="251" y="491"/>
      <point x="261" y="504"/>
      <point x="284" y="504" type="curve" smooth="yes"/>
      <point x="311" y="504"/>
      <point x="320" y="487"/>
      <point x="320" y="467" type="curve" smooth="yes"/>
      <point x="320" y="412"/>
      <point x="244" y="362"/>
      <point x="102" y="280" type="curve"/>
      <point x="90" y="218" type="line"/>
      <point x="291" y="64" type="line" smooth="yes"/>
      <point x="317" y="44"/>
      <point x="326" y="29"/>
      <point x="326" y="10" type="curve" smooth="yes"/>
      <point x="326" y="-8"/>
      <point x="318" y="-21"/>
      <point x="307" y="-33" type="curve"/>
      <point x="433" y="-121" type="line"/>
      <point x="480" y="-70"/>
      <point x="505" y="-28"/>
      <point x="505" y="22" type="curve" smooth="yes"/>
      <point x="505" y="83"/>
      <point x="482" y="116"/>
      <point x="403" y="174" type="curve" smooth="yes"/>
      <point x="263" y="276" type="line"/>
      <point x="242" y="168" type="line"/>
      <point x="466" y="309"/>
      <point x="498" y="376"/>
      <point x="498" y="466" type="curve" smooth="yes"/>
      <point x="498" y="557"/>
      <point x="430" y="632"/>
    </contour>
  </outline>
</glyph>
<glyph name="twodeva" format="2">
  <advance width="585"/>
  <unicode hex="0968"/>
  <outline>
    <contour>
      <point x="213" y="304" type="curve"/>
      <point x="172" y="240" type="line"/>
      <point x="240" y="181"/>
      <point x="323" y="88"/>
      <point x="400" y="-16" type="curve"/>
      <point x="527" y="69" type="line"/>
      <point x="466" y="144"/>
      <point x="399" y="224"/>
      <point x="323" y="277" type="curve"/>
      <point x="313" y="292" type="line"/>
      <point x="259" y="342"/>
      <point x="220" y="354"/>
      <point x="186" y="354" type="curve" smooth="yes"/>
      <point x="125" y="354"/>
      <point x="87" y="320"/>
      <point x="87" y="267" type="curve" smooth="yes"/>
      <point x="87" y="198"/>
      <point x="145" y="166"/>
      <point x="212" y="166" type="curve" smooth="yes"/>
      <point x="385" y="166"/>
      <point x="501" y="271"/>
      <point x="501" y="420" type="curve" smooth="yes"/>
      <point x="501" y="561"/>
      <point x="403" y="632"/>
      <point x="268" y="632" type="curve" smooth="yes"/>
      <point x="193" y="632"/>
      <point x="130" y="616"/>
      <point x="63" y="589" type="curve"/>
      <point x="113" y="461" type="line"/>
      <point x="148" y="480"/>
      <point x="190" y="494"/>
      <point x="232" y="494" type="curve" smooth="yes"/>
      <point x="284" y="494"/>
      <point x="322" y="472"/>
      <point x="322" y="413" type="curve" smooth="yes"/>
      <point x="322" y="339"/>
      <point x="262" y="304"/>
    </contour>
  </outline>
</glyph>
<glyph name="threedeva" format="2">
  <advance width="585"/>
  <unicode hex="0969"/>
  <outline>
    <contour>
      <point x="210" y="200" type="curve"/>
      <point x="159" y="134" type="line"/>
      <point x="209" y="94"/>
      <point x="310" y="-13"/>
      <point x="375" y="-96" type="curve"/>
      <point x="499" y="-8" type="line"/>
      <point x="439" y="60"/>
      <point x="371" y="127"/>
      <point x="317" y="167" type="curve"/>
      <point x="302" y="188" type="line"/>
      <point x="253" y="233"/>
      <point x="214" y="245"/>
      <point x="180" y="245" type="curve" smooth="yes"/>
      <point x="119" y="245"/>
      <point x="81" y="211"/>
      <point x="81" y="158" type="curve" smooth="yes"/>
      <point x="81" y="92"/>
      <point x="134" y="57"/>
      <point x="204" y="57" type="curve" smooth="yes"/>
      <point x="407" y="57"/>
      <point x="498" y="141"/>
      <point x="498" y="248" type="curve" smooth="yes"/>
      <point x="498" y="326"/>
      <point x="445" y="383"/>
      <point x="353" y="406" type="curve"/>
      <point x="232" y="300" type="line"/>
      <point x="293" y="300"/>
      <point x="319" y="287"/>
      <point x="319" y="254" type="curve" smooth="yes"/>
      <point x="319" y="220"/>
      <point x="292" y="200"/>
    </contour>
    <contour>
      <point x="73" y="589" type="curve"/>
      <point x="118" y="465" type="line"/>
      <point x="150" y="479"/>
      <point x="191" y="494"/>
      <point x="237" y="494" type="curve" smooth="yes"/>
      <point x="266" y="494"/>
      <point x="290" y="488"/>
      <point x="290" y="459" type="curve" smooth="yes"/>
      <point x="290" y="432"/>
      <point x="266" y="412"/>
      <point x="187" y="409" type="curve"/>
      <point x="193" y="278" type="line"/>
      <point x="278" y="282"/>
      <point x="343" y="299"/>
      <point x="389" y="330" type="curve"/>
      <point x="397" y="339" type="line"/>
      <point x="436" y="367"/>
      <point x="467" y="408"/>
      <point x="467" y="477" type="curve" smooth="yes"/>
      <point x="467" y="557"/>
      <point x="405" y="632"/>
      <point x="266" y="632" type="curve" smooth="yes"/>
      <point x="192" y="632"/>
      <point x="125" y="611"/>
    </contour>
  </outline>
</glyph>
<glyph name="fourdeva" format="2">
  <advance width="585"/>
  <unicode hex="096A"/>
  <outline>
    <contour>
      <point x="196" y="338" type="curve"/>
      <point x="242" y="305" type="line"/>
      <point x="312" y="244"/>
      <point x="328" y="210"/>
      <point x="328" y="183" type="curve" smooth="yes"/>
      <point x="328" y="149"/>
      <point x="312" y="136"/>
      <point x="290" y="136" type="curve" smooth="yes"/>
      <point x="265" y="136"/>
      <point x="252" y="153"/>
      <point x="252" y="181" type="curve" smooth="yes"/>
      <point x="252" y="210"/>
      <point x="266" y="241"/>
      <point x="331" y="296" type="curve"/>
      <point x="372" y="331" type="line"/>
      <point x="517" y="438"/>
      <point x="539" y="509"/>
      <point x="539" y="565" type="curve" smooth="yes"/>
      <point x="539" y="594"/>
      <point x="535" y="613"/>
      <point x="526" y="632" type="curve"/>
      <point x="354" y="603" type="line"/>
      <point x="357" y="591"/>
      <point x="358" y="581"/>
      <point x="358" y="569" type="curve" smooth="yes"/>
      <point x="358" y="527"/>
      <point x="342" y="490"/>
      <point x="240" y="401" type="curve"/>
      <point x="199" y="360" type="line"/>
      <point x="95" y="272"/>
      <point x="80" y="217"/>
      <point x="80" y="160" type="curve" smooth="yes"/>
      <point x="80" y="56"/>
      <point x="168" y="-2"/>
      <point x="292" y="-2" type="curve" smooth="yes"/>
      <point x="430" y="-2"/>
      <point x="503" y="61"/>
      <point x="503" y="162" type="curve" smooth="yes"/>
      <point x="503" y="226"/>
      <point x="478" y="274"/>
      <point x="374" y="372" type="curve"/>
      <point x="317" y="421" type="line"/>
      <point x="236" y="489"/>
      <point x="231" y="526"/>
      <point x="231" y="570" type="curve" smooth="yes"/>
      <point x="231" y="581"/>
      <point x="233" y="592"/>
      <point x="236" y="603" type="curve"/>
      <point x="63" y="632" type="line"/>
      <point x="56" y="615"/>
      <point x="51" y="593"/>
      <point x="51" y="572" type="curve" smooth="yes"/>
      <point x="51" y="509"/>
      <point x="56" y="447"/>
    </contour>
  </outline>
</glyph>
<glyph name="fivedeva" format="2">
  <advance width="585"/>
  <unicode hex="096B"/>
  <outline>
    <contour>
      <point x="445" y="-67" type="curve"/>
      <point x="588" y="-4" type="line"/>
      <point x="543" y="63"/>
      <point x="484" y="165"/>
      <point x="456" y="232" type="curve"/>
      <point x="358" y="301" type="line"/>
      <point x="356" y="302"/>
      <point x="345" y="303"/>
      <point x="339" y="303" type="curve" smooth="yes"/>
      <point x="269" y="303"/>
      <point x="237" y="340"/>
      <point x="237" y="410" type="curve" smooth="yes"/>
      <point x="237" y="476"/>
      <point x="262" y="524"/>
      <point x="300" y="580" type="curve"/>
      <point x="118" y="632" type="line"/>
      <point x="79" y="560"/>
      <point x="59" y="474"/>
      <point x="59" y="413" type="curve" smooth="yes"/>
      <point x="59" y="220"/>
      <point x="194" y="166"/>
      <point x="321" y="166" type="curve" smooth="yes"/>
      <point x="433" y="166"/>
      <point x="526" y="200"/>
      <point x="526" y="285" type="curve" smooth="yes"/>
      <point x="526" y="342"/>
      <point x="485" y="394"/>
      <point x="403" y="394" type="curve" smooth="yes"/>
      <point x="340" y="394"/>
      <point x="300" y="359"/>
      <point x="300" y="304" type="curve" smooth="yes"/>
      <point x="300" y="266"/>
      <point x="308" y="226"/>
      <point x="315" y="206" type="curve" smooth="yes"/>
      <point x="346" y="123"/>
      <point x="395" y="20"/>
    </contour>
  </outline>
</glyph>
<glyph name="sixdeva" format="2">
  <advance width="585"/>
  <unicode hex="096C"/>
  <outline>
    <contour>
      <point x="435" y="-127" type="curve"/>
      <point x="574" y="-62" type="line"/>
      <point x="530" y="8"/>
      <point x="490" y="77"/>
      <point x="467" y="121" type="curve"/>
      <point x="380" y="203" type="line"/>
      <point x="376" y="202"/>
      <point x="355" y="201"/>
      <point x="352" y="201" type="curve"/>
      <point x="285" y="201"/>
      <point x="263" y="220"/>
      <point x="263" y="251" type="curve" smooth="yes"/>
      <point x="263" y="288"/>
      <point x="296" y="299"/>
      <point x="336" y="299" type="curve" smooth="yes"/>
      <point x="356" y="299"/>
      <point x="372" y="297"/>
      <point x="385" y="295" type="curve"/>
      <point x="400" y="429" type="line"/>
      <point x="386" y="433"/>
      <point x="350" y="437"/>
      <point x="324" y="437" type="curve" smooth="yes"/>
      <point x="270" y="437"/>
      <point x="222" y="427"/>
      <point x="177" y="401" type="curve"/>
      <point x="165" y="387" type="line"/>
      <point x="108" y="355"/>
      <point x="86" y="312"/>
      <point x="86" y="262" type="curve" smooth="yes"/>
      <point x="86" y="157"/>
      <point x="172" y="61"/>
      <point x="333" y="61" type="curve" smooth="yes"/>
      <point x="468" y="61"/>
      <point x="539" y="105"/>
      <point x="539" y="177" type="curve" smooth="yes"/>
      <point x="539" y="237"/>
      <point x="496" y="279"/>
      <point x="417" y="279" type="curve" smooth="yes"/>
      <point x="366" y="279"/>
      <point x="314" y="253"/>
      <point x="314" y="200" type="curve" smooth="yes"/>
      <point x="314" y="194"/>
      <point x="314" y="191"/>
      <point x="314" y="183" type="curve"/>
      <point x="338" y="79" type="line"/>
      <point x="360" y="26"/>
      <point x="393" y="-52"/>
    </contour>
    <contour>
      <point x="259" y="302" type="curve"/>
      <point x="291" y="420" type="line"/>
      <point x="246" y="429"/>
      <point x="236" y="450"/>
      <point x="236" y="462" type="curve" smooth="yes"/>
      <point x="236" y="483"/>
      <point x="252" y="494"/>
      <point x="296" y="494" type="curve" smooth="yes"/>
      <point x="330" y="494"/>
      <point x="371" y="488"/>
      <point x="397" y="482" type="curve"/>
      <point x="410" y="621" type="line"/>
      <point x="373" y="627"/>
      <point x="318" y="632"/>
      <point x="270" y="632" type="curve" smooth="yes"/>
      <point x="132" y="632"/>
      <point x="59" y="579"/>
      <point x="59" y="487" type="curve" smooth="yes"/>
      <point x="59" y="399"/>
      <point x="121" y="326"/>
    </contour>
  </outline>
</glyph>
<glyph name="sevendeva" format="2">
  <advance width="585"/>
  <unicode hex="096D"/>
  <outline>
    <contour>
      <point x="557" y="269" type="curve" smooth="yes"/>
      <point x="557" y="440"/>
      <point x="466" y="560"/>
      <point x="333" y="560" type="curve" smooth="yes"/>
      <point x="239" y="560"/>
      <point x="178" y="499"/>
      <point x="178" y="421" type="curve" smooth="yes"/>
      <point x="178" y="330"/>
      <point x="252" y="272"/>
      <point x="353" y="253" type="curve"/>
      <point x="374" y="365" type="line"/>
      <point x="331" y="372"/>
      <point x="310" y="385"/>
      <point x="310" y="411" type="curve" smooth="yes"/>
      <point x="310" y="425"/>
      <point x="317" y="433"/>
      <point x="329" y="433" type="curve" smooth="yes"/>
      <point x="364" y="433"/>
      <point x="382" y="375"/>
      <point x="382" y="280" type="curve" smooth="yes"/>
      <point x="382" y="208"/>
      <point x="373" y="166"/>
      <point x="329" y="166" type="curve" smooth="yes"/>
      <point x="243" y="166"/>
      <point x="186" y="325"/>
      <point x="177" y="614" type="curve"/>
      <point x="20" y="596" type="line"/>
      <point x="47" y="149"/>
      <point x="162" y="25"/>
      <point x="346" y="25" type="curve" smooth="yes"/>
      <point x="476" y="25"/>
      <point x="557" y="96"/>
    </contour>
  </outline>
</glyph>
<glyph name="eightdeva" format="2">
  <advance width="585"/>
  <unicode hex="096E"/>
  <outline>
    <contour>
      <point x="298" y="0" type="curve" smooth="yes"/>
      <point x="414" y="0"/>
      <point x="486" y="29"/>
      <point x="560" y="66" type="curve"/>
      <point x="491" y="201" type="line"/>
      <point x="429" y="164"/>
      <point x="371" y="141"/>
      <point x="309" y="141" type="curve" smooth="yes"/>
      <point x="260" y="141"/>
      <point x="242" y="162"/>
      <point x="242" y="192" type="curve" smooth="yes"/>
      <point x="242" y="212"/>
      <point x="251" y="228"/>
      <point x="285" y="269" type="curve" smooth="yes"/>
      <point x="492" y="514" type="line"/>
      <point x="337" y="633" type="line"/>
      <point x="174" y="432" type="line" smooth="yes"/>
      <point x="88" y="327"/>
      <point x="61" y="263"/>
      <point x="61" y="192" type="curve" smooth="yes"/>
      <point x="61" y="59"/>
      <point x="173" y="0"/>
    </contour>
  </outline>
</glyph>
<glyph name="ninedeva" format="2">
  <advance width="585"/>
  <unicode hex="096F"/>
  <outline>
    <contour>
      <point x="48" y="432" type="curve" smooth="yes"/>
      <point x="48" y="338"/>
      <point x="89" y="266"/>
      <point x="217" y="168" type="curve" smooth="yes"/>
      <point x="353" y="64" type="line" smooth="yes"/>
      <point x="379" y="44"/>
      <point x="388" y="29"/>
      <point x="388" y="10" type="curve" smooth="yes"/>
      <point x="388" y="-8"/>
      <point x="380" y="-21"/>
      <point x="369" y="-33" type="curve"/>
      <point x="495" y="-121" type="line"/>
      <point x="542" y="-70"/>
      <point x="567" y="-28"/>
      <point x="567" y="22" type="curve" smooth="yes"/>
      <point x="567" y="83"/>
      <point x="545" y="118"/>
      <point x="466" y="176" type="curve" smooth="yes"/>
      <point x="390" y="231" type="line" smooth="yes"/>
      <point x="359" y="254"/>
      <point x="319" y="278"/>
      <point x="288" y="290" type="curve"/>
      <point x="264" y="260" type="line"/>
      <point x="272" y="259"/>
      <point x="279" y="258"/>
      <point x="287" y="258" type="curve"/>
      <point x="435" y="274"/>
      <point x="481" y="357"/>
      <point x="481" y="443" type="curve" smooth="yes"/>
      <point x="481" y="554"/>
      <point x="397" y="632"/>
      <point x="266" y="632" type="curve" smooth="yes"/>
      <point x="130" y="632"/>
      <point x="48" y="546"/>
    </contour>
    <contour>
      <point x="212" y="443" type="curve" smooth="yes"/>
      <point x="212" y="476"/>
      <point x="232" y="492"/>
      <point x="261" y="492" type="curve" smooth="yes"/>
      <point x="289" y="492"/>
      <point x="308" y="477"/>
      <point x="308" y="445" type="curve" smooth="yes"/>
      <point x="308" y="413"/>
      <point x="286" y="395"/>
      <point x="258" y="395" type="curve" smooth="yes"/>
      <point x="230" y="395"/>
      <point x="212" y="413"/>
    </contour>
  </outline>
</glyph>
<glyph name="abbreviationsigndeva" format="2">
  <advance width="460"/>
  <unicode hex="0970"/>
  <outline>
    <contour>
      <point x="240" y="255" type="curve" smooth="yes"/>
      <point x="342" y="255"/>
      <point x="415" y="319"/>
      <point x="415" y="419" type="curve" smooth="yes"/>
      <point x="415" y="520"/>
      <point x="340" y="582"/>
      <point x="240" y="582" type="curve" smooth="yes"/>
      <point x="135" y="582"/>
      <point x="64" y="516"/>
      <point x="64" y="419" type="curve" smooth="yes"/>
      <point x="64" y="313"/>
      <point x="144" y="255"/>
    </contour>
    <contour>
      <point x="240" y="362" type="curve" smooth="yes"/>
      <point x="208" y="362"/>
      <point x="182" y="382"/>
      <point x="182" y="419" type="curve" smooth="yes"/>
      <point x="182" y="450"/>
      <point x="204" y="475"/>
      <point x="240" y="475" type="curve" smooth="yes"/>
      <point x="274" y="475"/>
      <point x="297" y="452"/>
      <point x="297" y="419" type="curve" smooth="yes"/>
      <point x="297" y="385"/>
      <point x="275" y="362"/>
    </contour>
  </outline>
</glyph>
<glyph name="uni0971" format="2">
  <advance width="343"/>
  <unicode hex="0971"/>
  <outline>
    <contour>
      <point x="98" y="559" type="curve" smooth="yes"/>
      <point x="98" y="512"/>
      <point x="132" y="478"/>
      <point x="181" y="478" type="curve" smooth="yes"/>
      <point x="229" y="478"/>
      <point x="263" y="512"/>
      <point x="263" y="559" type="curve" smooth="yes"/>
      <point x="263" y="605"/>
      <point x="229" y="640"/>
      <point x="181" y="640" type="curve" smooth="yes"/>
      <point x="132" y="640"/>
      <point x="98" y="605"/>
    </contour>
  </outline>
</glyph>
<glyph name="marwariddadeva" format="2">
  <advance width="635"/>
  <unicode hex="0978"/>
  <outline>
    <contour>
      <point x="280" y="484" type="line"/>
      <point x="650" y="484" type="line"/>
      <point x="650" y="622" type="line"/>
      <point x="0" y="622" type="line"/>
      <point x="0" y="484" type="line"/>
      <point x="103" y="484" type="line"/>
      <point x="103" y="355" type="line"/>
      <point x="206" y="248" type="line"/>
      <point x="249" y="267"/>
      <point x="296" y="278"/>
      <point x="338" y="278" type="curve" smooth="yes"/>
      <point x="399" y="278"/>
      <point x="431" y="259"/>
      <point x="431" y="209" type="curve" smooth="yes"/>
      <point x="431" y="169"/>
      <point x="412" y="134"/>
      <point x="381" y="94" type="curve"/>
      <point x="534" y="11" type="line"/>
      <point x="589" y="87"/>
      <point x="608" y="152"/>
      <point x="608" y="215" type="curve" smooth="yes"/>
      <point x="608" y="321"/>
      <point x="547" y="416"/>
      <point x="344" y="416" type="curve" smooth="yes"/>
      <point x="309" y="416"/>
      <point x="266" y="411"/>
      <point x="224" y="402" type="curve"/>
      <point x="186" y="400" type="line"/>
      <point x="65" y="388"/>
      <point x="26" y="366"/>
      <point x="26" y="312" type="curve" smooth="yes"/>
      <point x="26" y="247"/>
      <point x="120" y="147"/>
      <point x="197" y="147" type="curve" smooth="yes"/>
      <point x="252" y="147"/>
      <point x="280" y="179"/>
      <point x="280" y="253" type="curve" smooth="yes"/>
    </contour>
  </outline>
</glyph>
<glyph name="gabardeva" format="2">
  <advance width="652"/>
  <unicode hex="097B"/>
  <outline>
    <contour>
      <point x="280" y="484" type="line"/>
      <point x="405" y="484" type="line"/>
      <point x="405" y="-23" type="line"/>
      <point x="582" y="-23" type="line"/>
      <point x="582" y="484" type="line"/>
      <point x="667" y="484" type="line"/>
      <point x="667" y="622" type="line"/>
      <point x="0" y="622" type="line"/>
      <point x="0" y="484" type="line"/>
      <point x="103" y="484" type="line"/>
      <point x="103" y="388" type="line"/>
      <point x="116" y="391" type="line"/>
      <point x="45" y="391"/>
      <point x="27" y="361"/>
      <point x="27" y="317" type="curve" smooth="yes"/>
      <point x="27" y="245"/>
      <point x="120" y="145"/>
      <point x="197" y="145" type="curve" smooth="yes"/>
      <point x="252" y="145"/>
      <point x="280" y="177"/>
      <point x="280" y="251" type="curve" smooth="yes"/>
    </contour>
    <contour>
      <point x="82" y="82" type="line"/>
      <point x="82" y="-23" type="line"/>
      <point x="437" y="-23" type="line"/>
      <point x="437" y="82" type="line"/>
    </contour>
  </outline>
</glyph>
<glyph name="jabardeva" format="2">
  <advance width="874"/>
  <unicode hex="097C"/>
  <outline>
    <contour>
      <point x="804" y="484" type="line"/>
      <point x="889" y="484" type="line"/>
      <point x="889" y="622" type="line"/>
      <point x="0" y="622" type="line"/>
      <point x="0" y="484" type="line"/>
      <point x="627" y="484" type="line"/>
      <point x="627" y="436" type="line"/>
      <point x="347" y="436" type="line"/>
      <point x="300" y="341" type="line"/>
      <point x="359" y="311"/>
      <point x="384" y="287"/>
      <point x="384" y="256" type="curve" smooth="yes"/>
      <point x="384" y="233"/>
      <point x="369" y="223"/>
      <point x="345" y="223" type="curve" smooth="yes"/>
      <point x="274" y="223"/>
      <point x="222" y="281"/>
      <point x="158" y="430" type="curve"/>
      <point x="14" y="376" type="line"/>
      <point x="110" y="130"/>
      <point x="252" y="86"/>
      <point x="361" y="86" type="curve" smooth="yes"/>
      <point x="470" y="86"/>
      <point x="559" y="129"/>
      <point x="559" y="222" type="curve" smooth="yes"/>
      <point x="559" y="298"/>
      <point x="503" y="336"/>
      <point x="403" y="383" type="curve"/>
      <point x="502" y="308" type="line"/>
      <point x="521" y="304"/>
      <point x="554" y="303"/>
      <point x="590" y="303" type="curve" smooth="yes"/>
      <point x="627" y="303" type="line"/>
      <point x="627" y="-23" type="line"/>
      <point x="804" y="-23" type="line"/>
    </contour>
    <contour>
      <point x="82" y="82" type="line"/>
      <point x="82" y="-23" type="line"/>
      <point x="659" y="-23" type="line"/>
      <point x="659" y="82" type="line"/>
    </contour>
  </outline>
</glyph>
<glyph name="uni097D" format="2">
  <advance width="525"/>
  <unicode hex="097D"/>
  <outline>
    <contour>
      <point x="251" y="632" type="curve" smooth="yes"/>
      <point x="171" y="632"/>
      <point x="107" y="617"/>
      <point x="45" y="591" type="curve"/>
      <point x="95" y="462" type="line"/>
      <point x="135" y="479"/>
      <point x="176" y="492"/>
      <point x="223" y="492" type="curve" smooth="yes"/>
      <point x="279" y="492"/>
      <point x="311" y="468"/>
      <point x="311" y="421" type="curve" smooth="yes"/>
      <point x="311" y="366"/>
      <point x="274" y="335"/>
      <point x="142" y="332" type="curve"/>
      <point x="142" y="0" type="line"/>
      <point x="319" y="0" type="line"/>
      <point x="319" y="214" type="line"/>
      <point x="420" y="241"/>
      <point x="488" y="302"/>
      <point x="488" y="420" type="curve" smooth="yes"/>
      <point x="488" y="546"/>
      <point x="407" y="632"/>
    </contour>
  </outline>
</glyph>
<glyph name="ddabardeva" format="2">
  <advance width="672"/>
  <unicode hex="097E"/>
  <outline>
    <contour>
      <point x="405" y="232" type="curve" smooth="yes"/>
      <point x="458" y="232"/>
      <point x="469" y="226"/>
      <point x="469" y="213" type="curve" smooth="yes"/>
      <point x="469" y="198"/>
      <point x="452" y="189"/>
      <point x="385" y="189" type="curve" smooth="yes"/>
      <point x="273" y="189"/>
      <point x="191" y="239"/>
      <point x="120" y="305" type="curve"/>
      <point x="11" y="223" type="line"/>
      <point x="121" y="131"/>
      <point x="234" y="83"/>
      <point x="391" y="83" type="curve" smooth="yes"/>
      <point x="581" y="83"/>
      <point x="643" y="140"/>
      <point x="643" y="210" type="curve" smooth="yes"/>
      <point x="643" y="279"/>
      <point x="583" y="331"/>
      <point x="453" y="331" type="curve" smooth="yes"/>
      <point x="405" y="331"/>
      <point x="383" y="328"/>
      <point x="355" y="323" type="curve"/>
      <point x="347" y="331"/>
      <point x="342" y="337"/>
      <point x="342" y="345" type="curve" smooth="yes"/>
      <point x="342" y="356"/>
      <point x="352" y="359"/>
      <point x="366" y="359" type="curve" smooth="yes"/>
      <point x="590" y="359" type="line"/>
      <point x="590" y="484" type="line"/>
      <point x="687" y="484" type="line"/>
      <point x="687" y="622" type="line"/>
      <point x="0" y="622" type="line"/>
      <point x="0" y="484" type="line"/>
      <point x="416" y="484" type="line"/>
      <point x="416" y="451" type="line"/>
      <point x="367" y="451" type="line" smooth="yes"/>
      <point x="270" y="451"/>
      <point x="237" y="444"/>
      <point x="206" y="422" type="curve" smooth="yes"/>
      <point x="179" y="403"/>
      <point x="169" y="380"/>
      <point x="169" y="352" type="curve" smooth="yes"/>
      <point x="169" y="296"/>
      <point x="231" y="245"/>
      <point x="297" y="220" type="curve"/>
      <point x="330" y="228"/>
      <point x="375" y="232"/>
    </contour>
    <contour>
      <point x="79" y="82" type="line"/>
      <point x="79" y="-23" type="line"/>
      <point x="635" y="-23" type="line"/>
      <point x="635" y="82" type="line"/>
    </contour>
  </outline>
</glyph>
<glyph name="babardeva" format="2">
  <advance width="649"/>
  <unicode hex="097F"/>
  <outline>
    <contour>
      <point x="664" y="484" type="line"/>
      <point x="664" y="622" type="line"/>
      <point x="0" y="622" type="line"/>
      <point x="0" y="484" type="line"/>
      <point x="402" y="484" type="line"/>
      <point x="402" y="219" type="line"/>
      <point x="429" y="323" type="line"/>
      <point x="403" y="282"/>
      <point x="347" y="228"/>
      <point x="257" y="228" type="curve" smooth="yes"/>
      <point x="218" y="228"/>
      <point x="191" y="237"/>
      <point x="191" y="282" type="curve" smooth="yes"/>
      <point x="191" y="318"/>
      <point x="221" y="337"/>
      <point x="282" y="337" type="curve" smooth="yes"/>
      <point x="316" y="337"/>
      <point x="341" y="332"/>
      <point x="360" y="329" type="curve"/>
      <point x="376" y="450" type="line"/>
      <point x="341" y="455"/>
      <point x="310" y="459"/>
      <point x="266" y="459" type="curve" smooth="yes"/>
      <point x="112" y="459"/>
      <point x="28" y="391"/>
      <point x="28" y="284" type="curve" smooth="yes"/>
      <point x="28" y="163"/>
      <point x="117" y="105"/>
      <point x="241" y="105" type="curve" smooth="yes"/>
      <point x="334" y="105"/>
      <point x="388" y="126"/>
      <point x="453" y="172" type="curve"/>
      <point x="402" y="202" type="line"/>
      <point x="402" y="-23" type="line"/>
      <point x="579" y="-23" type="line"/>
      <point x="579" y="484" type="line"/>
    </contour>
    <contour>
      <point x="236" y="423" type="line"/>
      <point x="149" y="396" type="line"/>
      <point x="337" y="161" type="line"/>
      <point x="408" y="208" type="line"/>
    </contour>
    <contour>
      <point x="82" y="82" type="line"/>
      <point x="82" y="-23" type="line"/>
      <point x="437" y="-23" type="line"/>
      <point x="437" y="82" type="line"/>
    </contour>
  </outline>
</glyph>
<glyph name="uni1CD0" format="2">
  <unicode hex="1CD0"/>
  <outline>
    <contour>
      <point x="-423" y="995" type="line"/>
      <point x="-294" y="946" type="line"/>
      <point x="-209" y="1109" type="line"/>
      <point x="-110" y="946" type="line"/>
      <point x="2" y="994" type="line"/>
      <point x="-145" y="1222" type="line"/>
      <point x="-288" y="1222" type="line"/>
    </contour>
  </outline>
</glyph>
<glyph name="uni1CD1" format="2">
  <unicode hex="1CD1"/>
  <outline>
    <contour>
      <point x="-422" y="1030" type="line"/>
      <point x="-300" y="982" type="line"/>
      <point x="-209" y="1152" type="line"/>
      <point x="-107" y="982" type="line"/>
      <point x="-1" y="1030" type="line"/>
      <point x="-143" y="1239" type="line"/>
      <point x="-290" y="1239" type="line"/>
    </contour>
    <contour>
      <point x="-266" y="1053" type="line"/>
      <point x="-266" y="901" type="line"/>
      <point x="-145" y="901" type="line"/>
      <point x="-145" y="1053" type="line"/>
    </contour>
  </outline>
</glyph>
<glyph name="uni1CD2" format="2">
  <unicode hex="1CD2"/>
  <outline>
    <contour>
      <point x="-415" y="1077" type="line"/>
      <point x="-415" y="972" type="line"/>
      <point x="-7" y="972" type="line"/>
      <point x="-7" y="1077" type="line"/>
    </contour>
  </outline>
</glyph>
<glyph name="uni1CD3" format="2">
  <advance width="340"/>
  <unicode hex="1CD3"/>
  <outline>
    <contour>
      <point x="215" y="896" type="line"/>
      <point x="184" y="659" type="line"/>
      <point x="284" y="659" type="line"/>
      <point x="312" y="896" type="line"/>
    </contour>
    <contour>
      <point x="74" y="896" type="line"/>
      <point x="45" y="659" type="line"/>
      <point x="144" y="659" type="line"/>
      <point x="173" y="896" type="line"/>
    </contour>
  </outline>
</glyph>
<glyph name="uni1CD4" format="2">
  <unicode hex="1CD4"/>
  <outline>
    <contour>
      <point x="-329" y="334" type="line"/>
      <point x="-329" y="229" type="line"/>
      <point x="7" y="229" type="line"/>
      <point x="7" y="334" type="line"/>
    </contour>
  </outline>
</glyph>
<glyph name="uni1CD5" format="2">
  <unicode hex="1CD5"/>
  <outline>
    <contour>
      <point x="-219" y="-62" type="curve"/>
      <point x="-317" y="-62" type="line"/>
      <point x="-319" y="-115"/>
      <point x="-332" y="-138"/>
      <point x="-362" y="-138" type="curve" smooth="yes"/>
      <point x="-388" y="-138"/>
      <point x="-404" y="-129"/>
      <point x="-408" y="-60" type="curve"/>
      <point x="-523" y="-62" type="line"/>
      <point x="-516" y="-205"/>
      <point x="-459" y="-253"/>
      <point x="-377" y="-253" type="curve" smooth="yes"/>
      <point x="-272" y="-253"/>
      <point x="-247" y="-191"/>
    </contour>
    <contour>
      <point x="-217" y="-62" type="curve"/>
      <point x="-316" y="-62" type="line"/>
      <point x="-289" y="-191"/>
      <point x="-266" y="-253"/>
      <point x="-158" y="-253" type="curve" smooth="yes"/>
      <point x="-76" y="-253"/>
      <point x="-18" y="-205"/>
      <point x="-13" y="-62" type="curve"/>
      <point x="-126" y="-60" type="line"/>
      <point x="-132" y="-129"/>
      <point x="-147" y="-138"/>
      <point x="-172" y="-138" type="curve" smooth="yes"/>
      <point x="-203" y="-138"/>
      <point x="-215" y="-115"/>
    </contour>
  </outline>
</glyph>
<glyph name="uni1CD6" format="2">
  <unicode hex="1CD6"/>
  <outline>
    <contour>
      <point x="-492" y="-57" type="line"/>
      <point x="-492" y="-254" type="line"/>
      <point x="-67" y="-254" type="line"/>
      <point x="-67" y="-149" type="line"/>
      <point x="-372" y="-149" type="line"/>
      <point x="-372" y="-57" type="line"/>
    </contour>
  </outline>
</glyph>
<glyph name="uni1CD7" format="2">
  <unicode hex="1CD7"/>
  <outline>
    <contour>
      <point x="-495" y="-138" type="curve" smooth="yes"/>
      <point x="-495" y="-178"/>
      <point x="-480" y="-211"/>
      <point x="-451" y="-234" type="curve" smooth="yes"/>
      <point x="-425" y="-255"/>
      <point x="-396" y="-268"/>
      <point x="-316" y="-268" type="curve" smooth="yes"/>
      <point x="-67" y="-268" type="line"/>
      <point x="-67" y="-163" type="line"/>
      <point x="-338" y="-163" type="line" smooth="yes"/>
      <point x="-351" y="-163"/>
      <point x="-361" y="-161"/>
      <point x="-367" y="-156" type="curve" smooth="yes"/>
      <point x="-372" y="-152"/>
      <point x="-374" y="-146"/>
      <point x="-374" y="-139" type="curve" smooth="yes"/>
      <point x="-374" y="-121"/>
      <point x="-358" y="-117"/>
      <point x="-333" y="-117" type="curve" smooth="yes"/>
      <point x="-311" y="-117" type="line"/>
      <point x="-316" y="-12" type="line"/>
      <point x="-416" y="-12"/>
      <point x="-495" y="-55"/>
    </contour>
  </outline>
</glyph>
<glyph name="uni1CD9" format="2">
  <unicode hex="1CD9"/>
  <outline>
    <contour>
      <point x="-156" y="-140" type="line"/>
      <point x="11" y="-260" type="line"/>
      <point x="96" y="-145" type="line"/>
      <point x="-111" y="-21" type="line"/>
      <point x="-223" y="-21" type="line"/>
      <point x="-372" y="-173" type="line"/>
      <point x="-251" y="-259" type="line"/>
    </contour>
  </outline>
</glyph>
<glyph name="uni1CDA" format="2">
  <unicode hex="1CDA"/>
  <outline>
    <contour>
      <point x="-140" y="886" type="line"/>
      <point x="-140" y="668" type="line"/>
      <point x="-37" y="668" type="line"/>
      <point x="-37" y="886" type="line"/>
    </contour>
    <contour>
      <point x="-280" y="886" type="line"/>
      <point x="-280" y="668" type="line"/>
      <point x="-180" y="668" type="line"/>
      <point x="-180" y="886" type="line"/>
    </contour>
  </outline>
</glyph>
<glyph name="uni1CDB" format="2">
  <unicode hex="1CDB"/>
  <outline>
    <contour>
      <point x="-340" y="886" type="line"/>
      <point x="-340" y="668" type="line"/>
      <point x="-247" y="668" type="line"/>
      <point x="-247" y="886" type="line"/>
    </contour>
    <contour>
      <point x="-205" y="886" type="line"/>
      <point x="-205" y="668" type="line"/>
      <point x="-112" y="668" type="line"/>
      <point x="-112" y="886" type="line"/>
    </contour>
    <contour>
      <point x="-70" y="886" type="line"/>
      <point x="-70" y="668" type="line"/>
      <point x="23" y="668" type="line"/>
      <point x="23" y="886" type="line"/>
    </contour>
  </outline>
</glyph>
<glyph name="uni1CDD" format="2">
  <unicode hex="1CDD"/>
  <outline>
    <contour>
      <point x="-44" y="-145" type="line"/>
      <point x="-161" y="-28" type="line"/>
      <point x="-278" y="-145" type="line"/>
      <point x="-161" y="-262" type="line"/>
    </contour>
  </outline>
</glyph>
<glyph name="uni1CDF" format="2">
  <unicode hex="1CDF"/>
  <outline>
    <contour>
      <point x="-231" y="-122" type="curve" smooth="yes"/>
      <point x="-231" y="-164"/>
      <point x="-200" y="-196"/>
      <point x="-154" y="-196" type="curve" smooth="yes"/>
      <point x="-109" y="-196"/>
      <point x="-79" y="-164"/>
      <point x="-79" y="-122" type="curve" smooth="yes"/>
      <point x="-79" y="-78"/>
      <point x="-109" y="-46"/>
      <point x="-154" y="-46" type="curve" smooth="yes"/>
      <point x="-200" y="-46"/>
      <point x="-231" y="-78"/>
    </contour>
    <contour>
      <point x="-410" y="-122" type="curve" smooth="yes"/>
      <point x="-410" y="-164"/>
      <point x="-378" y="-196"/>
      <point x="-334" y="-196" type="curve" smooth="yes"/>
      <point x="-290" y="-196"/>
      <point x="-258" y="-164"/>
      <point x="-258" y="-122" type="curve" smooth="yes"/>
      <point x="-258" y="-78"/>
      <point x="-290" y="-46"/>
      <point x="-334" y="-46" type="curve" smooth="yes"/>
      <point x="-378" y="-46"/>
      <point x="-410" y="-78"/>
    </contour>
    <contour>
      <point x="-589" y="-122" type="curve" smooth="yes"/>
      <point x="-589" y="-164"/>
      <point x="-557" y="-196"/>
      <point x="-512" y="-196" type="curve" smooth="yes"/>
      <point x="-468" y="-196"/>
      <point x="-437" y="-164"/>
      <point x="-437" y="-122" type="curve" smooth="yes"/>
      <point x="-437" y="-78"/>
      <point x="-468" y="-46"/>
      <point x="-512" y="-46" type="curve" smooth="yes"/>
      <point x="-557" y="-46"/>
      <point x="-589" y="-78"/>
    </contour>
  </outline>
</glyph>
<glyph name="uni1CE0" format="2">
  <unicode hex="1CE0"/>
  <outline>
    <contour>
      <point x="35" y="657" type="curve" smooth="yes"/>
      <point x="35" y="552"/>
      <point x="116" y="496"/>
      <point x="229" y="496" type="curve" smooth="yes"/>
      <point x="234" y="496" type="line"/>
      <point x="242" y="622" type="line"/>
      <point x="215" y="622" type="line" smooth="yes"/>
      <point x="190" y="622"/>
      <point x="175" y="628"/>
      <point x="175" y="647" type="curve" smooth="yes"/>
      <point x="175" y="654"/>
      <point x="177" y="660"/>
      <point x="181" y="664" type="curve" smooth="yes"/>
      <point x="186" y="669"/>
      <point x="195" y="671"/>
      <point x="208" y="671" type="curve" smooth="yes"/>
      <point x="448" y="671" type="line"/>
      <point x="448" y="809" type="line"/>
      <point x="250" y="809" type="line" smooth="yes"/>
      <point x="154" y="809"/>
      <point x="114" y="791"/>
      <point x="85" y="768" type="curve" smooth="yes"/>
      <point x="48" y="737"/>
      <point x="35" y="700"/>
    </contour>
  </outline>
</glyph>
<glyph name="uni1CE1" format="2">
  <advance width="480"/>
  <unicode hex="1CE1"/>
  <outline>
    <contour>
      <point x="406" y="704" type="curve"/>
      <point x="529" y="799" type="line"/>
      <point x="470" y="859"/>
      <point x="420" y="880"/>
      <point x="337" y="880" type="curve" smooth="yes"/>
      <point x="230" y="880"/>
      <point x="130" y="817"/>
      <point x="130" y="654" type="curve" smooth="yes"/>
      <point x="130" y="518"/>
      <point x="175" y="310"/>
      <point x="175" y="77" type="curve" smooth="yes"/>
      <point x="175" y="-17"/>
      <point x="143" y="-71"/>
      <point x="21" y="-71" type="curve" smooth="yes"/>
      <point x="-2" y="-71"/>
      <point x="-21" y="-70"/>
      <point x="-36" y="-68" type="curve"/>
      <point x="-38" y="-206" type="line"/>
      <point x="-21" y="-208"/>
      <point x="12" y="-209"/>
      <point x="37" y="-209" type="curve" smooth="yes"/>
      <point x="296" y="-209"/>
      <point x="353" y="-99"/>
      <point x="353" y="85" type="curve" smooth="yes"/>
      <point x="353" y="313"/>
      <point x="310" y="543"/>
      <point x="310" y="674" type="curve" smooth="yes"/>
      <point x="310" y="720"/>
      <point x="324" y="741"/>
      <point x="350" y="741" type="curve" smooth="yes"/>
      <point x="371" y="741"/>
      <point x="387" y="728"/>
    </contour>
  </outline>
</glyph>
<glyph name="uni1CE2" format="2">
  <unicode hex="1CE2"/>
  <outline>
    <contour>
      <point x="-305" y="330" type="line"/>
      <point x="-305" y="226" type="line"/>
      <point x="5" y="226" type="line"/>
      <point x="5" y="330" type="line"/>
    </contour>
  </outline>
</glyph>
<glyph name="uni1CE3" format="2">
  <unicode hex="1CE3"/>
  <outline>
    <contour>
      <point x="74" y="596" type="curve"/>
      <point x="-17" y="484" type="line"/>
      <point x="2" y="470"/>
      <point x="23" y="454"/>
      <point x="43" y="438" type="curve" smooth="yes"/>
      <point x="91" y="397"/>
      <point x="98" y="380"/>
      <point x="98" y="361" type="curve" smooth="yes"/>
      <point x="98" y="350"/>
      <point x="94" y="345"/>
      <point x="91" y="342" type="curve" smooth="yes"/>
      <point x="83" y="334"/>
      <point x="74" y="332"/>
      <point x="50" y="332" type="curve" smooth="yes"/>
      <point x="-104" y="332" type="line"/>
      <point x="-104" y="224" type="line"/>
      <point x="32" y="224" type="line" smooth="yes"/>
      <point x="136" y="224"/>
      <point x="175" y="236"/>
      <point x="210" y="264" type="curve" smooth="yes"/>
      <point x="238" y="286"/>
      <point x="253" y="317"/>
      <point x="253" y="361" type="curve" smooth="yes"/>
      <point x="253" y="427"/>
      <point x="216" y="478"/>
      <point x="146" y="539" type="curve" smooth="yes"/>
      <point x="112" y="568"/>
      <point x="90" y="585"/>
    </contour>
  </outline>
</glyph>
<glyph name="uni1CE4" format="2">
  <unicode hex="1CE4"/>
  <outline>
    <contour>
      <point x="297" y="484" type="curve"/>
      <point x="206" y="596" type="line"/>
      <point x="190" y="585"/>
      <point x="168" y="568"/>
      <point x="134" y="539" type="curve" smooth="yes"/>
      <point x="64" y="478"/>
      <point x="27" y="427"/>
      <point x="27" y="361" type="curve" smooth="yes"/>
      <point x="27" y="317"/>
      <point x="42" y="286"/>
      <point x="70" y="264" type="curve" smooth="yes"/>
      <point x="105" y="236"/>
      <point x="144" y="224"/>
      <point x="248" y="224" type="curve" smooth="yes"/>
      <point x="384" y="224" type="line"/>
      <point x="384" y="332" type="line"/>
      <point x="230" y="332" type="line" smooth="yes"/>
      <point x="206" y="332"/>
      <point x="197" y="334"/>
      <point x="189" y="342" type="curve" smooth="yes"/>
      <point x="186" y="345"/>
      <point x="182" y="350"/>
      <point x="182" y="361" type="curve" smooth="yes"/>
      <point x="182" y="380"/>
      <point x="189" y="397"/>
      <point x="237" y="438" type="curve" smooth="yes"/>
      <point x="257" y="454"/>
      <point x="278" y="470"/>
    </contour>
  </outline>
</glyph>
<glyph name="uni1CE5" format="2">
  <unicode hex="1CE5"/>
  <outline>
    <contour>
      <point x="206" y="-40" type="curve"/>
      <point x="297" y="72" type="line"/>
      <point x="278" y="86"/>
      <point x="257" y="102"/>
      <point x="237" y="118" type="curve" smooth="yes"/>
      <point x="189" y="159"/>
      <point x="182" y="176"/>
      <point x="182" y="195" type="curve" smooth="yes"/>
      <point x="182" y="206"/>
      <point x="186" y="211"/>
      <point x="189" y="214" type="curve" smooth="yes"/>
      <point x="197" y="222"/>
      <point x="206" y="224"/>
      <point x="230" y="224" type="curve" smooth="yes"/>
      <point x="384" y="224" type="line"/>
      <point x="384" y="332" type="line"/>
      <point x="248" y="332" type="line" smooth="yes"/>
      <point x="144" y="332"/>
      <point x="105" y="320"/>
      <point x="70" y="292" type="curve" smooth="yes"/>
      <point x="42" y="270"/>
      <point x="27" y="239"/>
      <point x="27" y="195" type="curve" smooth="yes"/>
      <point x="27" y="129"/>
      <point x="64" y="78"/>
      <point x="134" y="17" type="curve" smooth="yes"/>
      <point x="168" y="-12"/>
      <point x="190" y="-29"/>
    </contour>
  </outline>
</glyph>
<glyph name="uni1CE6" format="2">
  <unicode hex="1CE6"/>
  <outline>
    <contour>
      <point x="-17" y="72" type="curve"/>
      <point x="74" y="-40" type="line"/>
      <point x="90" y="-29"/>
      <point x="112" y="-12"/>
      <point x="146" y="17" type="curve" smooth="yes"/>
      <point x="216" y="78"/>
      <point x="253" y="129"/>
      <point x="253" y="195" type="curve" smooth="yes"/>
      <point x="253" y="239"/>
      <point x="238" y="270"/>
      <point x="210" y="292" type="curve" smooth="yes"/>
      <point x="175" y="320"/>
      <point x="136" y="332"/>
      <point x="32" y="332" type="curve" smooth="yes"/>
      <point x="-104" y="332" type="line"/>
      <point x="-104" y="224" type="line"/>
      <point x="50" y="224" type="line" smooth="yes"/>
      <point x="74" y="224"/>
      <point x="83" y="222"/>
      <point x="91" y="214" type="curve" smooth="yes"/>
      <point x="94" y="211"/>
      <point x="98" y="206"/>
      <point x="98" y="195" type="curve" smooth="yes"/>
      <point x="98" y="176"/>
      <point x="91" y="159"/>
      <point x="43" y="118" type="curve" smooth="yes"/>
      <point x="23" y="102"/>
      <point x="2" y="86"/>
    </contour>
  </outline>
</glyph>
<glyph name="uni1CE7" format="2">
  <unicode hex="1CE7"/>
  <outline>
    <contour>
      <point x="-106" y="332" type="line"/>
      <point x="-106" y="224" type="line"/>
      <point x="30" y="224" type="line" smooth="yes"/>
      <point x="134" y="224"/>
      <point x="173" y="237"/>
      <point x="208" y="264" type="curve" smooth="yes"/>
      <point x="236" y="286"/>
      <point x="251" y="317"/>
      <point x="251" y="358" type="curve" smooth="yes"/>
      <point x="251" y="423"/>
      <point x="219" y="465"/>
      <point x="144" y="528" type="curve" smooth="yes"/>
      <point x="81" y="581"/>
      <point x="67" y="598"/>
      <point x="67" y="625" type="curve" smooth="yes"/>
      <point x="67" y="647"/>
      <point x="85" y="657"/>
      <point x="106" y="657" type="curve" smooth="yes"/>
      <point x="143" y="657"/>
      <point x="176" y="625"/>
      <point x="221" y="561" type="curve"/>
      <point x="345" y="629" type="line"/>
      <point x="278" y="725"/>
      <point x="210" y="782"/>
      <point x="93" y="782" type="curve" smooth="yes"/>
      <point x="-12" y="782"/>
      <point x="-89" y="720"/>
      <point x="-89" y="626" type="curve" smooth="yes"/>
      <point x="-89" y="550"/>
      <point x="-52" y="498"/>
      <point x="13" y="447" type="curve" smooth="yes"/>
      <point x="93" y="384"/>
      <point x="96" y="373"/>
      <point x="96" y="358" type="curve" smooth="yes"/>
      <point x="96" y="350"/>
      <point x="93" y="345"/>
      <point x="90" y="342" type="curve" smooth="yes"/>
      <point x="82" y="334"/>
      <point x="73" y="332"/>
      <point x="51" y="332" type="curve"/>
    </contour>
  </outline>
</glyph>
<glyph name="uni1CE8" format="2">
  <unicode hex="1CE8"/>
  <outline>
    <contour>
      <point x="415" y="224" type="line"/>
      <point x="415" y="332" type="line"/>
      <point x="279" y="332" type="line" smooth="yes"/>
      <point x="175" y="332"/>
      <point x="136" y="319"/>
      <point x="101" y="292" type="curve" smooth="yes"/>
      <point x="73" y="270"/>
      <point x="58" y="239"/>
      <point x="58" y="198" type="curve" smooth="yes"/>
      <point x="58" y="133"/>
      <point x="90" y="91"/>
      <point x="165" y="28" type="curve" smooth="yes"/>
      <point x="228" y="-25"/>
      <point x="242" y="-42"/>
      <point x="242" y="-69" type="curve" smooth="yes"/>
      <point x="242" y="-91"/>
      <point x="224" y="-101"/>
      <point x="203" y="-101" type="curve" smooth="yes"/>
      <point x="166" y="-101"/>
      <point x="133" y="-69"/>
      <point x="88" y="-5" type="curve"/>
      <point x="-36" y="-73" type="line"/>
      <point x="31" y="-169"/>
      <point x="99" y="-226"/>
      <point x="216" y="-226" type="curve" smooth="yes"/>
      <point x="321" y="-226"/>
      <point x="398" y="-164"/>
      <point x="398" y="-70" type="curve" smooth="yes"/>
      <point x="398" y="6"/>
      <point x="361" y="58"/>
      <point x="296" y="109" type="curve" smooth="yes"/>
      <point x="216" y="172"/>
      <point x="213" y="183"/>
      <point x="213" y="198" type="curve" smooth="yes"/>
      <point x="213" y="206"/>
      <point x="216" y="211"/>
      <point x="219" y="214" type="curve" smooth="yes"/>
      <point x="227" y="222"/>
      <point x="236" y="224"/>
      <point x="258" y="224" type="curve" smooth="yes"/>
    </contour>
  </outline>
</glyph>
<glyph name="uni1CE9" format="2">
  <advance width="947"/>
  <unicode hex="1CE9"/>
  <outline>
    <contour>
      <point x="472" y="0" type="curve" smooth="yes"/>
      <point x="786" y="0"/>
      <point x="910" y="148"/>
      <point x="910" y="350" type="curve" smooth="yes"/>
      <point x="910" y="534"/>
      <point x="798" y="632"/>
      <point x="661" y="632" type="curve" smooth="yes"/>
      <point x="523" y="632"/>
      <point x="484" y="552"/>
      <point x="484" y="488" type="curve" smooth="yes"/>
      <point x="484" y="356"/>
      <point x="590" y="326"/>
      <point x="666" y="326" type="curve" smooth="yes"/>
      <point x="684" y="326"/>
      <point x="701" y="328"/>
      <point x="717" y="330" type="curve"/>
      <point x="708" y="448" type="line"/>
      <point x="701" y="447"/>
      <point x="693" y="446"/>
      <point x="683" y="446" type="curve" smooth="yes"/>
      <point x="647" y="446"/>
      <point x="631" y="458"/>
      <point x="631" y="486" type="curve" smooth="yes"/>
      <point x="631" y="506"/>
      <point x="644" y="518"/>
      <point x="662" y="518" type="curve" smooth="yes"/>
      <point x="713" y="518"/>
      <point x="733" y="449"/>
      <point x="733" y="373" type="curve" smooth="yes"/>
      <point x="733" y="359" type="line" smooth="yes"/>
      <point x="733" y="252"/>
      <point x="668" y="140"/>
      <point x="468" y="140" type="curve" smooth="yes"/>
      <point x="286" y="140"/>
      <point x="223" y="258"/>
      <point x="223" y="352" type="curve" smooth="yes"/>
      <point x="223" y="363" type="line" smooth="yes"/>
      <point x="223" y="451"/>
      <point x="245" y="518"/>
      <point x="293" y="518" type="curve" smooth="yes"/>
      <point x="314" y="518"/>
      <point x="324" y="503"/>
      <point x="324" y="487" type="curve" smooth="yes"/>
      <point x="324" y="464"/>
      <point x="312" y="446"/>
      <point x="276" y="446" type="curve" smooth="yes"/>
      <point x="267" y="446"/>
      <point x="260" y="446"/>
      <point x="251" y="448" type="curve"/>
      <point x="238" y="330" type="line"/>
      <point x="258" y="327"/>
      <point x="275" y="326"/>
      <point x="290" y="326" type="curve" smooth="yes"/>
      <point x="403" y="326"/>
      <point x="471" y="378"/>
      <point x="471" y="482" type="curve" smooth="yes"/>
      <point x="471" y="561"/>
      <point x="423" y="632"/>
      <point x="296" y="632" type="curve" smooth="yes"/>
      <point x="139" y="632"/>
      <point x="46" y="521"/>
      <point x="46" y="362" type="curve" smooth="yes"/>
      <point x="46" y="147"/>
      <point x="195" y="0"/>
    </contour>
  </outline>
</glyph>
<glyph name="uni1CEA" format="2">
  <advance width="872"/>
  <unicode hex="1CEA"/>
  <outline>
    <contour>
      <point x="442" y="0" type="curve" smooth="yes"/>
      <point x="675" y="0"/>
      <point x="757" y="83"/>
      <point x="757" y="198" type="curve" smooth="yes"/>
      <point x="757" y="265"/>
      <point x="735" y="308"/>
      <point x="677" y="378" type="curve" smooth="yes"/>
      <point x="634" y="429"/>
      <point x="618" y="449"/>
      <point x="618" y="477" type="curve" smooth="yes"/>
      <point x="618" y="498"/>
      <point x="633" y="520"/>
      <point x="664" y="520" type="curve" smooth="yes"/>
      <point x="679" y="520"/>
      <point x="696" y="513"/>
      <point x="696" y="494" type="curve" smooth="yes"/>
      <point x="696" y="475"/>
      <point x="679" y="465"/>
      <point x="652" y="454" type="curve"/>
      <point x="728" y="351" type="line"/>
      <point x="786" y="378"/>
      <point x="842" y="412"/>
      <point x="842" y="497" type="curve" smooth="yes"/>
      <point x="842" y="583"/>
      <point x="774" y="632"/>
      <point x="652" y="632" type="curve" smooth="yes"/>
      <point x="496" y="632"/>
      <point x="450" y="542"/>
      <point x="450" y="474" type="curve" smooth="yes"/>
      <point x="450" y="422"/>
      <point x="466" y="383"/>
      <point x="515" y="327" type="curve" smooth="yes"/>
      <point x="567" y="267"/>
      <point x="576" y="243"/>
      <point x="576" y="209" type="curve" smooth="yes"/>
      <point x="576" y="161"/>
      <point x="527" y="142"/>
      <point x="439" y="142" type="curve" smooth="yes"/>
      <point x="351" y="142"/>
      <point x="304" y="166"/>
      <point x="304" y="207" type="curve" smooth="yes"/>
      <point x="304" y="236"/>
      <point x="309" y="251"/>
      <point x="362" y="310" type="curve" smooth="yes"/>
      <point x="415" y="370"/>
      <point x="436" y="411"/>
      <point x="436" y="474" type="curve" smooth="yes"/>
      <point x="436" y="548"/>
      <point x="382" y="632"/>
      <point x="227" y="632" type="curve" smooth="yes"/>
      <point x="111" y="632"/>
      <point x="44" y="583"/>
      <point x="44" y="497" type="curve" smooth="yes"/>
      <point x="44" y="426"/>
      <point x="86" y="384"/>
      <point x="159" y="352" type="curve"/>
      <point x="234" y="454" type="line"/>
      <point x="203" y="465"/>
      <point x="190" y="475"/>
      <point x="190" y="494" type="curve" smooth="yes"/>
      <point x="190" y="512"/>
      <point x="205" y="520"/>
      <point x="222" y="520" type="curve" smooth="yes"/>
      <point x="253" y="520"/>
      <point x="268" y="499"/>
      <point x="268" y="478" type="curve" smooth="yes"/>
      <point x="268" y="452"/>
      <point x="252" y="432"/>
      <point x="208" y="380" type="curve" smooth="yes"/>
      <point x="153" y="315"/>
      <point x="122" y="270"/>
      <point x="122" y="204" type="curve" smooth="yes"/>
      <point x="122" y="82"/>
      <point x="225" y="0"/>
    </contour>
  </outline>
</glyph>
<glyph name="uni1CEB" format="2">
  <advance width="907"/>
  <unicode hex="1CEB"/>
  <outline>
    <contour>
      <point x="442" y="0" type="curve" smooth="yes"/>
      <point x="721" y="0"/>
      <point x="878" y="155"/>
      <point x="878" y="350" type="curve" smooth="yes"/>
      <point x="878" y="501"/>
      <point x="776" y="591"/>
      <point x="635" y="591" type="curve" smooth="yes"/>
      <point x="491" y="591"/>
      <point x="451" y="511"/>
      <point x="451" y="447" type="curve" smooth="yes"/>
      <point x="451" y="315"/>
      <point x="557" y="285"/>
      <point x="633" y="285" type="curve" smooth="yes"/>
      <point x="651" y="285"/>
      <point x="668" y="287"/>
      <point x="684" y="289" type="curve"/>
      <point x="675" y="407" type="line"/>
      <point x="668" y="406"/>
      <point x="660" y="405"/>
      <point x="650" y="405" type="curve" smooth="yes"/>
      <point x="614" y="405"/>
      <point x="598" y="417"/>
      <point x="598" y="444" type="curve" smooth="yes"/>
      <point x="598" y="465"/>
      <point x="611" y="477"/>
      <point x="635" y="477" type="curve" smooth="yes"/>
      <point x="674" y="477"/>
      <point x="703" y="438"/>
      <point x="703" y="365" type="curve" smooth="yes"/>
      <point x="703" y="253"/>
      <point x="622" y="142"/>
      <point x="436" y="142" type="curve" smooth="yes"/>
      <point x="351" y="142"/>
      <point x="304" y="166"/>
      <point x="304" y="207" type="curve" smooth="yes"/>
      <point x="304" y="236"/>
      <point x="309" y="251"/>
      <point x="362" y="310" type="curve" smooth="yes"/>
      <point x="415" y="370"/>
      <point x="436" y="411"/>
      <point x="436" y="474" type="curve" smooth="yes"/>
      <point x="436" y="548"/>
      <point x="382" y="632"/>
      <point x="227" y="632" type="curve" smooth="yes"/>
      <point x="111" y="632"/>
      <point x="44" y="583"/>
      <point x="44" y="497" type="curve" smooth="yes"/>
      <point x="44" y="426"/>
      <point x="86" y="384"/>
      <point x="159" y="352" type="curve"/>
      <point x="234" y="454" type="line"/>
      <point x="203" y="465"/>
      <point x="190" y="475"/>
      <point x="190" y="494" type="curve" smooth="yes"/>
      <point x="190" y="512"/>
      <point x="205" y="520"/>
      <point x="222" y="520" type="curve" smooth="yes"/>
      <point x="253" y="520"/>
      <point x="268" y="499"/>
      <point x="268" y="478" type="curve" smooth="yes"/>
      <point x="268" y="452"/>
      <point x="252" y="432"/>
      <point x="208" y="380" type="curve" smooth="yes"/>
      <point x="153" y="315"/>
      <point x="122" y="270"/>
      <point x="122" y="204" type="curve" smooth="yes"/>
      <point x="122" y="82"/>
      <point x="225" y="0"/>
    </contour>
  </outline>
</glyph>
<glyph name="uni1CEC" format="2">
  <advance width="1029"/>
  <unicode hex="1CEC"/>
  <outline>
    <contour>
      <point x="672" y="361" type="curve" smooth="yes"/>
      <point x="672" y="218"/>
      <point x="566" y="142"/>
      <point x="430" y="142" type="curve" smooth="yes"/>
      <point x="350" y="142"/>
      <point x="304" y="166"/>
      <point x="304" y="207" type="curve" smooth="yes"/>
      <point x="304" y="236"/>
      <point x="309" y="251"/>
      <point x="362" y="310" type="curve" smooth="yes"/>
      <point x="415" y="370"/>
      <point x="436" y="411"/>
      <point x="436" y="474" type="curve" smooth="yes"/>
      <point x="436" y="548"/>
      <point x="382" y="632"/>
      <point x="227" y="632" type="curve" smooth="yes"/>
      <point x="111" y="632"/>
      <point x="44" y="583"/>
      <point x="44" y="497" type="curve" smooth="yes"/>
      <point x="44" y="426"/>
      <point x="86" y="384"/>
      <point x="159" y="352" type="curve"/>
      <point x="234" y="454" type="line"/>
      <point x="203" y="465"/>
      <point x="190" y="475"/>
      <point x="190" y="494" type="curve" smooth="yes"/>
      <point x="190" y="512"/>
      <point x="205" y="520"/>
      <point x="222" y="520" type="curve" smooth="yes"/>
      <point x="253" y="520"/>
      <point x="268" y="499"/>
      <point x="268" y="478" type="curve" smooth="yes"/>
      <point x="268" y="452"/>
      <point x="252" y="432"/>
      <point x="208" y="380" type="curve" smooth="yes"/>
      <point x="153" y="315"/>
      <point x="122" y="270"/>
      <point x="122" y="204" type="curve" smooth="yes"/>
      <point x="122" y="82"/>
      <point x="223" y="0"/>
      <point x="426" y="0" type="curve" smooth="yes"/>
      <point x="664" y="0"/>
      <point x="840" y="116"/>
      <point x="840" y="351" type="curve" smooth="yes"/>
      <point x="840" y="517"/>
      <point x="748" y="591"/>
      <point x="618" y="591" type="curve" smooth="yes"/>
      <point x="486" y="591"/>
      <point x="442" y="513"/>
      <point x="442" y="442" type="curve" smooth="yes"/>
      <point x="442" y="314"/>
      <point x="547" y="270"/>
      <point x="712" y="246" type="curve"/>
      <point x="831" y="228"/>
      <point x="847" y="207"/>
      <point x="847" y="163" type="curve" smooth="yes"/>
      <point x="847" y="136"/>
      <point x="836" y="106"/>
      <point x="818" y="81" type="curve"/>
      <point x="959" y="5" type="line"/>
      <point x="987" y="47"/>
      <point x="1012" y="92"/>
      <point x="1012" y="162" type="curve" smooth="yes"/>
      <point x="1012" y="276"/>
      <point x="932" y="343"/>
      <point x="768" y="363" type="curve"/>
      <point x="635" y="376"/>
      <point x="589" y="403"/>
      <point x="589" y="445" type="curve" smooth="yes"/>
      <point x="589" y="459"/>
      <point x="597" y="477"/>
      <point x="621" y="477" type="curve" smooth="yes"/>
      <point x="662" y="477"/>
      <point x="672" y="429"/>
    </contour>
  </outline>
</glyph>
<glyph name="uni1CED" format="2">
  <unicode hex="1CED"/>
  <outline>
    <contour>
      <point x="-225" y="-119" type="line"/>
      <point x="3" y="-268" type="line"/>
      <point x="79" y="-168" type="line"/>
      <point x="-150" y="-18" type="line"/>
    </contour>
  </outline>
</glyph>
<glyph name="uni1CEE" format="2">
  <advance width="598"/>
  <unicode hex="1CEE"/>
  <outline>
    <contour>
      <point x="349" y="0" type="curve" smooth="yes"/>
      <point x="489" y="0"/>
      <point x="555" y="52"/>
      <point x="555" y="126" type="curve" smooth="yes"/>
      <point x="555" y="173"/>
      <point x="522" y="213"/>
      <point x="463" y="213" type="curve" smooth="yes"/>
      <point x="416" y="213"/>
      <point x="378" y="190"/>
      <point x="378" y="131" type="curve" smooth="yes"/>
      <point x="378" y="103"/>
      <point x="387" y="77"/>
      <point x="404" y="52" type="curve"/>
      <point x="456" y="155" type="line"/>
      <point x="424" y="147"/>
      <point x="379" y="138"/>
      <point x="345" y="138" type="curve" smooth="yes"/>
      <point x="291" y="138"/>
      <point x="257" y="156"/>
      <point x="257" y="200" type="curve" smooth="yes"/>
      <point x="257" y="232"/>
      <point x="282" y="256"/>
      <point x="335" y="256" type="curve" smooth="yes"/>
      <point x="346" y="256"/>
      <point x="364" y="255"/>
      <point x="370" y="254" type="curve"/>
      <point x="387" y="392" type="line"/>
      <point x="380" y="393"/>
      <point x="364" y="394"/>
      <point x="342" y="394" type="curve" smooth="yes"/>
      <point x="173" y="394"/>
      <point x="80" y="315"/>
      <point x="80" y="198" type="curve" smooth="yes"/>
      <point x="80" y="92"/>
      <point x="155" y="0"/>
    </contour>
    <contour>
      <point x="160" y="300" type="curve"/>
      <point x="301" y="377" type="line"/>
      <point x="255" y="395"/>
      <point x="227" y="422"/>
      <point x="227" y="452" type="curve" smooth="yes"/>
      <point x="227" y="480"/>
      <point x="245" y="494"/>
      <point x="293" y="494" type="curve" smooth="yes"/>
      <point x="315" y="494"/>
      <point x="338" y="491"/>
      <point x="364" y="487" type="curve"/>
      <point x="393" y="620" type="line"/>
      <point x="368" y="625"/>
      <point x="314" y="632"/>
      <point x="264" y="632" type="curve" smooth="yes"/>
      <point x="125" y="632"/>
      <point x="50" y="575"/>
      <point x="50" y="471" type="curve" smooth="yes"/>
      <point x="50" y="413"/>
      <point x="80" y="355"/>
    </contour>
    <contour>
      <point x="492" y="250" type="curve" smooth="yes"/>
      <point x="542" y="250"/>
      <point x="576" y="284"/>
      <point x="576" y="332" type="curve" smooth="yes"/>
      <point x="576" y="379"/>
      <point x="542" y="414"/>
      <point x="492" y="414" type="curve" smooth="yes"/>
      <point x="444" y="414"/>
      <point x="408" y="379"/>
      <point x="408" y="332" type="curve" smooth="yes"/>
      <point x="408" y="284"/>
      <point x="444" y="250"/>
    </contour>
  </outline>
</glyph>
<glyph name="uni1CEF" format="2">
  <advance width="500"/>
  <unicode hex="1CEF"/>
  <outline>
    <contour>
      <point x="463" y="260" type="curve"/>
      <point x="440" y="378" type="line"/>
      <point x="410" y="368"/>
      <point x="373" y="360"/>
      <point x="324" y="360" type="curve" smooth="yes"/>
      <point x="265" y="360"/>
      <point x="228" y="384"/>
      <point x="228" y="434" type="curve" smooth="yes"/>
      <point x="228" y="483"/>
      <point x="267" y="505"/>
      <point x="337" y="505" type="curve" smooth="yes"/>
      <point x="375" y="505"/>
      <point x="406" y="501"/>
      <point x="432" y="496" type="curve"/>
      <point x="444" y="621" type="line"/>
      <point x="414" y="628"/>
      <point x="368" y="632"/>
      <point x="303" y="632" type="curve" smooth="yes"/>
      <point x="149" y="632"/>
      <point x="50" y="559"/>
      <point x="50" y="437" type="curve" smooth="yes"/>
      <point x="50" y="334"/>
      <point x="119" y="270"/>
      <point x="248" y="253" type="curve" smooth="yes"/>
      <point x="264" y="251"/>
      <point x="280" y="240"/>
      <point x="283" y="240" type="curve" smooth="yes"/>
      <point x="348" y="240"/>
      <point x="407" y="246"/>
    </contour>
    <contour>
      <point x="405" y="287" type="line"/>
      <point x="266" y="303" type="line"/>
      <point x="134" y="278"/>
      <point x="77" y="215"/>
      <point x="77" y="133" type="curve" smooth="yes"/>
      <point x="77" y="33"/>
      <point x="165" y="-12"/>
      <point x="280" y="-12" type="curve" smooth="yes"/>
      <point x="405" y="-12"/>
      <point x="454" y="37"/>
      <point x="454" y="110" type="curve" smooth="yes"/>
      <point x="454" y="171"/>
      <point x="410" y="220"/>
      <point x="324" y="232" type="curve"/>
      <point x="294" y="138" type="line"/>
      <point x="313" y="134"/>
      <point x="318" y="127"/>
      <point x="318" y="118" type="curve" smooth="yes"/>
      <point x="318" y="104"/>
      <point x="307" y="99"/>
      <point x="288" y="99" type="curve" smooth="yes"/>
      <point x="262" y="99"/>
      <point x="247" y="114"/>
      <point x="247" y="144" type="curve" smooth="yes"/>
      <point x="247" y="192"/>
      <point x="290" y="238"/>
      <point x="375" y="247" type="curve"/>
    </contour>
    <contour>
      <point x="276" y="433" type="curve" smooth="yes"/>
      <point x="276" y="397"/>
      <point x="301" y="375"/>
      <point x="335" y="375" type="curve" smooth="yes"/>
      <point x="370" y="375"/>
      <point x="395" y="396"/>
      <point x="395" y="433" type="curve" smooth="yes"/>
      <point x="395" y="468"/>
      <point x="370" y="490"/>
      <point x="335" y="490" type="curve" smooth="yes"/>
      <point x="301" y="490"/>
      <point x="276" y="467"/>
    </contour>
  </outline>
</glyph>
<glyph name="uni1CF0" format="2">
  <advance width="647"/>
  <unicode hex="1CF0"/>
  <outline>
    <contour>
      <point x="315" y="217" type="curve" smooth="yes"/>
      <point x="393" y="217" type="line"/>
      <point x="410" y="247"/>
      <point x="421" y="276"/>
      <point x="421" y="321" type="curve" smooth="yes"/>
      <point x="421" y="374"/>
      <point x="406" y="406"/>
      <point x="341" y="464" type="curve" smooth="yes"/>
      <point x="313" y="489"/>
      <point x="306" y="497"/>
      <point x="306" y="511" type="curve" smooth="yes"/>
      <point x="306" y="522"/>
      <point x="314" y="528"/>
      <point x="326" y="528" type="curve" smooth="yes"/>
      <point x="345" y="528"/>
      <point x="365" y="514"/>
      <point x="404" y="464" type="curve"/>
      <point x="514" y="525" type="line"/>
      <point x="472" y="577"/>
      <point x="416" y="632"/>
      <point x="315" y="632" type="curve" smooth="yes"/>
      <point x="210" y="632"/>
      <point x="152" y="579"/>
      <point x="152" y="509" type="curve" smooth="yes"/>
      <point x="152" y="464"/>
      <point x="172" y="431"/>
      <point x="212" y="391" type="curve" smooth="yes"/>
      <point x="244" y="359"/>
      <point x="257" y="345"/>
      <point x="257" y="332" type="curve" smooth="yes"/>
      <point x="257" y="322"/>
      <point x="256" y="314"/>
      <point x="253" y="302" type="curve"/>
      <point x="265" y="344" type="line"/>
      <point x="140" y="344"/>
      <point x="27" y="292"/>
      <point x="27" y="176" type="curve" smooth="yes"/>
      <point x="27" y="52"/>
      <point x="159" y="0"/>
      <point x="323" y="0" type="curve" smooth="yes"/>
      <point x="475" y="0"/>
      <point x="614" y="39"/>
      <point x="614" y="166" type="curve" smooth="yes"/>
      <point x="614" y="244"/>
      <point x="547" y="332"/>
      <point x="344" y="346" type="curve"/>
      <point x="317" y="271" type="line"/>
      <point x="351" y="217" type="line"/>
      <point x="406" y="215"/>
      <point x="436" y="192"/>
      <point x="436" y="172" type="curve" smooth="yes"/>
      <point x="436" y="142"/>
      <point x="397" y="131"/>
      <point x="318" y="131" type="curve" smooth="yes"/>
      <point x="245" y="131"/>
      <point x="205" y="143"/>
      <point x="205" y="175" type="curve" smooth="yes"/>
      <point x="205" y="203"/>
      <point x="232" y="217"/>
    </contour>
    <contour>
      <point x="445" y="410" type="curve" smooth="yes"/>
      <point x="445" y="362"/>
      <point x="481" y="328"/>
      <point x="529" y="328" type="curve" smooth="yes"/>
      <point x="579" y="328"/>
      <point x="613" y="362"/>
      <point x="613" y="410" type="curve" smooth="yes"/>
      <point x="613" y="457"/>
      <point x="579" y="492"/>
      <point x="529" y="492" type="curve" smooth="yes"/>
      <point x="481" y="492"/>
      <point x="445" y="457"/>
    </contour>
  </outline>
</glyph>
<glyph name="uni1CF1" format="2">
  <advance width="570"/>
  <unicode hex="1CF1"/>
  <outline>
    <contour>
      <point x="273" y="72" type="curve"/>
      <point x="364" y="-40" type="line"/>
      <point x="380" y="-29"/>
      <point x="402" y="-12"/>
      <point x="436" y="17" type="curve" smooth="yes"/>
      <point x="506" y="78"/>
      <point x="543" y="129"/>
      <point x="543" y="195" type="curve" smooth="yes"/>
      <point x="543" y="239"/>
      <point x="528" y="270"/>
      <point x="500" y="292" type="curve" smooth="yes"/>
      <point x="465" y="320"/>
      <point x="426" y="332"/>
      <point x="322" y="332" type="curve" smooth="yes"/>
      <point x="246" y="332" type="line"/>
      <point x="246" y="224" type="line"/>
      <point x="340" y="224" type="line" smooth="yes"/>
      <point x="364" y="224"/>
      <point x="373" y="222"/>
      <point x="381" y="214" type="curve" smooth="yes"/>
      <point x="384" y="211"/>
      <point x="388" y="206"/>
      <point x="388" y="195" type="curve" smooth="yes"/>
      <point x="388" y="176"/>
      <point x="381" y="159"/>
      <point x="333" y="118" type="curve" smooth="yes"/>
      <point x="313" y="102"/>
      <point x="292" y="86"/>
    </contour>
    <contour>
      <point x="88" y="118" type="curve" smooth="yes"/>
      <point x="88" y="69"/>
      <point x="124" y="33"/>
      <point x="175" y="33" type="curve" smooth="yes"/>
      <point x="225" y="33"/>
      <point x="261" y="69"/>
      <point x="261" y="118" type="curve" smooth="yes"/>
      <point x="261" y="166"/>
      <point x="225" y="203"/>
      <point x="175" y="203" type="curve" smooth="yes"/>
      <point x="124" y="203"/>
      <point x="88" y="166"/>
    </contour>
    <contour>
      <point x="297" y="484" type="curve"/>
      <point x="206" y="596" type="line"/>
      <point x="190" y="585"/>
      <point x="168" y="568"/>
      <point x="134" y="539" type="curve" smooth="yes"/>
      <point x="64" y="478"/>
      <point x="27" y="427"/>
      <point x="27" y="361" type="curve" smooth="yes"/>
      <point x="27" y="317"/>
      <point x="42" y="286"/>
      <point x="70" y="264" type="curve" smooth="yes"/>
      <point x="105" y="236"/>
      <point x="144" y="224"/>
      <point x="248" y="224" type="curve" smooth="yes"/>
      <point x="324" y="224" type="line"/>
      <point x="324" y="332" type="line"/>
      <point x="230" y="332" type="line" smooth="yes"/>
      <point x="206" y="332"/>
      <point x="197" y="334"/>
      <point x="189" y="342" type="curve" smooth="yes"/>
      <point x="186" y="345"/>
      <point x="182" y="350"/>
      <point x="182" y="361" type="curve" smooth="yes"/>
      <point x="182" y="380"/>
      <point x="189" y="397"/>
      <point x="237" y="438" type="curve" smooth="yes"/>
      <point x="257" y="454"/>
      <point x="278" y="470"/>
    </contour>
    <contour>
      <point x="309" y="437" type="curve" smooth="yes"/>
      <point x="309" y="388"/>
      <point x="345" y="352"/>
      <point x="396" y="352" type="curve" smooth="yes"/>
      <point x="446" y="352"/>
      <point x="482" y="388"/>
      <point x="482" y="437" type="curve" smooth="yes"/>
      <point x="482" y="485"/>
      <point x="446" y="522"/>
      <point x="396" y="522" type="curve" smooth="yes"/>
      <point x="345" y="522"/>
      <point x="309" y="485"/>
    </contour>
  </outline>
</glyph>
<glyph name="uni1CF2" format="2">
  <advance width="613"/>
  <unicode hex="1CF2"/>
  <outline>
    <contour>
      <point x="315" y="287" type="curve" smooth="yes"/>
      <point x="445" y="287"/>
      <point x="537" y="345"/>
      <point x="577" y="506" type="curve"/>
      <point x="447" y="546" type="line"/>
      <point x="429" y="454"/>
      <point x="393" y="411"/>
      <point x="316" y="411" type="curve" smooth="yes"/>
      <point x="248" y="411"/>
      <point x="207" y="444"/>
      <point x="165" y="547" type="curve"/>
      <point x="47" y="504" type="line"/>
      <point x="105" y="350"/>
      <point x="199" y="287"/>
    </contour>
    <contour>
      <point x="309" y="268" type="curve" smooth="yes"/>
      <point x="179" y="268"/>
      <point x="87" y="210"/>
      <point x="47" y="49" type="curve"/>
      <point x="177" y="9" type="line"/>
      <point x="195" y="101"/>
      <point x="231" y="144"/>
      <point x="308" y="144" type="curve" smooth="yes"/>
      <point x="376" y="144"/>
      <point x="417" y="111"/>
      <point x="459" y="8" type="curve"/>
      <point x="577" y="51" type="line"/>
      <point x="519" y="205"/>
      <point x="425" y="268"/>
    </contour>
  </outline>
</glyph>
<glyph name="uni1CF3" format="2">
  <advance width="624"/>
  <unicode hex="1CF3"/>
  <outline>
    <contour>
      <point x="44" y="140" type="curve"/>
      <point x="84" y="12" type="line"/>
      <point x="246" y="55"/>
      <point x="307" y="146"/>
      <point x="307" y="274" type="curve" smooth="yes"/>
      <point x="307" y="388"/>
      <point x="241" y="484"/>
      <point x="86" y="542" type="curve"/>
      <point x="43" y="426" type="line"/>
      <point x="140" y="383"/>
      <point x="171" y="337"/>
      <point x="171" y="273" type="curve" smooth="yes"/>
      <point x="171" y="198"/>
      <point x="131" y="158"/>
    </contour>
    <contour>
      <point x="597" y="414" type="curve"/>
      <point x="557" y="542" type="line"/>
      <point x="395" y="499"/>
      <point x="334" y="406"/>
      <point x="334" y="280" type="curve" smooth="yes"/>
      <point x="334" y="167"/>
      <point x="400" y="70"/>
      <point x="555" y="12" type="curve"/>
      <point x="598" y="128" type="line"/>
      <point x="501" y="171"/>
      <point x="470" y="216"/>
      <point x="470" y="281" type="curve" smooth="yes"/>
      <point x="470" y="356"/>
      <point x="510" y="396"/>
    </contour>
  </outline>
</glyph>
<glyph name="uni1CF4" format="2">
  <unicode hex="1CF4"/>
  <outline>
    <contour>
      <point x="70" y="1147" type="curve"/>
      <point x="-53" y="1185" type="line"/>
      <point x="-71" y="1097"/>
      <point x="-105" y="1056"/>
      <point x="-178" y="1056" type="curve" smooth="yes"/>
      <point x="-243" y="1056"/>
      <point x="-282" y="1088"/>
      <point x="-322" y="1186" type="curve"/>
      <point x="-434" y="1145" type="line"/>
      <point x="-379" y="998"/>
      <point x="-290" y="938"/>
      <point x="-179" y="938" type="curve" smooth="yes"/>
      <point x="-55" y="938"/>
      <point x="32" y="993"/>
    </contour>
  </outline>
</glyph>
<glyph name="uni1CF6" format="2">
  <advance width="751"/>
  <unicode hex="1CF6"/>
  <outline>
    <contour>
      <point x="235" y="169" type="curve" smooth="yes"/>
      <point x="371" y="169"/>
      <point x="395" y="263"/>
      <point x="430" y="449" type="curve"/>
      <point x="313" y="449" type="line"/>
      <point x="311" y="345"/>
      <point x="295" y="306"/>
      <point x="255" y="306" type="curve" smooth="yes"/>
      <point x="215" y="306"/>
      <point x="198" y="328"/>
      <point x="192" y="451" type="curve"/>
      <point x="49" y="445" type="line"/>
      <point x="58" y="233"/>
      <point x="129" y="169"/>
    </contour>
    <contour>
      <point x="517" y="169" type="curve" smooth="yes"/>
      <point x="623" y="169"/>
      <point x="695" y="233"/>
      <point x="702" y="445" type="curve"/>
      <point x="562" y="451" type="line"/>
      <point x="553" y="329"/>
      <point x="535" y="306"/>
      <point x="499" y="306" type="curve" smooth="yes"/>
      <point x="457" y="306"/>
      <point x="443" y="344"/>
      <point x="440" y="449" type="curve"/>
      <point x="323" y="449" type="line"/>
      <point x="354" y="263"/>
      <point x="378" y="169"/>
    </contour>
  </outline>
</glyph>
<glyph name="quoteright.deva" format="2">
  <advance width="354"/>
  <unicode hex="2019"/>
  <outline>
    <contour>
      <point x="298" y="729" type="line"/>
      <point x="131" y="729" type="line"/>
      <point x="122" y="649"/>
      <point x="102" y="535"/>
      <point x="83" y="444" type="curve"/>
      <point x="219" y="444" type="line"/>
      <point x="252" y="518"/>
      <point x="287" y="646"/>
      <point x="305" y="718" type="curve"/>
    </contour>
  </outline>
</glyph>
<glyph name="uni20B9.deva" format="2">
  <advance width="585"/>
  <unicode hex="20B9"/>
  <outline>
    <contour>
      <point x="539" y="504" type="line"/>
      <point x="539" y="622" type="line"/>
      <point x="57" y="622" type="line"/>
      <point x="57" y="504" type="line"/>
      <point x="117" y="504" type="line" smooth="yes"/>
      <point x="161" y="504"/>
      <point x="181" y="501"/>
      <point x="198" y="486" type="curve" smooth="yes"/>
      <point x="214" y="471"/>
      <point x="224" y="446"/>
      <point x="224" y="406" type="curve" smooth="yes"/>
      <point x="224" y="372"/>
      <point x="219" y="345"/>
      <point x="204" y="327" type="curve" smooth="yes"/>
      <point x="186" y="309"/>
      <point x="167" y="301"/>
      <point x="103" y="301" type="curve" smooth="yes"/>
      <point x="77" y="301" type="line"/>
      <point x="55" y="192" type="line"/>
      <point x="212" y="0" type="line"/>
      <point x="431" y="0" type="line"/>
      <point x="239" y="209" type="line"/>
      <point x="241" y="199" type="line"/>
      <point x="339" y="226"/>
      <point x="394" y="297"/>
      <point x="394" y="392" type="curve" smooth="yes"/>
      <point x="394" y="436"/>
      <point x="371" y="484"/>
      <point x="347" y="504" type="curve"/>
    </contour>
    <contour>
      <point x="57" y="462" type="line"/>
      <point x="57" y="345" type="line"/>
      <point x="539" y="345" type="line"/>
      <point x="539" y="462" type="line"/>
    </contour>
  </outline>
</glyph>
<glyph name="uni20F0" format="2">
  <unicode hex="20F0"/>
  <outline>
    <contour>
      <point x="-133" y="985" type="line"/>
      <point x="-52" y="945" type="line"/>
      <point x="-15" y="1029" type="line"/>
      <point x="28" y="944" type="line"/>
      <point x="105" y="985" type="line"/>
      <point x="44" y="1068" type="line"/>
      <point x="137" y="1074" type="line"/>
      <point x="126" y="1163" type="line"/>
      <point x="20" y="1133" type="line"/>
      <point x="31" y="1238" type="line"/>
      <point x="-59" y="1238" type="line"/>
      <point x="-48" y="1133" type="line"/>
      <point x="-152" y="1163" type="line"/>
      <point x="-165" y="1076" type="line"/>
      <point x="-72" y="1068" type="line"/>
    </contour>
  </outline>
</glyph>
<glyph name="uniA832" format="2">
  <advance width="771"/>
  <unicode hex="A832"/>
  <outline>
    <contour>
      <point x="299" y="622" type="line"/>
      <point x="299" y="0" type="line"/>
      <point x="472" y="0" type="line"/>
      <point x="472" y="622" type="line"/>
    </contour>
    <contour>
      <point x="75" y="622" type="line"/>
      <point x="75" y="0" type="line"/>
      <point x="248" y="0" type="line"/>
      <point x="248" y="622" type="line"/>
    </contour>
    <contour>
      <point x="523" y="622" type="line"/>
      <point x="523" y="0" type="line"/>
      <point x="696" y="0" type="line"/>
      <point x="696" y="622" type="line"/>
    </contour>
  </outline>
</glyph>
<glyph name="uniA834" format="2">
  <advance width="629"/>
  <unicode hex="A834"/>
  <outline>
    <contour>
      <point x="556" y="444" type="line"/>
      <point x="33" y="315" type="line"/>
      <point x="73" y="162" type="line"/>
      <point x="596" y="293" type="line"/>
    </contour>
    <contour>
      <point x="556" y="645" type="line"/>
      <point x="33" y="514" type="line"/>
      <point x="73" y="363" type="line"/>
      <point x="596" y="494" type="line"/>
    </contour>
  </outline>
</glyph>
<glyph name="uniA838" format="2">
  <advance width="376"/>
  <unicode hex="A838"/>
  <outline>
    <contour>
      <point x="-129" y="-113" type="curve"/>
      <point x="-139" y="-253" type="line"/>
      <point x="-105" y="-260"/>
      <point x="-67" y="-263"/>
      <point x="-37" y="-263" type="curve" smooth="yes"/>
      <point x="277" y="-263"/>
      <point x="326" y="-75"/>
      <point x="326" y="177" type="curve" smooth="yes"/>
      <point x="326" y="317"/>
      <point x="297" y="510"/>
      <point x="260" y="634" type="curve"/>
      <point x="84" y="607" type="line"/>
      <point x="114" y="499"/>
      <point x="146" y="335"/>
      <point x="146" y="180" type="curve" smooth="yes"/>
      <point x="146" y="-27"/>
      <point x="103" y="-123"/>
      <point x="-39" y="-123" type="curve" smooth="yes"/>
      <point x="-76" y="-123"/>
      <point x="-101" y="-120"/>
    </contour>
  </outline>
</glyph>
<glyph name="uniA8E0" format="2">
  <unicode hex="A8E0"/>
  <outline>
    <contour>
      <point x="-275" y="1095" type="curve" smooth="yes"/>
      <point x="-275" y="1023"/>
      <point x="-221" y="979"/>
      <point x="-144" y="979" type="curve" smooth="yes"/>
      <point x="-69" y="979"/>
      <point x="-16" y="1020"/>
      <point x="-16" y="1095" type="curve" smooth="yes"/>
      <point x="-16" y="1171"/>
      <point x="-69" y="1212"/>
      <point x="-146" y="1212" type="curve" smooth="yes"/>
      <point x="-223" y="1212"/>
      <point x="-275" y="1168"/>
    </contour>
    <contour>
      <point x="-185" y="1094" type="curve" smooth="yes"/>
      <point x="-185" y="1124"/>
      <point x="-167" y="1139"/>
      <point x="-145" y="1139" type="curve" smooth="yes"/>
      <point x="-121" y="1139"/>
      <point x="-106" y="1123"/>
      <point x="-106" y="1096" type="curve" smooth="yes"/>
      <point x="-106" y="1066"/>
      <point x="-121" y="1052"/>
      <point x="-145" y="1052" type="curve" smooth="yes"/>
      <point x="-169" y="1052"/>
      <point x="-185" y="1065"/>
    </contour>
  </outline>
</glyph>
<glyph name="uniA8E1" format="2">
  <unicode hex="A8E1"/>
  <outline>
    <contour>
      <point x="-141" y="1243" type="curve" smooth="yes"/>
      <point x="-205" y="1243"/>
      <point x="-240" y="1216"/>
      <point x="-240" y="1176" type="curve" smooth="yes"/>
      <point x="-240" y="1150"/>
      <point x="-227" y="1127"/>
      <point x="-201" y="1109" type="curve"/>
      <point x="-148" y="1150" type="line"/>
      <point x="-158" y="1157"/>
      <point x="-161" y="1163"/>
      <point x="-161" y="1169" type="curve" smooth="yes"/>
      <point x="-161" y="1175"/>
      <point x="-156" y="1180"/>
      <point x="-145" y="1180" type="curve" smooth="yes"/>
      <point x="-132" y="1180"/>
      <point x="-127" y="1174"/>
      <point x="-127" y="1167" type="curve" smooth="yes"/>
      <point x="-127" y="1158"/>
      <point x="-135" y="1146"/>
      <point x="-158" y="1128" type="curve" smooth="yes"/>
      <point x="-175" y="1115"/>
      <point x="-199" y="1099"/>
      <point x="-234" y="1079" type="curve"/>
      <point x="-241" y="1051" type="line"/>
      <point x="-142" y="975" type="line" smooth="yes"/>
      <point x="-128" y="964"/>
      <point x="-126" y="959"/>
      <point x="-126" y="950" type="curve" smooth="yes"/>
      <point x="-126" y="941"/>
      <point x="-130" y="935"/>
      <point x="-135" y="930" type="curve"/>
      <point x="-70" y="886" type="line"/>
      <point x="-45" y="910"/>
      <point x="-34" y="934"/>
      <point x="-34" y="956" type="curve" smooth="yes"/>
      <point x="-34" y="983"/>
      <point x="-42" y="1004"/>
      <point x="-71" y="1025" type="curve" smooth="yes"/>
      <point x="-132" y="1069" type="line"/>
      <point x="-130" y="1050" type="line"/>
      <point x="-51" y="1098"/>
      <point x="-38" y="1128"/>
      <point x="-38" y="1162" type="curve" smooth="yes"/>
      <point x="-38" y="1210"/>
      <point x="-70" y="1243"/>
    </contour>
  </outline>
</glyph>
